<?xml version="1.0" encoding="utf-8"?>
<!-- Generator: Adobe Illustrator 24.0.1, SVG Export Plug-In . SVG Version: 6.00 Build 0)  -->
<svg version="1.1" id="_лой_1" xmlns="http://www.w3.org/2000/svg" xmlns:xlink="http://www.w3.org/1999/xlink" x="0px" y="0px"
	 viewBox="0 0 3200 2000" style="enable-background:new 0 0 3200 2000;" xml:space="preserve">
<style type="text/css">
	.st0{opacity:0.3;fill:#AEC3FF;enable-background:new    ;}
	.st1{opacity:0.5;fill:#FFFFFF;enable-background:new    ;}
	.st2{fill:#D0DCF9;}
	.st3{fill:#EBD6CB;}
	.st4{fill:#AEBBD2;}
	.st5{fill:#B3C0DE;}
	.st6{fill:#F7E2D8;}
	.st7{fill:#E8D6D1;}
	.st8{fill:#F0CBB7;}
	.st9{fill:#B3C2E0;}
	.st10{fill:#FF9843;}
	.st11{opacity:0.1;fill:#94B0ED;enable-background:new    ;}
	.st12{fill:#F9DDBF;}
	.st13{fill:#AEC3FF;}
	.st14{fill:#DB6A1D;}
	.st15{fill:#F99746;}
	.st16{fill:#ED7D2B;}
	.st17{fill:#8FADEF;}
	.st18{fill:#C0D8FB;}
	.st19{fill:#DFEBFD;}
	.st20{fill:#B7D3F3;}
	.st21{fill:#9FC1F4;}
	.st22{fill:#FFC48A;}
	.st23{opacity:0.7;}
	.st24{fill:#77A4E5;}
	.st25{fill:#AFCDFB;}
	.st26{fill:#94B0ED;}
	.st27{fill:#2B478B;}
	.st28{fill:#CC6A27;}
	.st29{fill:#C0D4FF;}
	.st30{fill:#0E2C4F;}
	.st31{fill:#163560;}
	.st32{fill:#FFB27D;}
	.st33{fill:#2A4E96;}
	.st34{fill:#EAA16E;}
	.st35{fill:#EA680F;}
	.st36{fill:#E58638;}
	.st37{fill:#FCA56B;}
	.st38{fill:#F4A773;}
	.st39{fill:#7298DB;}
	.st40{fill:#C2D5FF;}
	.st41{opacity:0.3;fill:#94B0ED;enable-background:new    ;}
</style>
<title>barbearia</title>
<path class="st0" d="M2982.6,1795.7l-2641.1-0.7c0,0-86.4-121-144.9-306.4c-2-6.2-3.9-12.5-5.8-18.9c-21.5-72-38.4-153-44.5-239.9
	c-0.4-6.3-0.8-12.6-1.2-18.9c-3.8-71.4,0.4-143,12.8-213.4c0.2-1.1,0.4-2.3,0.6-3.4c1.1-6.4,2.3-12.7,3.6-18.9
	c17.6-87.9,45.2-163.8,82.9-227.6c3.6-6,7.2-11.9,10.9-17.7c118.9-185.2,329-264.1,632.6-243.9c229.1,15.3,435,17.4,688.6-136.3
	c95.1-57.6,312.9-138.8,491.5-140.4c423.3-3.8,895.6,277.9,830.8,741.9c-0.3,2.3-0.7,4.7-1,7.1c-1.3,8.9-2.9,17.9-4.6,27
	c-3.9,20.1-6.5,41.3-14.8,61.5C2707.8,1465.1,3200.2,1427.9,2982.6,1795.7z"/>
<rect x="1395.8" y="661.4" class="st1" width="461.5" height="1098.4"/>
<polygon class="st2" points="1733.6,1517.9 1733.3,1535 1728.8,1751.3 1728.7,1759.3 1706.3,1759.3 1706.1,1751.5 1701,1535 
	1700.6,1517.9 "/>
<path class="st2" d="M1628.7,1517.9h176.9l0,0v1.7c0,8.5-6.9,15.3-15.3,15.3h0H1644c-8.5,0-15.3-6.9-15.3-15.3v0L1628.7,1517.9
	L1628.7,1517.9L1628.7,1517.9z"/>
<path class="st3" d="M1624.4,1472.2h197.7c8.2,0,14.8,6.6,14.8,14.8v16.1c0,8.2-6.6,14.8-14.8,14.8h-197.7
	c-8.2,0-14.8-6.6-14.8-14.8v-16.1C1609.5,1478.9,1616.2,1472.2,1624.4,1472.2z"/>
<path class="st3" d="M1693.6,1164.6h129.7c8.2,0,14.8,6.6,14.8,14.8V1492c0,8.2-6.6,14.8-14.8,14.8h-129.7
	c-8.2,0-14.8-6.6-14.8-14.8v-312.6C1678.7,1171.2,1685.4,1164.6,1693.6,1164.6z"/>
<path class="st4" d="M1614.7,1303.8c0,0-83.7,84.3-81.9,89.6s3.3,11.9,13.6,14.8c0,0,32.9-1.6,57.2-17.3
	S1614.7,1303.8,1614.7,1303.8z"/>
<path class="st4" d="M1739.3,1438.9c0,0,0,65.5-40.8,72.9c-0.9,0.2-1.8,0.3-2.9,0.5c-2.4,0.3-5,0.6-7.9,0.8h-0.2
	c-38.5,1.8-112-11.8-137.6-7.6c-6.4,1.1-9.8,3.2-9.2,6.9c8,39.4-44.6,217-53.8,247.1l-56.3,0.1c0.3-8.1,12.3-279,26.9-305.8
	c4.3-7.9,21.2-17.1,42.9-26.1c12.8-5.3,27.3-10.5,41.9-15.6c5.2-1.7,10.5-3.5,15.7-5.2c8.7-2.8,17.3-5.3,25.3-7.9
	c4.3-1.2,8.6-2.4,12.5-3.7c23.7-6.9,40.8-11.3,40.8-11.3l38.2,20.5l3.7,2l12.1,6.4l15.7,8.6l5.2,2.8l13.1,7L1739.3,1438.9z"/>
<path class="st5" d="M1756.6,1506.3c-16.9,3.1-39.9,4.1-61,5.8h-0.1c-2.7,0.2-5.3,0.4-7.9,0.7h-0.1c-26.5,2.4-48.2,6.3-47.9,17.4
	c1.4,62.4-25.6,188.8-34.6,229.2h-68.1c1-38.9,5.2-179.3,12.9-254.2c2.4-23.2,5.1-40.1,8.2-45.8c5.9-10.8,33.7-21.4,65.3-30.4
	l3.8-1.1c15.5-4.3,31.8-8.2,46.6-11.5l5.5-1.2l6.1-1.3l5.3-1.1c21.9-4.6,37.6-7.3,37.6-7.3l9.4,0.7l24,1.7l18.5,1.3
	c0,0,1.2,6.4,2.3,16C1785.2,1451.3,1786.5,1500.9,1756.6,1506.3z"/>
<path class="st6" d="M1671.3,1162.8c10.8,3.7,22.6,3.3,33.2-1c7.5-3,14.5-7.4,20.5-12.8c2.8-2.5,5.4-5.2,7.8-8.1
	c0,0-0.5-0.5-1.3-1.5c-4.3-5.3-18.1-24.4-19-58.7c0-0.4-3.2,0.7-8.1,2.7c-14.4,6-43,19.4-44.3,20l0,0c0,0,0.8,7.1,1.6,20
	c0.1,1.1,0.2,2.3,0.2,3.6c0.1,1.5,0.2,3.1,0.3,4.8C1663,1144.9,1671.3,1162.8,1671.3,1162.8z"/>
<path class="st7" d="M1661.7,1123.3c23.1,1.4,51-36.9,51-36.9c-2.6-1.4-5.4-2.4-8.3-3.1c-14.4,6-43,19.4-44.3,20l0,0
	C1660.1,1103.3,1660.8,1110.4,1661.7,1123.3z"/>
<path class="st6" d="M1650.6,1103.1c7.2,1.2,14.4,1.6,21.7,1.4c17.5-0.5,39.7-5.6,43.4-27.4c6.2-36.8,17.9-60.1-19.4-68.6
	c-20-4.5-32-3-39.7,1.3c-6.7,3.7-10,9.4-12.3,14.8C1639.1,1036.4,1635.4,1099.3,1650.6,1103.1z"/>
<path class="st8" d="M1657.6,983.8c-15.2,2.5-31.2,18.1-20.5,29.2c7.3,7.6,17.4,13.6,37.6,13.7c9.7,0,13.3,16.8,14.2,21.4
	s2.2,8.4,13.5,3.7c1.9-0.8,3.3-0.9,4.3-0.4c5.4,2.1,1.4,17.2,0.1,20.6c0,0-1.1,10.6,5.8,14.5c0.8,0.5,13.5,3.7,34.9-44.7
	c3.4-7.6,5.1-23.8-4.3-37.5S1705.6,975.9,1657.6,983.8z"/>
<path class="st9" d="M1784.3,1396.2c0.2,10.2,0.5,19.2,0.8,26.3c0.4,10.5-110.9,9.9-141.7,7.3c-10-0.8-37-14.5-59.7-31.4
	c-11.9-8.8,22.9-152.1,23.5-188.8c0.4-26.3,0.6-67.2,54.3-76.6l0.7-0.1c5.4,3,14.4,16.4,17,17.5l42.9-22.6c0.8,0.1,1.5,0.3,2.3,0.5
	c2.5-0.5,51.2,5.5,65,19.8c11.7,12.2-7.1,84.7-7.1,84.7c0.4,10.3,0.7,21.6,0.8,33.5c0.1,10,0.2,20.3,0.3,30.8
	C1783.4,1325.4,1783.6,1365.7,1784.3,1396.2z"/>
<path class="st9" d="M1718.8,1116.1c-0.2,0.1-39.7,34.4-39.7,34.4s49.3-11.4,54.8-21.3C1733.9,1129.2,1726.7,1113.5,1718.8,1116.1z"
	/>
<path class="st9" d="M1679.1,1150.5l-17.7-30.3c0,0-7.9,5.4-8.9,15.2C1652.6,1135.3,1672.7,1150.5,1679.1,1150.5z"/>
<path class="st6" d="M1664.5,1411.7c-10.1,1.4-20.1,4-29.6,7.9c-6.6,2.8-11.2,8.8-14.5,12.8c-10.5,12.3,13.2,9,25.5,6.5
	s14.2,1.2,28.6-5.3c4.5-2.1,4.5-5.1,7-7.1c3.2-2.6,6.6-5.1,10.1-7.3l-14.2-11.5L1664.5,1411.7z"/>
<path class="st6" d="M1670.4,1411.7c0,0-8.6-0.8-15.3-1s-16.5-0.6-12.8,2.1s9.9,5.3,10.9,5.2S1670.4,1411.7,1670.4,1411.7z"/>
<path class="st4" d="M1784.3,1396.2c-18.6,10.7-59.1,31.4-102.6,30.2l-4.1-18.8c0,0,80.7-86.5,84-159l21.5,17.8
	c0.1,10,0.2,20.3,0.3,30.8C1783.4,1325.4,1783.6,1365.7,1784.3,1396.2z"/>
<path class="st9" d="M1792.4,1155.2c0,0,32.8,154.6,24.1,189.2s-124.6,83.4-124.6,83.4s-24.3-2.5-18.1-22.2c0,0,92.7-84,91.4-95.1
	s-32.1-122.3-32.1-122.3L1792.4,1155.2z"/>
<path class="st6" d="M1533.8,1396c0,0-25.5,18.5-29.3,23.9s-8.7,18.1-4.5,20.2s15.7-13,22.4-16.1s-0.6,8.3,1.6,9.6s12-8,13.6-11.7
	s7.1-14.2,7.1-14.2S1536.7,1403.2,1533.8,1396z"/>
<path class="st10" d="M1893,1795.2h-532.6V639.8H1893V1795.2z M1396.2,1759.4h460.9V675.6h-461L1396.2,1759.4z"/>
<polygon class="st11" points="1395.8,1303.5 1857.3,960.5 1857.3,1759.8 1395.8,1759.8 "/>
<path class="st12" d="M1614.5,655.9c0-5.9,4.8-10.7,10.7-10.7c5.9,0,10.7,4.8,10.7,10.7s-4.8,10.7-10.7,10.7c0,0,0,0,0,0
	C1619.3,666.6,1614.5,661.8,1614.5,655.9z"/>
<path class="st12" d="M1369.2,657.7c0-5.9,4.8-10.7,10.7-10.7c5.9,0,10.7,4.8,10.7,10.7c0,5.9-4.8,10.7-10.7,10.7c0,0,0,0,0,0
	C1374,668.4,1369.2,663.7,1369.2,657.7z"/>
<circle class="st12" cx="1876.4" cy="657.1" r="10.7"/>
<path class="st12" d="M1865.7,971.8c0-5.9,4.8-10.7,10.7-10.7c5.9,0,10.7,4.8,10.7,10.7s-4.8,10.7-10.7,10.7l0,0
	C1870.5,982.5,1865.7,977.7,1865.7,971.8z"/>
<circle class="st12" cx="1876.4" cy="1260" r="10.7"/>
<ellipse transform="matrix(0.9239 -0.3827 0.3827 0.9239 -268.9282 601.4786)" class="st12" cx="1377.5" cy="976.7" rx="10.7" ry="10.7"/>
<path class="st13" d="M2751.6,1783.7l-45.1-166.6h35.1l25.3,165.7c0.6,3.6-1.9,6.9-5.1,6.9h-3.2
	C2755.4,1789.7,2752.6,1787.2,2751.6,1783.7z"/>
<path class="st13" d="M2247.3,1783.7l45.1-166.6h-35.1l-25.3,165.7c-0.6,3.6,1.9,6.9,5.1,6.9h3.2
	C2243.4,1789.7,2246.3,1787.2,2247.3,1783.7z"/>
<path class="st13" d="M2521.8,1783.7l-45.1-166.6h35.1l25.3,165.7c0.6,3.6-1.9,6.9-5.1,6.9h-3.2
	C2525.6,1789.7,2522.7,1787.2,2521.8,1783.7z"/>
<path class="st14" d="M2780.3,1220.9c0,0-93.3-20.4-273.3,0l-20.7,209.9l247.2-12.2L2780.3,1220.9z"/>
<path class="st15" d="M2223.6,1537.3c0,0-17.7-187.8,63.1-187.8s97-0.9,89.7-75.4c-7.5-77.2,126.1-50.7,126.1-50.7l-46.9,314
	L2223.6,1537.3z"/>
<path class="st16" d="M2269.9,1537.3c0,0-17.7-187.8,63.1-187.8s105-12.7,116.3-86.8c7.5-49.1,91.2-45.2,91.2-45.2
	s-19.3,54.1-31.7,143.6c-7.6,54.6-6.9,176.2-6.9,176.2L2269.9,1537.3z"/>
<path class="st16" d="M2480.3,1537.3H2767l0,0v72.7c0,10.3-8.3,18.6-18.6,18.6l0,0h-249c-10.5,0-19.1-8.5-19.1-19.1l0,0
	L2480.3,1537.3L2480.3,1537.3z"/>
<path class="st15" d="M2223.6,1537.3h305.2l0,0v72.1c0,10.6-8.6,19.2-19.1,19.2h-266.3c-10.9,0-19.7-8.8-19.7-19.7L2223.6,1537.3
	L2223.6,1537.3z"/>
<path class="st14" d="M2269.8,1537.3c0,0-2.4-18.3,9.2-26.7c29.2-21.1,165.7-50.9,229-54.6c107.2-6.1,87.5,81.3,87.5,81.3H2269.8z"
	/>
<path class="st15" d="M2482,1537.3c0,0-18.2-187.8,64.8-187.8s131.9,7.6,114.6-86.3c-10.3-55.8,29.1-55.1,107.8-48.7
	c9.7,0.8,25.7,13.6,23.5,23.1l-72.4,299.7L2482,1537.3z"/>
<path class="st16" d="M2528.8,1537.3c0,0-18-193.9,64.8-187.8c104.4,7.6,125.2,11.7,105.1-78.6c-14.3-64.1,28.7-61.9,82.9-54.9
	c7.5,1,15.6,6.6,13.9,17.6l-28.4,303.8L2528.8,1537.3z"/>
<path class="st17" d="M2514.5,1634.3c0,0-23.8-0.5-28.2,18.1l-6.3-24h33.9L2514.5,1634.3z"/>
<path class="st17" d="M2744.3,1634.5c0,0-23.8-0.8-28.3,17.9l-6.5-23.9h33.9L2744.3,1634.5z"/>
<path class="st17" d="M2255,1631.8c0,0,27.8-0.8,29,16.4l5.3-19.7h-33.8L2255,1631.8z"/>
<path class="st18" d="M1999.3,386.2h157.2c7.2,0,13.1,5.9,13.1,13.1V551c0,7.2-5.9,13.1-13.1,13.1h-157.2c-7.2,0-13.1-5.9-13.1-13.1
	V399.3C1986.2,392.1,1992.1,386.2,1999.3,386.2z"/>
<path class="st19" d="M2006.1,393.9h143.6c6.6,0,12,5.4,12,12v138.6c0,6.6-5.4,12-12,12h-143.6c-6.6,0-12-5.4-12-12V405.9
	C1994.2,399.3,1999.5,393.9,2006.1,393.9z"/>
<path class="st20" d="M2074.1,410.2c0-2.1,1.7-3.8,3.8-3.8s3.8,1.7,3.8,3.8s-1.7,3.8-3.8,3.8S2074.1,412.3,2074.1,410.2
	L2074.1,410.2z"/>
<path class="st20" d="M2104.8,415.5c1-1.8,3.3-2.5,5.2-1.5s2.5,3.3,1.5,5.2c-1,1.8-3.3,2.5-5.2,1.5
	C2104.4,419.7,2103.8,417.4,2104.8,415.5z"/>
<path class="st20" d="M2131.1,436.4c1.8-1.1,4.1-0.6,5.3,1.1c1.1,1.8,0.6,4.1-1.1,5.3c-1.8,1.1-4.1,0.6-5.3-1.1c0,0,0,0,0,0
	C2128.8,439.9,2129.3,437.5,2131.1,436.4z"/>
<circle class="st20" cx="2144.1" cy="472.5" r="3.8"/>
<path class="st20" d="M2137.4,506.2c1.5,1.5,1.5,3.9,0,5.4c-1.5,1.5-3.9,1.5-5.4,0c-1.5-1.5-1.5-3.9,0-5.4
	C2133.5,504.7,2135.9,504.7,2137.4,506.2C2137.4,506.2,2137.4,506.2,2137.4,506.2z"/>
<path class="st20" d="M2113.6,530.1c1.5,1.5,1.5,3.9,0,5.4s-3.9,1.5-5.4,0c-1.5-1.5-1.5-3.9,0-5.4
	C2109.7,528.6,2112.1,528.6,2113.6,530.1C2113.6,530.1,2113.6,530.1,2113.6,530.1z"/>
<path class="st20" d="M2074.1,542.4c0-2.1,1.7-3.8,3.8-3.8c2.1,0,3.8,1.7,3.8,3.8c0,2.1-1.7,3.8-3.8,3.8S2074.1,544.5,2074.1,542.4
	C2074.1,542.4,2074.1,542.4,2074.1,542.4z"/>
<path class="st20" d="M2051,415.5c-1-1.8-3.3-2.5-5.2-1.5c-1.8,1-2.5,3.3-1.5,5.2c1,1.8,3.3,2.5,5.2,1.5
	C2051.3,419.7,2052,417.4,2051,415.5C2051,415.5,2051,415.5,2051,415.5z"/>
<path class="st20" d="M2024.7,436.4c-1.8-1.1-4.1-0.6-5.3,1.1c-1.1,1.8-0.6,4.1,1.1,5.3c1.8,1.1,4.1,0.6,5.3-1.1c0,0,0,0,0,0
	C2027,439.9,2026.4,437.5,2024.7,436.4z"/>
<path class="st20" d="M2011.7,468.7c-2.1,0-3.8,1.7-3.8,3.8s1.7,3.8,3.8,3.8c2.1,0,3.8-1.7,3.8-3.8
	C2015.5,470.4,2013.8,468.7,2011.7,468.7L2011.7,468.7z"/>
<path class="st20" d="M2018.3,506.2c-1.5,1.5-1.5,3.9,0,5.4c1.5,1.5,3.9,1.5,5.4,0c1.5-1.5,1.5-3.9,0-5.4
	C2022.2,504.7,2019.8,504.7,2018.3,506.2C2018.3,506.2,2018.3,506.2,2018.3,506.2z"/>
<path class="st20" d="M2044.9,529c2.1,0,3.8,1.7,3.8,3.8s-1.7,3.8-3.8,3.8s-3.8-1.7-3.8-3.8S2042.8,529,2044.9,529z"/>
<path class="st20" d="M2076.9,472.5c0-2.1,1.7-3.8,3.8-3.8s3.8,1.7,3.8,3.8s-1.7,3.8-3.8,3.8S2076.9,474.6,2076.9,472.5
	L2076.9,472.5z"/>
<rect x="2080.2" y="425" class="st20" width="1" height="47.5"/>
<rect x="2076.8" y="461" transform="matrix(0.7866 -0.6174 0.6174 0.7866 160.9523 1390.9297)" class="st20" width="32" height="3.1"/>
<path class="st21" d="M1543.3,369.2v29.7c0,18-0.1,35.1-0.2,50.5c0,0.3,0,0.6,0,0.9c0,1.5,0,3,0,4.5c-0.1,15.6-0.3,29.3-0.5,40.5
	c0,0.1,0,0.2,0,0.3c0,0.7,0,1.4,0,2c-0.3,17.9-0.8,28.5-1.3,28.5h-0.3c-0.5,0-0.9-10.2-1.3-27.3c0-1.1,0-2.2-0.1-3.3v-0.3
	c-0.2-10.1-0.4-22.4-0.5-36.3c0-2.9-0.1-5.9-0.1-8.9v-0.6c-0.1-10.9-0.2-22.7-0.2-35c0-5.3,0-10.8,0-16.4v-1.1c0-3.1,0-6.4,0-9.6
	v-15.6L1543.3,369.2z"/>
<path class="st10" d="M1541,495.3c-42.4,0-76.7,36.3-76.7,81.1h153.4C1617.7,531.6,1583.3,495.3,1541,495.3z"/>
<path class="st22" d="M1547.1,496.3c-2.2-0.5-4.5-0.7-6.7-0.7c-27.6,0-50,36.2-50,80.8h13.5C1503.9,535.4,1522.7,501.6,1547.1,496.3
	z"/>
<g class="st23">
	<path class="st24" d="M2286.8,854.6c0,0-27.5-32.1-1.7-52.5c0,0,18.9-11.4,34.2-10.5c0,0-21.8,36.5-14.7,40.1s21.3-42.4,21.3-42.4
		s42.9-4.2,56.7,2.5c0,0-36.7,30-28.9,31.8S2401,796,2401,796s39.9,6.8,37.8,31.1s-15.9,31.9-21.9,31.2s-41.4-14.1-42.2-9.2
		s20.5,21.1,35.4,21.9c0,0-28.1,31-46.9,22.1s-20.3-23.2-31.9-28.5s-21.6-5.3-16.8,0.1s25.9,10.7,32.6,22.5s12.6,19.7-6.7,16.8
		s-50.8-17.1-52.2-33.3L2286.8,854.6z"/>
	<path class="st24" d="M2419.1,827.8c0,0-108.4-4.2-132.4,26.8c0,0-5.3,15.8-21.6,30.3l-2.5,6.9c0,0,18.8-19.8,25.5-21
		C2288.1,870.8,2277.6,832.4,2419.1,827.8z"/>
	<path class="st24" d="M2265.2,884.9c0,0-23.3,17.2-24.9,48l4.2,0.4c0,0,7.4-31.8,20.9-44.2S2265.2,884.9,2265.2,884.9z"/>
	<path class="st24" d="M2190.6,814.3c0,0,43.7-24.5,23.3-57.7c0,0-16.3-20.4-33.8-25.7c0,0,9.3,49.6,0,50.7s-6.4-56-6.4-56
		s-46.1-22.2-64.1-20.4c0,0,28.6,48.4,19.3,47.2s-41.4-50.2-41.4-50.2s-47.2-8.8-54.8,19.2s4.7,42,11.7,43.7c7,1.7,51.9,1.2,50.7,7
		s-31.5,15.2-48.4,9.9c0,0,18.7,46.1,43.2,43.7s32.1-17.5,47.2-18.7s26.3,2.9,18.7,7s-33.2,1.3-45.5,11.7s-22.2,16.8,0.6,21.5
		s63.6,1.8,71.7-15.8L2190.6,814.3z"/>
	<path class="st24" d="M2054.2,730.3c0,0,122.5,39.7,136.5,84c0,0-0.6,19.8,11.7,42.6v8.7c0,0-12.8-29.7-19.8-33.8
		C2182.5,831.8,2209.9,793.3,2054.2,730.3z"/>
	<path class="st24" d="M2202.3,856.9c0,0,18.9,28.7,8.1,63.6l-4.9-1.3c0,0,4.7-38.5-5.2-57.8S2202.3,856.9,2202.3,856.9z"/>
	<path class="st21" d="M2260.2,780.5c0,0-57.7-32.3-30.8-76.1c0,0,21.5-26.9,44.6-33.8c0,0-12.3,65.3,0,66.9s8.5-73.8,8.5-73.8
		s60.7-29.2,84.6-26.9c0,0-37.7,63.8-25.4,62.3s54.6-66.1,54.6-66.1s62.3-11.5,72.3,25.4s-6.1,55.3-15.4,57.7s-68.4,1.5-66.9,9.2
		s41.5,20,63.8,13.1c0,0-24.6,60.7-56.9,57.7s-42.2-23.1-62.2-24.6s-34.6,3.8-24.6,9.2s43.8,1.8,60,15.5s29.2,22.2-0.8,28.3
		s-83.8,2.3-94.6-20.8L2260.2,780.5z"/>
	<path class="st21" d="M2440.1,669.8c0,0-161.4,52.3-179.9,110.7c0,0,0.8,26.1-15.4,56.1v11.5c0,0,16.9-39.2,26.1-44.6
		C2271,803.6,2234.8,752.8,2440.1,669.8z"/>
	<path class="st21" d="M2244.8,836.6c0,0-24.9,37.8-10.7,83.8l6.4-1.7c0,0-6.2-50.7,6.8-76.2S2244.8,836.6,2244.8,836.6z"/>
	<path class="st21" d="M2258.3,1020.3c62.4,0,112.9-50.6,112.9-112.9c0,0,0,0,0,0h-225.9C2145.3,969.7,2195.9,1020.2,2258.3,1020.3z
		"/>
	<path class="st25" d="M2286.1,1019.4c-4.6,0.6-9.3,0.9-14,0.9c-62.4,0-112.9-50.6-112.9-112.9h28.1
		C2187.2,964.2,2229.6,1012.3,2286.1,1019.4z"/>
	<rect x="2141.6" y="907.3" class="st21" width="232.1" height="3.5"/>
	<rect x="2219.4" y="1014.7" class="st21" width="71.7" height="11.3"/>
</g>
<path class="st26" d="M255.8,729.6c-3.7,5.8-7.4,11.7-10.9,17.7h371V1784H633V729.6H255.8z"/>
<path class="st26" d="M628.1,974.9v18.9H158.4c1.1-6.4,2.3-12.7,3.6-18.9H628.1z"/>
<path class="st26" d="M628.1,1210.7v18.9H146.2c-0.4-6.3-0.8-12.6-1.2-18.9H628.1z"/>
<path class="st26" d="M628.1,1469.5v18.9H196.5c-2-6.2-3.9-12.5-5.8-18.9H628.1z"/>
<path class="st27" d="M538.7,835.6h4.3c10.3,0,18.6,8.3,18.6,18.6l0,0v120.9l0,0h-41.6l0,0V854.2
	C520.1,843.9,528.4,835.6,538.7,835.6L538.7,835.6z"/>
<path class="st27" d="M540.1,820.5h2.6c6.1,0,11.1,5,11.1,11.1v72.2l0,0H529l0,0v-72.2C529,825.5,534,820.5,540.1,820.5z"/>
<path class="st15" d="M485.3,879.8h3c7,0,12.7,5.7,12.7,12.7v82.6l0,0h-28.4l0,0v-82.6C472.6,885.5,478.3,879.8,485.3,879.8
	C485.3,879.8,485.3,879.8,485.3,879.8z"/>
<path class="st15" d="M486.3,869.5h1.8c4.2,0,7.6,3.4,7.6,7.6v49.3l0,0h-17l0,0v-49.3C478.6,872.9,482,869.5,486.3,869.5
	L486.3,869.5z"/>
<path class="st16" d="M411,956.2h43.1c2.1,0,3.9,1.7,3.9,3.9v11.3c0,2.1-1.7,3.9-3.9,3.9H411c-2.1,0-3.9-1.7-3.9-3.9v-11.3
	C407.2,957.9,408.9,956.2,411,956.2z"/>
<path class="st15" d="M458,960.1v5.6h-50.9v-5.6c0-2.1,1.7-3.9,3.9-3.9h43.1C456.3,956.2,458,957.9,458,960.1z"/>
<path class="st27" d="M336,835.6h4.4c10.3,0,18.6,8.3,18.6,18.6v120.9l0,0h-41.7l0,0V854.2C317.3,843.9,325.7,835.6,336,835.6
	C336,835.6,336,835.6,336,835.6z"/>
<path class="st27" d="M337.3,820.5h2.6c6.1,0,11.1,5,11.1,11.1v72.2l0,0h-24.8l0,0v-72.2C326.2,825.5,331.2,820.5,337.3,820.5
	C337.3,820.5,337.3,820.5,337.3,820.5z"/>
<path class="st15" d="M282.5,879.8h3c7,0,12.7,5.7,12.7,12.7v82.6l0,0h-28.5l0,0v-82.6C269.8,885.5,275.5,879.8,282.5,879.8z"/>
<path class="st15" d="M283.5,869.5h1.8c4.2,0,7.6,3.4,7.6,7.6v49.3l0,0h-17l0,0v-49.3C275.8,872.9,279.2,869.5,283.5,869.5
	C283.4,869.5,283.5,869.5,283.5,869.5z"/>
<path class="st16" d="M208.3,956.2h43.1c2.1,0,3.9,1.7,3.9,3.9v11.3c0,2.1-1.7,3.9-3.9,3.9h-43.1c-2.1,0-3.9-1.7-3.9-3.9v-11.3
	C204.4,957.9,206.1,956.2,208.3,956.2z"/>
<path class="st15" d="M255.3,960.1v5.6h-50.9v-5.6c0-2.1,1.7-3.9,3.9-3.9h43.1C253.5,956.2,255.3,957.9,255.3,960.1
	C255.3,960,255.3,960.1,255.3,960.1z"/>
<rect x="546.4" y="1189.1" class="st28" width="20" height="21.7"/>
<polygon class="st15" points="546.4,1189.1 539.2,1108.6 573.3,1108.6 566.5,1189.1 "/>
<path class="st28" d="M538.8,1103.3l0.5,5.3h34.1l0.1-5.7L538.8,1103.3z"/>
<rect x="454" y="1088.5" class="st13" width="74.2" height="122"/>
<rect x="454.1" y="1104.4" class="st15" width="52.9" height="21.5"/>
<rect x="370" y="1189.1" class="st28" width="20" height="21.7"/>
<polygon class="st27" points="370,1189.1 362.8,1108.6 396.9,1108.6 390,1189.1 "/>
<path class="st28" d="M362.3,1103.3l0.5,5.3h34.1l0.1-5.7L362.3,1103.3z"/>
<rect x="277.6" y="1088.5" class="st13" width="74.2" height="122"/>
<rect x="277.7" y="1104.4" class="st27" width="52.9" height="21.5"/>
<rect x="394.1" y="1447.5" class="st28" width="20" height="21.7"/>
<polygon class="st15" points="394.1,1447.5 386.8,1367 420.9,1367 414.1,1447.5 "/>
<path class="st28" d="M386.4,1361.7l0.5,5.3h34.1l0.1-5.7L386.4,1361.7z"/>
<rect x="301.7" y="1346.9" class="st13" width="74.2" height="122"/>
<rect x="301.8" y="1362.8" class="st15" width="52.9" height="21.5"/>
<rect x="546.4" y="1447.5" class="st28" width="20" height="21.7"/>
<polygon class="st15" points="546.4,1447.5 539.2,1367 573.3,1367 566.5,1447.5 "/>
<path class="st28" d="M538.8,1361.7l0.5,5.3h34.1l0.1-5.7L538.8,1361.7z"/>
<rect x="454" y="1346.9" class="st13" width="74.2" height="122"/>
<rect x="454.1" y="1362.8" class="st15" width="52.9" height="21.5"/>
<rect x="2089.6" y="1022.4" class="st29" width="355.4" height="21.9"/>
<path class="st30" d="M1373.8,1738.9c0,0,3,47.5,12.2,48.1c1.2,0.1,46.6,0,46.6,0l57.9-0.5c0,0-0.4-14-17.3-16.9
	s-45.3-14.8-55.6-37.1C1406.7,1709.1,1373.8,1738.9,1373.8,1738.9z"/>
<path class="st31" d="M1208,1348.5c-2.2,1.9-61.2,65.8-56.4,114.8c1.6,14.4,13.8,25.3,28.3,25.3l126.4-67.8c0,0,18.7,80.9,20.5,96.7
	s16.7,101.2,46.5,222.6c0,0,21.9,7.5,35.2,2.2c17.6-7.1,20.1-14.7,20.1-14.7s-17.7-271.7-31.7-290.8s-158.1-76-204.7-81.6
	S1208,1348.5,1208,1348.5z"/>
<path class="st31" d="M1475.3,1738.9c0,0,3,47.5,12.2,48.1c1.2,0.1,46.6,0,46.6,0l57.9-0.5c0,0-0.4-14-17.3-16.9
	s-45.3-14.8-55.6-37.1C1508.2,1709.1,1475.3,1738.9,1475.3,1738.9z"/>
<path class="st27" d="M1153.6,1348.5c-1.7,1.4-14.4,35.8-23,74.8c-6.4,29,12,57.7,41,64.1c3.8,0.8,7.6,1.2,11.5,1.2h167.2
	c0,0,73.3,13.1,75,28.9s16.7,101.2,46.5,222.6c0,0,22,5.8,39.1-1.6c9.1-3.9,16.3-13.3,16.3-13.3s-17.9-269.4-31.9-288.5
	s-158.1-76-204.7-81.6S1153.6,1348.5,1153.6,1348.5z"/>
<path class="st32" d="M1220.6,1108.7l28.8,21.2l43.7-5.7c-0.4-3.5-2.5-18.1-4.4-31.4c-0.1-0.8-0.2-1.6-0.3-2.3
	c-0.4-2.9-0.8-5.8-1.2-8.4l-1.8-12.6l-12.2-6.2l-27.2-13.8l-14.7-7.4c0,0.2,0.5,12.4,0.6,14.2
	C1233,1088,1220.6,1108.7,1220.6,1108.7z"/>
<path class="st33" d="M1097.7,1264.3c1.7-56.7,34.3-103.2,48.5-120.9c8.8-17.9,71.1-39.8,71.1-39.8l85.6,7.9c0,0,59.1,11.4,72,61.3
	c31,120.9,64.1,173.5,55.9,202.2c-34.7,121.6-155.2,118.5-177.9,93.8c-11.6-12.6-126.3-80.1-121.7-161.5
	C1111.5,1300.9,1097,1288.1,1097.7,1264.3z"/>
<path class="st34" d="M1241.4,1065l2.4,1.1c0,0,22.5,12.1,43.4,16.1l-1.8-12.6l-12.2-6.2L1241.4,1065z"/>
<path class="st32" d="M1300.8,1068c0,0-66.1,16.8-75.9-24.6c-9.8-41.4-24.9-67,16.9-79.5s53.8,1.4,60.4,14.4
	S1317.7,1062.6,1300.8,1068z"/>
<path class="st35" d="M1299.8,974.3c0,0-6.7,47.1-16.4,44.5s-18.5-4.6-17.8,9.8c0.7,14.4,10,33.8-20.3,34.7s-66.2-81.5-57-95.8
	C1214.4,926.2,1337.2,924.3,1299.8,974.3z"/>
<path class="st31" d="M1286.7,1097.2c-1-0.2-57-15.3-63-12.7s-11.3,21-11.3,21l96,7.5C1308.4,1113.1,1299.3,1100.3,1286.7,1097.2z"
	/>
<path class="st24" d="M1032,1459.7h358.2l0,0v38l0,0H1055c-12.7,0-23-10.3-23-23l0,0V1459.7L1032,1459.7z"/>
<path class="st15" d="M1176.8,1459.7h253.5c9.4,0,17,7.6,17,17v3.9c0,9.4-7.6,17-17,17h-253.5c-9.4,0-17-7.6-17-17v-3.9
	C1159.7,1467.3,1167.3,1459.7,1176.8,1459.7z"/>
<polygon class="st26" points="1219.2,1772.8 1197.6,1772.8 1191.5,1497.7 1224.6,1497.7 "/>
<polygon class="st26" points="1313.2,1772.8 1102.9,1772.8 1102.9,1753.8 1210.1,1744.1 1313.2,1753.8 "/>
<circle class="st26" cx="1099.7" cy="1769.9" r="17.3"/>
<circle class="st26" cx="1310" cy="1769.7" r="17.3"/>
<path class="st26" d="M1119.6,1497.7h176.9l0,0v2.3c0,8.7-7.1,15.8-15.8,15.8l0,0h-145.3c-8.7,0-15.8-7.1-15.8-15.8l0,0V1497.7
	L1119.6,1497.7z"/>
<path class="st15" d="M1065.1,1497.7c-9.1,0-16.5-7.4-16.5-16.4c0,0,0,0,0,0v-253.3c0-47.5,31-85.9,69.3-85.9h156.8
	c38.3,0,69.3,38.5,69.3,85.9v269.8H1065.1z"/>
<path class="st28" d="M1062,1497.7c-16.6,0-30-13.4-30-30l0,0v-239.8c0-47.5,31-85.9,69.3-85.9H1258c38.3,0,69.3,38.5,69.3,85.9
	v269.8H1062z"/>
<path class="st31" d="M1352.5,1345.6c0,0,7.6,50,63.5,66l12.6-16.6L1352.5,1345.6z"/>
<path class="st33" d="M1398.8,1254.2l54.8,157.5c0,0-82.4-25.2-94.1-46.9s-15.6-71.7-15.6-71.7L1398.8,1254.2z"/>
<path class="st32" d="M1133.5,982.7c0,0,20.7-8.9,31-5.7s5.8,11.8,6.2,13.4s20.1,7.8,21.3,8.8s-4,16.5-11.6,18s-19.4-4.9-27.6-8
	s-20.5-7.9-20.5-7.9l-0.2-18.4L1133.5,982.7z"/>
<path class="st36" d="M1139.5,993.3c0-0.1,0-0.2,0-0.3c0.1-7-4.8-13.2-11.7-14.6c-27.2-5.8-97.6-20.7-105.5-22.7
	c-8.4-2.2-99.5-54.9-126.7-70.8c-4.7-2.7-10.6-2.7-15.2,0.2L824.3,920c-6.9,4.3-9,13.4-4.7,20.3c1.7,2.8,4.3,4.9,7.3,6
	c52.5,19.8,162.1,60.8,181.1,65.2c33.5,7.9,95.7,1.1,118.6-1.8c6.5-0.8,11.6-5.8,12.7-12.2C1139.4,996.2,1139.5,994.7,1139.5,993.3z
	"/>
<path class="st31" d="M872.7,1743.4c0,0,2.2,35.4,8.8,43.7h101.2c-0.6-3.5-3.5-12.3-16.2-14.5c-16-2.8-42.8-14-52.4-35.1
	C903.9,1715.3,872.7,1743.4,872.7,1743.4z"/>
<path class="st31" d="M693.2,1738.4c0,0-8.7,46.9-0.1,47.7c1.2,0.1,42.4,0.5,53.4,2.2c18,2.7,50.7-2.2,50.7-2.2
	c3.8,0.2,4.8-4.7,2.9-7.9c-2.1-3.6-6.1-7.3-13.8-8.8c-15.9-3.1-42.5-14.8-51.8-36.1C724.8,1710.9,693.2,1738.4,693.2,1738.4z"/>
<path class="st26" d="M920.3,1272.1c0,0-25.4,89-98.4,243.6s-78.5,225-78.5,225l-50.2-2.4c0,0,4.7-184,39.2-262
	s41.5-291.4,41.5-291.4L920.3,1272.1z"/>
<path class="st13" d="M961.1,1195.5c0,0,2,137.9-21.8,307.1s-15.8,241.1-15.8,241.1l-57.1,1.9c0,0-34.1-169.3-24.3-254
	s-46.8-290.7-46.8-290.7L961.1,1195.5z"/>
<path class="st32" d="M848.4,872.9l26.9,20l38.9-8.2c-0.5-3.5-3.1-18.3-5.5-31.6c-0.1-0.8-0.3-1.6-0.4-2.3
	c-2-11.3-3.7-21.1-3.7-21.1l-36.4-18.1l-13.6-6.8c0,0.2,1,12.6,1.2,14.4C858.5,851.2,848.4,872.9,848.4,872.9z"/>
<path class="st15" d="M771.3,1212.5c-0.7-36.3,11.4-86.4,20.1-159.4c3.8-31.6,0.9-76.7,7.5-105.3c11.9-50.6,22.5-79.5,45-86.1
	c8.3-2.4,39,5.5,61.2,12c1.6,0.4,3.1,1,4.6,1.6c13.3,5.3,23.4,16.5,27.5,30.2c3.4,11.5,7.4,26.3,10.5,42.5c3.5,17.6,6.1,37,6.3,56
	c0.2,19.7,2.9,48.8,5.9,79.4c0.3,3.4,0.7,6.8,1,10.2c0.2,2.4,4,80.4,5.1,101.3c0,0.3,0,0.6,0,0.8c0,0,0,0.1,0,0.1c0,0.3,0,0.6,0,0.9
	c0.1,1.9,0.2,3,0.2,3.3C968.8,1224.7,772,1253.8,771.3,1212.5z"/>
<path class="st37" d="M858.7,819.7c8,15.3,37.7,28.5,50.2,33.4c-0.1-0.8-0.3-1.6-0.4-2.3c-2-11.3-3.7-21.1-3.7-21.1l-36.4-18.1
	C860.3,811.4,855.4,813.4,858.7,819.7z"/>
<path class="st32" d="M922.4,827.5c0,0-65.6,20.5-77.7-20.6s-28.7-66.1,12.6-80.9s54.2-1.5,61.6,11.2S939.1,821.1,922.4,827.5z"/>
<path class="st31" d="M916.3,733.3c0,0-4.2,47.8-14.1,45.7s-18.8-3.6-17.4,10.8s7.4,33.5-23,36s-66.5-78.4-58.1-93.3
	C827.8,689.6,951.1,680.9,916.3,733.3z"/>
<path class="st36" d="M966.2,1196.8c-146.1-7.6-116.2-169.7-116.2-169.7l110,56.3c0.3,3.4,0.7,6.8,1,10.2c0.2,2.4,4,80.4,5.1,101.3
	c0,0.3,0,0.6,0,0.8c0,0,0,0.1,0,0.1C966.2,1196.2,966.2,1196.5,966.2,1196.8z"/>
<path class="st33" d="M1187.2,1011.8c-2.5,4.9-8.5,6.8-13.3,4.3c-4.9-2.5-6.8-8.5-4.3-13.3c2.5-4.9,8.5-6.8,13.3-4.3
	C1187.7,1001,1189.6,1007,1187.2,1011.8z M1183.7,1010.1c1.5-3,0.3-6.6-2.6-8.2c-3-1.5-6.6-0.3-8.2,2.6c-1.5,3-0.3,6.6,2.6,8.2
	C1178.5,1014.2,1182.2,1013.1,1183.7,1010.1z"/>
<path class="st33" d="M1186.1,1007c0-0.3,50.3-12.2,50.3-12.2c-3.6-2.6-7.8-3.9-12.2-3.8c-7.7-0.1-39.4,9.2-39.4,9.2L1186.1,1007z"
	/>
<path class="st33" d="M1183.6,992.4c-5.3,1.4-10.7-1.8-12.1-7c-1.4-5.3,1.8-10.7,7-12.1s10.7,1.8,12.1,7c0,0,0,0,0,0
	C1192,985.6,1188.9,991,1183.6,992.4z M1179.5,976.9c-3.2,0.9-5.2,4.2-4.3,7.4c0.9,3.2,4.2,5.2,7.4,4.3s5.2-4.2,4.3-7.4c0,0,0,0,0,0
	C1186,978,1182.7,976.1,1179.5,976.9z"/>
<path class="st33" d="M1188.6,984.7c-0.1,0.3,46.5,22.7,46.5,22.7c-4,1.7-8.5,2.1-12.8,1.2c-7.5-1.6-36.5-17.4-36.5-17.4
	L1188.6,984.7z"/>
<path class="st33" d="M1206.1,996.5c-0.6,0-1.1,0.5-1.1,1.1c0,0,0,0,0,0c0,0.6,0.5,1.1,1.1,1.1c0.6,0,1.1-0.5,1.1-1.1
	C1207.2,997,1206.7,996.5,1206.1,996.5z"/>
<path class="st32" d="M1164.5,976.9c0.2,0,8,0.5,15.6,1c5.6,0.4,11.4-1.1,13.7-0.8c5.4,0.7,0.1,8.5-12.1,10.6
	c-10.4,1.8-20.5,5.2-30,5.1C1140.2,992.8,1164.5,976.9,1164.5,976.9z"/>
<path class="st31" d="M1092.5,1054.1c-0.2,0-0.3,0-0.5,0l-9.3-1.1c-0.5-0.1-0.9-0.5-0.8-1c0.1-0.5,0.5-0.8,1-0.8l9.3,1.1
	c1.4,0.2,2.6-0.8,2.7-2.2l6.4-53.2c0.2-1.3-0.8-2.6-2.2-2.7l-9.3-1.1c-0.5,0-0.9-0.4-0.9-0.9c0-0.5,0.4-0.9,0.9-0.9
	c0.1,0,0.1,0,0.2,0l9.3,1.1c2.3,0.3,4,2.4,3.8,4.8l-6.4,53.2C1096.5,1052.5,1094.7,1054.1,1092.5,1054.1z"/>
<path class="st31" d="M1102.3,996.9L1102.3,996.9l-12.7-1.5c-0.2,0-0.3-0.2-0.3-0.4c0,0,0,0,0,0c0-0.2,0.2-0.3,0.4-0.3l12.7,1.5
	c0.2,0,0.3,0.2,0.3,0.4C1102.6,996.8,1102.5,997,1102.3,996.9z"/>
<path class="st31" d="M1101.8,1000.7L1101.8,1000.7l-12.7-1.5c-0.2,0-0.3-0.2-0.3-0.4c0-0.2,0.2-0.3,0.4-0.3c0,0,0,0,0,0l12.7,1.5
	c0.2,0,0.3,0.2,0.3,0.4c0,0,0,0,0,0C1102.2,1000.6,1102,1000.7,1101.8,1000.7z"/>
<path class="st31" d="M1101.4,1004.5L1101.4,1004.5l-12.7-1.5c-0.2,0-0.3-0.2-0.3-0.4c0-0.2,0.2-0.3,0.4-0.3l12.7,1.5
	c0.2,0,0.3,0.2,0.3,0.4C1101.7,1004.4,1101.6,1004.5,1101.4,1004.5z"/>
<path class="st31" d="M1101,1008.1L1101,1008.1l-12.7-1.5c-0.2,0-0.3-0.2-0.3-0.4c0,0,0,0,0,0c0-0.2,0.2-0.3,0.4-0.3l12.7,1.5
	c0.2,0,0.3,0.2,0.3,0.4c0,0,0,0,0,0C1101.3,1008,1101.2,1008.1,1101,1008.1z"/>
<path class="st31" d="M1100.5,1011.8L1100.5,1011.8l-12.7-1.5c-0.2,0-0.3-0.2-0.3-0.4c0-0.2,0.2-0.3,0.4-0.3l12.7,1.5
	c0.2,0,0.3,0.2,0.3,0.4C1100.9,1011.7,1100.7,1011.8,1100.5,1011.8C1100.5,1011.8,1100.5,1011.8,1100.5,1011.8z"/>
<path class="st31" d="M1100,1015.7L1100,1015.7l-12.7-1.5c-0.2,0-0.3-0.2-0.3-0.4c0-0.2,0.2-0.3,0.4-0.3l12.7,1.5
	c0.2,0,0.3,0.2,0.3,0.4c0,0,0,0,0,0C1100.4,1015.5,1100.2,1015.7,1100,1015.7z"/>
<path class="st31" d="M1099.5,1019.8L1099.5,1019.8l-12.7-1.5c-0.2,0-0.3-0.2-0.3-0.4c0,0,0,0,0,0c0-0.2,0.2-0.3,0.4-0.3l12.7,1.5
	c0.2,0,0.3,0.2,0.3,0.4C1099.9,1019.7,1099.8,1019.8,1099.5,1019.8L1099.5,1019.8z"/>
<path class="st31" d="M1099.1,1023.6L1099.1,1023.6l-12.7-1.5c-0.2,0-0.3-0.2-0.3-0.4c0-0.2,0.2-0.3,0.4-0.3c0,0,0,0,0,0l12.7,1.5
	c0.2,0,0.3,0.2,0.3,0.4c0,0,0,0,0,0C1099.5,1023.4,1099.3,1023.6,1099.1,1023.6z"/>
<path class="st31" d="M1098.6,1027.4L1098.6,1027.4l-12.7-1.5c-0.2,0-0.3-0.2-0.3-0.4c0,0,0,0,0,0c0-0.2,0.2-0.3,0.4-0.3l12.7,1.5
	c0.2,0,0.3,0.2,0.3,0.4C1099,1027.3,1098.8,1027.4,1098.6,1027.4z"/>
<path class="st31" d="M1098.2,1031.4L1098.2,1031.4l-12.7-1.5c-0.2,0-0.3-0.2-0.3-0.4c0-0.2,0.2-0.3,0.4-0.3l12.7,1.5
	c0.2,0,0.3,0.2,0.3,0.4C1098.5,1031.3,1098.4,1031.4,1098.2,1031.4L1098.2,1031.4z"/>
<path class="st31" d="M1097.7,1035.1L1097.7,1035.1l-12.7-1.5c-0.2,0-0.3-0.2-0.3-0.4c0,0,0,0,0,0c0-0.2,0.2-0.3,0.4-0.3l12.7,1.5
	c0.2,0,0.3,0.2,0.3,0.4C1098.1,1035,1097.9,1035.2,1097.7,1035.1C1097.7,1035.1,1097.7,1035.1,1097.7,1035.1z"/>
<path class="st31" d="M1097.3,1039L1097.3,1039l-12.7-1.5c-0.2,0-0.4-0.2-0.4-0.3c0-0.2,0.2-0.4,0.3-0.4c0,0,0.1,0,0.1,0l12.7,1.5
	c0.2,0,0.3,0.2,0.3,0.4c0,0,0,0,0,0C1097.6,1038.9,1097.4,1039,1097.3,1039z"/>
<path class="st31" d="M1096.8,1042.3L1096.8,1042.3l-12.7-1.5c-0.2,0-0.3-0.2-0.3-0.4c0-0.2,0.2-0.3,0.4-0.3l12.7,1.5
	c0.2,0,0.3,0.2,0.3,0.4C1097.2,1042.1,1097.1,1042.2,1096.8,1042.3L1096.8,1042.3z"/>
<path class="st31" d="M1096.4,1046L1096.4,1046l-12.7-1.5c-0.2,0-0.3-0.2-0.3-0.4c0,0,0,0,0,0c0-0.2,0.2-0.3,0.4-0.3l12.7,1.5
	c0.2,0,0.3,0.2,0.3,0.4C1096.8,1045.8,1096.6,1046,1096.4,1046L1096.4,1046z"/>
<path class="st31" d="M1096,1049.9L1096,1049.9l-12.7-1.5c-0.2,0-0.4-0.2-0.4-0.3c0-0.2,0.2-0.4,0.3-0.4c0,0,0.1,0,0.1,0l12.7,1.5
	c0.2,0,0.3,0.2,0.3,0.4c0,0,0,0,0,0C1096.3,1049.7,1096.2,1049.9,1096,1049.9z"/>
<path class="st32" d="M1053.4,1043.6c0,0,22.6-15.3,26.9-16.7s18.4-2.8,19-1.7s2.6,4.5,0.1,5.7s-5.5,0.8-4.6,1.6s10.2-3.6,12.3,1.1
	s4,20.9-6.8,25.8s-37.7,0.5-39.6,1C1044.4,1065.2,1053.4,1043.6,1053.4,1043.6z"/>
<path class="st33" d="M789.2,1070.1c0,0,43.9,4.7,94-5.9l-1.9,11.2c0,0-30.3,14.7-93.7,6.3L789.2,1070.1z"/>
<path class="st33" d="M906.8,929.7l-23.6,134.5l11.8,339.9c0,0,38.8,10.2,71.4,0c0,0,9.3-417.5-24.3-480.9L906.8,929.7z"/>
<path class="st15" d="M1053.6,1039.5c0,0-110.5,18.8-120.3,14c-15.6-7.6-5-127.2-5-127.2s12-17.9-17.7-23.9
	c-25.8-5.2-50.7,14.1-50.7,14.1s-22.6,20.3-19.7,42.7c6.4,49.8,16.4,151,49.7,166.5c43,20,167.2-55.5,167.2-55.5s4.1-5.1,3.6-14.5
	C1060.2,1047.5,1053.6,1039.5,1053.6,1039.5z"/>
<path class="st33" d="M928.3,926.3c0,0-3.3-48.4-56-65l8.4-4.9c0,0,51,16.3,55.5,69.8L928.3,926.3z"/>
<path class="st36" d="M911.6,862.8c-0.8-0.4-53-15.7-58.6-13.9s-9,12.8-9,12.8l80.5,22.9C924.4,884.7,922.5,867.4,911.6,862.8z"/>
<path class="st33" d="M1190.6,980.3c-1.1-4.2-4.8-7.3-9.2-7.5v4c2.6,0.1,4.8,1.9,5.5,4.4c0.8,3.2-1.1,6.5-4.3,7.5
	c-0.4,0.1-0.8,0.2-1.2,0.2v3.8c0.7,0,1.4-0.1,2.1-0.3C1188.8,991,1192,985.7,1190.6,980.3C1190.6,980.4,1190.6,980.4,1190.6,980.3z"
	/>
<path class="st38" d="M1171.3,1016.2c0,0,2.6-8.4,4.8-10.1c8.6-6.8,14.6-11.3,17.5-8.4c3.8,3.8-0.1,14.5-4.1,18.2
	C1186.8,1018.3,1180.4,1021.2,1171.3,1016.2z"/>
<path class="st39" d="M1804.7,1439.5v8.8c0,3.1,1,5.6,2.2,5.6h321.3c1.2,0,2.2-2.5,2.2-5.6v-8.8c0-3.1-1-5.6-2.2-5.6h-321.3
	C1805.7,1433.9,1804.7,1436.4,1804.7,1439.5z"/>
<path class="st40" d="M1804.7,1439.5v8.8c0,3.1,0.9,5.6,2,5.6h255.1c1.1,0,2-2.5,2-5.6v-8.8c0-3.1-0.9-5.6-2-5.6h-255
	C1805.6,1433.9,1804.7,1436.4,1804.7,1439.5z"/>
<rect x="1886" y="1453.9" class="st26" width="228.1" height="332.4"/>
<rect x="1822" y="1453.9" class="st29" width="228.1" height="332.4"/>
<path class="st26" d="M1834.3,1463.3h203.6V1768h-203.6V1463.3z M2035.7,1465.5h-199.2v300.3h199.2V1465.5z"/>
<rect x="1835.4" y="1564.1" class="st26" width="201.4" height="2.2"/>
<rect x="1835.4" y="1666.8" class="st26" width="201.4" height="2.2"/>
<path class="st26" d="M1915.4,1482.9h37.4c1.8,0,3.3-1.5,3.3-3.3l0,0c0-1.8-1.5-3.3-3.3-3.3h-37.4c-1.8,0-3.3,1.5-3.3,3.3l0,0
	C1912.2,1481.4,1913.6,1482.9,1915.4,1482.9z"/>
<path class="st26" d="M1915.4,1583.4h37.4c1.8,0,3.3-1.5,3.3-3.3l0,0c0-1.8-1.5-3.3-3.3-3.3h-37.4c-1.8,0-3.3,1.5-3.3,3.3l0,0
	C1912.2,1581.9,1913.6,1583.4,1915.4,1583.4z"/>
<path class="st26" d="M1915.4,1688.2h37.4c1.8,0,3.3-1.5,3.3-3.3l0,0c0-1.8-1.5-3.3-3.3-3.3h-37.4c-1.8,0-3.3,1.5-3.3,3.3l0,0
	C1912.2,1686.7,1913.6,1688.2,1915.4,1688.2z"/>
<path class="st27" d="M2060.4,1320.3h3.6c8.4,0,15.2,6.8,15.2,15.2v98.4l0,0h-33.9l0,0v-98.4
	C2045.3,1327.1,2052.1,1320.3,2060.4,1320.3z"/>
<path class="st27" d="M2061.5,1308h2.1c5,0,9.1,4.1,9.1,9v0v58.8l0,0h-20.2l0,0v-58.8C2052.5,1312.1,2056.5,1308,2061.5,1308
	C2061.5,1308,2061.5,1308,2061.5,1308z"/>
<path class="st15" d="M2017,1356.3h2.4c5.7,0,10.4,4.6,10.4,10.4v67.3l0,0h-23.2l0,0v-67.3C2006.6,1360.9,2011.3,1356.3,2017,1356.3
	C2017,1356.3,2017,1356.3,2017,1356.3z"/>
<path class="st15" d="M2017.7,1347.9h1.4c3.4,0,6.2,2.8,6.2,6.2v40.1l0,0h-13.8l0,0v-40.1
	C2011.5,1350.7,2014.3,1347.9,2017.7,1347.9z"/>
<path class="st16" d="M1956.5,1418.4h35.1c1.7,0,3.2,1.4,3.2,3.2v9.2c0,1.7-1.4,3.2-3.2,3.2h-35.1c-1.7,0-3.2-1.4-3.2-3.2v-9.2
	C1953.3,1419.9,1954.8,1418.4,1956.5,1418.4z"/>
<path class="st15" d="M1994.8,1421.6v4.6h-41.4v-4.6c0-1.7,1.4-3.1,3.1-3.2c0,0,0,0,0,0h35.1
	C1993.3,1418.4,1994.7,1419.8,1994.8,1421.6C1994.8,1421.6,1994.8,1421.6,1994.8,1421.6z"/>
<polygon class="st11" points="1396.3,675.6 1396.1,945.6 1703.5,675.6 "/>
<path class="st41" d="M1394.5,1043.5l432.9-367.9h29.8v41.8l-461.1,425.7C1396.1,1143.1,1389.6,1038.5,1394.5,1043.5z"/>
</svg>
