<svg id="_лой_1" data-name="‘лой_1" xmlns="http://www.w3.org/2000/svg" viewBox="0 0 3200 2000"><defs><style>.cls-1,.cls-3{fill:#fff;}.cls-15,.cls-2{fill:#aec3ff;}.cls-2,.cls-43{opacity:0.3;}.cls-3{opacity:0.5;}.cls-4{fill:#d0dcf9;}.cls-5{fill:#ebd6cb;}.cls-6{fill:#aebbd2;}.cls-7{fill:#b3c0de;}.cls-8{fill:#f7e2d8;}.cls-9{fill:#e8d6d1;}.cls-10{fill:#f0cbb7;}.cls-11{fill:#b3c2e0;}.cls-12{fill:#ff9843;}.cls-13,.cls-28,.cls-43{fill:#94b0ed;}.cls-13{opacity:0.1;}.cls-14{fill:#f9ddbf;}.cls-16{fill:#db6a1d;}.cls-17{fill:#f99746;}.cls-18{fill:#ed7d2b;}.cls-19{fill:#8fadef;}.cls-20{fill:#c0d8fb;}.cls-21{fill:#dfebfd;}.cls-22{fill:#b7d3f3;}.cls-23{fill:#9fc1f4;}.cls-24{fill:#ffc48a;}.cls-25{opacity:0.7;}.cls-26{fill:#77a4e5;}.cls-27{fill:#afcdfb;}.cls-29{fill:#2b478b;}.cls-30{fill:#cc6a27;}.cls-31{fill:#c0d4ff;}.cls-32{fill:#0e2c4f;}.cls-33{fill:#163560;}.cls-34{fill:#ffb27d;}.cls-35{fill:#2a4e96;}.cls-36{fill:#eaa16e;}.cls-37{fill:#ea680f;}.cls-38{fill:#e58638;}.cls-39{fill:#fca56b;}.cls-40{fill:#f4a773;}.cls-41{fill:#7298db;}.cls-42{fill:#c2d5ff;}</style></defs><title>barbearia</title><rect class="cls-1" width="3200" height="2000"/><path class="cls-2" d="M2982.65,1795.74,341.5,1795s-86.36-121-144.93-306.45q-3-9.35-5.8-18.92c-21.49-72-38.42-153-44.52-239.9q-.67-9.39-1.17-18.9a944.59,944.59,0,0,1,12.76-213.44c.19-1.13.4-2.28.61-3.42,1.14-6.36,2.34-12.68,3.59-18.92q26.36-131.84,82.88-227.6,5.33-9,10.91-17.73c118.93-185.24,329-264.08,632.6-243.85,229.11,15.27,435,17.44,688.61-136.25,95.07-57.61,312.9-138.76,491.46-140.38,423.3-3.84,895.55,277.85,830.81,741.92-.34,2.34-.67,4.72-1,7.09q-2,13.39-4.65,27c-3.89,20.14-6.53,41.27-14.8,61.49C2707.84,1465.13,3200.25,1428,2982.65,1795.74Z" transform="translate(-0.03 -0.07)"/><rect class="cls-3" x="1395.78" y="661.39" width="461.51" height="1098.37"/><polygon class="cls-4" points="1733.64 1517.92 1733.29 1534.96 1728.85 1751.25 1728.67 1759.34 1706.26 1759.34 1706.07 1751.51 1701.01 1534.96 1700.61 1517.92 1733.64 1517.92"/><path class="cls-4" d="M1628.68,1517.93h176.89a0,0,0,0,1,0,0v1.67a15.31,15.31,0,0,1-15.31,15.31H1644a15.31,15.31,0,0,1-15.31-15.31v-1.67a0,0,0,0,1,0,0Z"/><rect class="cls-5" x="1609.54" y="1472.23" width="227.36" height="45.72" rx="14.83"/><rect class="cls-5" x="1678.74" y="1164.55" width="159.4" height="342.27" rx="14.83"/><path class="cls-6" d="M1614.77,1303.82s-83.68,84.27-81.91,89.6,3.35,11.93,13.59,14.83c0,0,32.86-1.61,57.15-17.3S1614.77,1303.82,1614.77,1303.82Z" transform="translate(-0.03 -0.07)"/><path class="cls-6" d="M1739.28,1439s0,65.53-40.78,72.86c-.92.16-1.83.31-2.9.46-2.45.31-5,.61-7.94.77h-.16c-38.49,1.83-112-11.77-137.62-7.64-6.42,1.07-9.78,3.21-9.17,6.87,8,39.41-44.6,217-53.76,247.14l-56.26.12c.3-8.09,12.27-279,26.93-305.76,4.28-7.94,21.23-17.11,42.92-26.12,12.83-5.35,27.34-10.54,41.86-15.58,5.19-1.68,10.53-3.51,15.73-5.19,8.7-2.75,17.26-5.35,25.35-7.94,4.28-1.23,8.56-2.45,12.53-3.67,23.67-6.87,40.78-11.3,40.78-11.3l38.19,20.46,3.66,2,12.07,6.41,15.74,8.56,5.19,2.75,13.13,7Z" transform="translate(-0.03 -0.07)"/><path class="cls-7" d="M1756.61,1506.38c-16.86,3.06-39.87,4.13-61,5.8h-.06q-4,.3-7.89.67h-.08c-26.48,2.4-48.17,6.34-47.93,17.37,1.38,62.41-25.57,188.83-34.59,229.21h-68.12c1-38.94,5.17-179.28,12.91-254.16,2.4-23.2,5.14-40.12,8.24-45.81,5.87-10.75,33.74-21.42,65.26-30.41l3.79-1.07c15.53-4.32,31.77-8.22,46.56-11.51l5.51-1.22,6.12-1.32,5.32-1.11c21.87-4.56,37.55-7.26,37.55-7.26l9.38.67,24,1.71,18.52,1.32s1.24,6.41,2.28,16C1785.19,1451.35,1786.49,1500.94,1756.61,1506.38Z" transform="translate(-0.03 -0.07)"/><path class="cls-8" d="M1671.38,1162.83a47.6,47.6,0,0,0,33.15-1A68.12,68.12,0,0,0,1725,1149a66,66,0,0,0,7.77-8.13s-.48-.5-1.32-1.5c-4.35-5.25-18.08-24.43-19-58.73,0-.45-3.23.72-8.05,2.73-14.36,6-43,19.44-44.26,20h0s.79,7.11,1.64,20c.08,1.14.16,2.32.23,3.55.09,1.5.2,3.1.28,4.75C1663,1145,1671.38,1162.83,1671.38,1162.83Z" transform="translate(-0.03 -0.07)"/><path class="cls-9" d="M1661.7,1123.36c23.13,1.45,51-36.94,51-36.94a35.59,35.59,0,0,0-8.33-3.07c-14.36,6-43,19.44-44.26,20h0S1660.85,1110.51,1661.7,1123.36Z" transform="translate(-0.03 -0.07)"/><path class="cls-8" d="M1650.59,1103.13a115.14,115.14,0,0,0,21.66,1.43c17.47-.5,39.73-5.56,43.39-27.4,6.17-36.77,17.93-60.14-19.4-68.61-20-4.53-32-3-39.71,1.28-6.66,3.67-10,9.37-12.35,14.84C1639.13,1036.44,1635.43,1099.36,1650.59,1103.13Z" transform="translate(-0.03 -0.07)"/><path class="cls-10" d="M1657.66,983.83c-15.2,2.5-31.2,18.14-20.46,29.19,7.35,7.57,17.45,13.62,37.57,13.68,9.66,0,13.31,16.78,14.23,21.39s2.17,8.43,13.54,3.71c1.86-.77,3.28-.87,4.33-.45,5.38,2.1,1.43,17.23.05,20.6,0,0-1.06,10.55,5.78,14.47.83.47,13.54,3.7,34.93-44.73,3.36-7.6,5.11-23.77-4.28-37.52S1705.64,975.94,1657.66,983.83Z" transform="translate(-0.03 -0.07)"/><path class="cls-11" d="M1784.28,1396.24c.21,10.16.46,19.2.75,26.32.44,10.53-110.86,9.89-141.69,7.32-10-.84-37-14.53-59.71-31.41-11.88-8.8,22.9-152.06,23.47-188.75.4-26.32.56-67.19,54.32-76.58l.72-.11c5.42,3,14.38,16.44,17,17.54l42.91-22.57c.78.13,1.53.32,2.3.48,2.52-.54,51.22,5.52,65,19.77,11.74,12.17-7.13,84.72-7.13,84.72.42,10.28.67,21.61.84,33.52.12,10,.2,20.32.25,30.83C1783.44,1325.44,1783.67,1365.81,1784.28,1396.24Z" transform="translate(-0.03 -0.07)"/><path class="cls-11" d="M1718.82,1116.17c-.2.07-39.65,34.4-39.65,34.4s49.29-11.43,54.76-21.29C1733.93,1129.28,1726.68,1113.56,1718.82,1116.17Z" transform="translate(-0.03 -0.07)"/><path class="cls-11" d="M1679.17,1150.57l-17.69-30.33s-7.86,5.44-8.86,15.17C1652.62,1135.41,1672.69,1150.57,1679.17,1150.57Z" transform="translate(-0.03 -0.07)"/><path class="cls-8" d="M1664.56,1411.75a120.68,120.68,0,0,0-29.55,7.93c-6.61,2.85-11.17,8.83-14.52,12.77-10.5,12.35,13.18,9,25.53,6.48s14.21,1.24,28.63-5.35c4.52-2.07,4.51-5.08,7-7.11a108.44,108.44,0,0,1,10.09-7.31l-14.21-11.53Z" transform="translate(-0.03 -0.07)"/><path class="cls-8" d="M1670.43,1411.75s-8.55-.82-15.34-1-16.48-.62-12.77,2.06,9.88,5.35,10.91,5.15S1670.43,1411.75,1670.43,1411.75Z" transform="translate(-0.03 -0.07)"/><path class="cls-6" d="M1784.28,1396.24c-18.58,10.65-59.06,31.39-102.63,30.24l-4.12-18.85s80.73-86.49,84-159l21.51,17.84c.12,10,.2,20.32.25,30.83C1783.44,1325.44,1783.67,1365.81,1784.28,1396.24Z" transform="translate(-0.03 -0.07)"/><path class="cls-11" d="M1792.41,1155.24s32.78,154.57,24.13,189.17-124.59,83.4-124.59,83.4-24.3-2.47-18.12-22.24c0,0,92.67-84,91.43-95.14s-32.12-122.33-32.12-122.33Z" transform="translate(-0.03 -0.07)"/><path class="cls-8" d="M1533.79,1396.1s-25.54,18.53-29.25,23.89-8.65,18.12-4.53,20.18,15.65-13,22.45-16.06-.62,8.34,1.55,9.57,12-8,13.59-11.74,7.1-14.21,7.1-14.21S1536.77,1403.31,1533.79,1396.1Z" transform="translate(-0.03 -0.07)"/><path class="cls-12" d="M1893,1795.26H1360.37V639.83H1893Zm-496.78-35.83h460.94V675.66H1396.2Z" transform="translate(-0.03 -0.07)"/><polygon class="cls-13" points="1395.78 1303.49 1857.29 960.52 1857.29 1759.76 1395.78 1759.76 1395.78 1303.49"/><path class="cls-14" d="M1614.52,656a10.71,10.71,0,1,1,10.7,10.71A10.71,10.71,0,0,1,1614.52,656Z" transform="translate(-0.03 -0.07)"/><path class="cls-14" d="M1369.24,657.81a10.71,10.71,0,1,1,10.71,10.7A10.71,10.71,0,0,1,1369.24,657.81Z" transform="translate(-0.03 -0.07)"/><circle class="cls-14" cx="1876.44" cy="657.12" r="10.71"/><path class="cls-14" d="M1865.76,971.86a10.71,10.71,0,1,1,10.71,10.71A10.72,10.72,0,0,1,1865.76,971.86Z" transform="translate(-0.03 -0.07)"/><circle class="cls-14" cx="1876.44" cy="1260" r="10.71"/><circle class="cls-14" cx="1377.48" cy="976.81" r="10.71" transform="translate(-268.98 601.42) rotate(-22.5)"/><path class="cls-15" d="M2751.61,1783.72l-45.09-166.57h35.15L2767,1782.84c.55,3.61-1.87,6.93-5.06,6.93h-3.2C2755.47,1789.76,2752.58,1787.31,2751.61,1783.72Z" transform="translate(-0.03 -0.07)"/><path class="cls-15" d="M2247.33,1783.72l45.09-166.57h-35.14L2232,1782.84c-.55,3.61,1.87,6.93,5.06,6.93h3.19C2243.47,1789.76,2246.36,1787.31,2247.33,1783.72Z" transform="translate(-0.03 -0.07)"/><path class="cls-15" d="M2521.79,1783.72l-45.08-166.57h35.14l25.33,165.69c.55,3.61-1.87,6.93-5.06,6.93h-3.2C2525.65,1789.76,2522.76,1787.31,2521.79,1783.72Z" transform="translate(-0.03 -0.07)"/><path class="cls-16" d="M2780.31,1221s-93.3-20.38-273.33,0l-20.66,209.87,247.17-12.23Z" transform="translate(-0.03 -0.07)"/><path class="cls-17" d="M2223.66,1537.33s-17.71-187.84,63.12-187.84,97-.91,89.69-75.44c-7.53-77.23,126.08-50.68,126.08-50.68l-46.9,314Z" transform="translate(-0.03 -0.07)"/><path class="cls-18" d="M2269.91,1537.33s-17.71-187.84,63.11-187.84,105-12.74,116.27-86.78c7.46-49.13,91.2-45.18,91.2-45.18s-19.26,54.08-31.71,143.57c-7.6,54.62-6.88,176.23-6.88,176.23Z" transform="translate(-0.03 -0.07)"/><path class="cls-18" d="M2480.34,1537.26H2767a0,0,0,0,1,0,0v72.69a18.56,18.56,0,0,1-18.56,18.56H2499.41a19.07,19.07,0,0,1-19.07-19.07v-72.17A0,0,0,0,1,2480.34,1537.26Z"/><path class="cls-17" d="M2223.64,1537.26h305.18a0,0,0,0,1,0,0v72.1a19.15,19.15,0,0,1-19.15,19.15H2243.32a19.68,19.68,0,0,1-19.68-19.68v-71.57A0,0,0,0,1,2223.64,1537.26Z"/><path class="cls-16" d="M2269.83,1537.33s-2.42-18.35,9.2-26.74c29.22-21.11,165.73-50.95,229-54.56,107.19-6.11,87.53,81.3,87.53,81.3Z" transform="translate(-0.03 -0.07)"/><path class="cls-17" d="M2482.05,1537.33s-18.18-187.84,64.84-187.84,131.87,7.58,114.62-86.28c-10.25-55.75,29.14-55.11,107.75-48.65,9.69.79,25.74,13.62,23.46,23.07l-72.35,299.7Z" transform="translate(-0.03 -0.07)"/><path class="cls-18" d="M2528.88,1537.33s-18-193.9,64.83-187.84c104.37,7.64,125.24,11.7,105.05-78.62-14.31-64.06,28.71-61.9,82.86-54.87,7.47,1,15.63,6.6,13.94,17.55l-28.37,303.78Z" transform="translate(-0.03 -0.07)"/><path class="cls-19" d="M2514.49,1634.41s-23.76-.54-28.2,18.13l-6.34-24h33.89Z" transform="translate(-0.03 -0.07)"/><path class="cls-19" d="M2744.33,1634.54s-23.82-.79-28.26,17.88l-6.51-23.89h33.9Z" transform="translate(-0.03 -0.07)"/><path class="cls-19" d="M2255,1631.87s27.84-.83,29,16.36l5.32-19.66h-33.8Z" transform="translate(-0.03 -0.07)"/><rect class="cls-20" x="1986.22" y="386.21" width="183.43" height="177.96" rx="13.12"/><rect class="cls-21" x="1994.16" y="393.92" width="167.54" height="162.54" rx="11.98"/><path class="cls-22" d="M2074.16,410.23a3.8,3.8,0,1,1,3.8,3.8A3.8,3.8,0,0,1,2074.16,410.23Z" transform="translate(-0.03 -0.07)"/><path class="cls-22" d="M2104.82,415.6a3.8,3.8,0,1,1,1.48,5.17A3.81,3.81,0,0,1,2104.82,415.6Z" transform="translate(-0.03 -0.07)"/><path class="cls-22" d="M2131.09,436.47a3.8,3.8,0,1,1-1.13,5.25A3.8,3.8,0,0,1,2131.09,436.47Z" transform="translate(-0.03 -0.07)"/><circle class="cls-22" cx="2144.07" cy="472.5" r="3.8"/><path class="cls-22" d="M2137.46,506.26a3.8,3.8,0,1,1-5.38,0A3.8,3.8,0,0,1,2137.46,506.26Z" transform="translate(-0.03 -0.07)"/><path class="cls-22" d="M2113.6,530.18a3.8,3.8,0,1,1-5.38,0A3.8,3.8,0,0,1,2113.6,530.18Z" transform="translate(-0.03 -0.07)"/><path class="cls-22" d="M2074.16,542.51a3.8,3.8,0,1,1,3.8,3.8A3.8,3.8,0,0,1,2074.16,542.51Z" transform="translate(-0.03 -0.07)"/><path class="cls-22" d="M2051,415.6a3.8,3.8,0,1,0-1.48,5.17A3.8,3.8,0,0,0,2051,415.6Z" transform="translate(-0.03 -0.07)"/><path class="cls-22" d="M2024.71,436.47a3.8,3.8,0,1,0,1.14,5.25A3.8,3.8,0,0,0,2024.71,436.47Z" transform="translate(-0.03 -0.07)"/><path class="cls-22" d="M2011.7,468.77a3.8,3.8,0,1,0,3.8,3.8A3.8,3.8,0,0,0,2011.7,468.77Z" transform="translate(-0.03 -0.07)"/><path class="cls-22" d="M2018.34,506.26a3.8,3.8,0,1,0,5.38,0A3.8,3.8,0,0,0,2018.34,506.26Z" transform="translate(-0.03 -0.07)"/><circle class="cls-22" cx="2044.86" cy="532.8" r="3.8"/><path class="cls-22" d="M2076.94,472.57a3.8,3.8,0,1,1,3.8,3.8A3.8,3.8,0,0,1,2076.94,472.57Z" transform="translate(-0.03 -0.07)"/><rect class="cls-22" x="2080.19" y="425.03" width="1.04" height="47.47"/><rect class="cls-22" x="2076.85" y="461.07" width="31.99" height="3.11" transform="translate(160.93 1390.92) rotate(-38.13)"/><path class="cls-23" d="M1543.28,369.28V399c0,18-.1,35.09-.22,50.51,0,.3,0,.57,0,.88,0,1.5,0,3,0,4.5-.13,15.59-.31,29.34-.52,40.5,0,.11,0,.22,0,.32,0,.69,0,1.37,0,2-.35,17.88-.8,28.52-1.28,28.52h-.3c-.47,0-.9-10.16-1.26-27.31,0-1.07,0-2.19-.06-3.32v-.26c-.19-10.15-.36-22.44-.48-36.29,0-2.92-.06-5.87-.08-8.93v-.65c-.08-10.92-.16-22.66-.19-35,0-5.33,0-10.76,0-16.36V397c0-3.13,0-6.36,0-9.64V371.8Z" transform="translate(-0.03 -0.07)"/><path class="cls-12" d="M1541,495.36c-42.36,0-76.7,36.31-76.7,81.11h153.4C1617.72,531.67,1583.38,495.36,1541,495.36Z" transform="translate(-0.03 -0.07)"/><path class="cls-24" d="M1547.13,496.35a31.53,31.53,0,0,0-6.73-.73c-27.6,0-50,36.2-50,80.85h13.48C1503.9,535.51,1522.72,501.67,1547.13,496.35Z" transform="translate(-0.03 -0.07)"/><g class="cls-25"><path class="cls-26" d="M2286.8,854.71s-27.5-32.08-1.7-52.46c0,0,18.85-11.41,34.21-10.48,0,0-21.77,36.51-14.73,40.14s21.33-42.43,21.33-42.43,42.89-4.16,56.68,2.48c0,0-36.66,30-28.94,31.78S2401,796.08,2401,796.08s39.92,6.79,37.79,31.14-15.88,31.87-21.93,31.22-41.4-14.14-42.17-9.19,20.51,21.14,35.42,21.9c0,0-28.14,31-46.85,22.07s-20.29-23.15-31.95-28.48-21.61-5.31-16.8.12,25.91,10.71,32.58,22.51,12.65,19.74-6.7,16.83-50.8-17.07-52.18-33.28Z" transform="translate(-0.03 -0.07)"/><path class="cls-26" d="M2419.15,827.88s-108.41-4.18-132.35,26.83c0,0-5.3,15.85-21.59,30.29l-2.54,6.92s18.79-19.8,25.51-21C2288.18,870.92,2277.67,832.51,2419.15,827.88Z" transform="translate(-0.03 -0.07)"/><path class="cls-26" d="M2265.21,885s-23.27,17.21-24.89,48l4.23.38s7.43-31.8,20.86-44.23S2265.21,885,2265.21,885Z" transform="translate(-0.03 -0.07)"/><path class="cls-26" d="M2190.67,814.37s43.73-24.5,23.32-57.74c0,0-16.33-20.41-33.82-25.66,0,0,9.33,49.57,0,50.74s-6.42-56-6.42-56-46.07-22.16-64.15-20.41c0,0,28.58,48.41,19.25,47.24s-41.41-50.15-41.41-50.15-47.23-8.75-54.81,19.24,4.66,42,11.66,43.74,51.9,1.17,50.74,7-31.5,15.16-48.41,9.91c0,0,18.66,46.07,43.16,43.74s32.07-17.5,47.23-18.66,26.25,2.91,18.66,7-33.24,1.33-45.48,11.74-22.16,16.83.58,21.5,63.57,1.75,71.73-15.75Z" transform="translate(-0.03 -0.07)"/><path class="cls-26" d="M2054.2,730.39s122.47,39.65,136.47,84c0,0-.59,19.82,11.66,42.57v8.74s-12.83-29.74-19.83-33.82C2182.5,831.86,2209.91,793.37,2054.2,730.39Z" transform="translate(-0.03 -0.07)"/><path class="cls-26" d="M2202.33,856.94s18.88,28.68,8.12,63.59l-4.86-1.31s4.71-38.45-5.17-57.79S2202.33,856.94,2202.33,856.94Z" transform="translate(-0.03 -0.07)"/><path class="cls-23" d="M2260.25,780.59s-57.66-32.29-30.75-76.11c0,0,21.52-26.9,44.58-33.82,0,0-12.29,65.34,0,66.88s8.46-73.8,8.46-73.8,60.73-29.21,84.56-26.9c0,0-37.67,63.8-25.37,62.26S2396.31,633,2396.31,633s62.27-11.53,72.26,25.37-6.15,55.35-15.37,57.65-68.42,1.54-66.88,9.23,41.51,20,63.8,13.07c0,0-24.6,60.73-56.88,57.65S2351,772.9,2331,771.36s-34.59,3.85-24.6,9.23,43.82,1.76,60,15.48,29.21,22.18-.77,28.33-83.79,2.31-94.55-20.75Z" transform="translate(-0.03 -0.07)"/><path class="cls-23" d="M2440.13,669.89s-161.43,52.27-179.88,110.7c0,0,.77,26.13-15.38,56.11v11.53s16.92-39.2,26.14-44.58C2271,803.65,2234.88,752.91,2440.13,669.89Z" transform="translate(-0.03 -0.07)"/><path class="cls-23" d="M2244.87,836.7s-24.89,37.81-10.7,83.83l6.41-1.72s-6.22-50.69,6.8-76.18S2244.87,836.7,2244.87,836.7Z" transform="translate(-0.03 -0.07)"/><path class="cls-23" d="M2258.3,1020.32a112.93,112.93,0,0,0,112.94-112.93H2145.37A112.93,112.93,0,0,0,2258.3,1020.32Z" transform="translate(-0.03 -0.07)"/><path class="cls-27" d="M2286.1,1019.46a114.07,114.07,0,0,1-14,.86,112.93,112.93,0,0,1-112.93-112.93h28.06A113,113,0,0,0,2286.1,1019.46Z" transform="translate(-0.03 -0.07)"/><rect class="cls-23" x="2141.63" y="907.31" width="232.15" height="3.46"/><rect class="cls-23" x="2219.39" y="1014.73" width="71.74" height="11.3"/></g><path class="cls-28" d="M255.83,729.68q-5.57,8.72-10.91,17.73h371V1784.06H633V729.68Z" transform="translate(-0.03 -0.07)"/><path class="cls-28" d="M628.14,975v18.92H158.45c1.14-6.36,2.34-12.68,3.59-18.92Z" transform="translate(-0.03 -0.07)"/><path class="cls-28" d="M628.14,1210.79v18.9H146.25q-.67-9.39-1.17-18.9Z" transform="translate(-0.03 -0.07)"/><path class="cls-28" d="M628.14,1469.59v18.92H196.57q-3-9.35-5.8-18.92Z" transform="translate(-0.03 -0.07)"/><path class="cls-29" d="M538.74,835.6h4.35a18.64,18.64,0,0,1,18.64,18.64V975.18a0,0,0,0,1,0,0H520.1a0,0,0,0,1,0,0V854.24A18.64,18.64,0,0,1,538.74,835.6Z"/><path class="cls-29" d="M540.09,820.53h2.59a11.12,11.12,0,0,1,11.12,11.12v72.18a0,0,0,0,1,0,0H529a0,0,0,0,1,0,0V831.66A11.12,11.12,0,0,1,540.09,820.53Z"/><path class="cls-17" d="M485.33,879.82h3A12.73,12.73,0,0,1,501,892.55v82.63a0,0,0,0,1,0,0H472.59a0,0,0,0,1,0,0V892.55A12.73,12.73,0,0,1,485.33,879.82Z"/><path class="cls-17" d="M486.25,869.52H488a7.6,7.6,0,0,1,7.6,7.6v49.31a0,0,0,0,1,0,0h-17a0,0,0,0,1,0,0V877.12a7.6,7.6,0,0,1,7.6-7.6Z"/><rect class="cls-18" x="407.18" y="956.19" width="50.87" height="18.99" rx="3.87"/><path class="cls-17" d="M458.08,960.13v5.63H407.21v-5.63a3.87,3.87,0,0,1,3.87-3.87h43.13A3.87,3.87,0,0,1,458.08,960.13Z" transform="translate(-0.03 -0.07)"/><path class="cls-29" d="M336,835.6h4.35a18.64,18.64,0,0,1,18.64,18.64V975.18a0,0,0,0,1,0,0H317.32a0,0,0,0,1,0,0V854.24A18.64,18.64,0,0,1,336,835.6Z"/><path class="cls-29" d="M337.31,820.53h2.59A11.12,11.12,0,0,1,351,831.66v72.18a0,0,0,0,1,0,0H326.19a0,0,0,0,1,0,0V831.66A11.12,11.12,0,0,1,337.31,820.53Z"/><path class="cls-17" d="M282.55,879.82h3a12.73,12.73,0,0,1,12.73,12.73v82.63a0,0,0,0,1,0,0H269.82a0,0,0,0,1,0,0V892.55A12.73,12.73,0,0,1,282.55,879.82Z"/><path class="cls-17" d="M283.47,869.52h1.77a7.6,7.6,0,0,1,7.6,7.6v49.31a0,0,0,0,1,0,0h-17a0,0,0,0,1,0,0V877.12A7.6,7.6,0,0,1,283.47,869.52Z"/><rect class="cls-18" x="204.4" y="956.19" width="50.87" height="18.99" rx="3.87"/><path class="cls-17" d="M255.3,960.13v5.63H204.43v-5.63a3.87,3.87,0,0,1,3.87-3.87h43.13A3.86,3.86,0,0,1,255.3,960.13Z" transform="translate(-0.03 -0.07)"/><rect class="cls-30" x="546.42" y="1189.11" width="20.03" height="21.74"/><polygon class="cls-17" points="546.42 1189.12 539.17 1108.56 573.27 1108.56 566.45 1189.12 546.42 1189.12"/><path class="cls-30" d="M538.78,1103.38l.46,5.29,34.06,0,.07-5.68Z" transform="translate(-0.03 -0.07)"/><rect class="cls-15" x="454.01" y="1088.52" width="74.18" height="122.03"/><rect class="cls-17" x="454.1" y="1104.37" width="52.94" height="21.53"/><rect class="cls-30" x="370" y="1189.11" width="20.03" height="21.74"/><polygon class="cls-29" points="370 1189.12 362.75 1108.56 396.85 1108.56 390.03 1189.12 370 1189.12"/><path class="cls-30" d="M362.36,1103.38l.46,5.29,34.06,0L397,1103Z" transform="translate(-0.03 -0.07)"/><rect class="cls-15" x="277.58" y="1088.52" width="74.18" height="122.03"/><rect class="cls-29" x="277.68" y="1104.37" width="52.94" height="21.53"/><rect class="cls-30" x="394.08" y="1447.53" width="20.03" height="21.74"/><polygon class="cls-17" points="394.08 1447.53 386.84 1366.98 420.93 1366.98 414.11 1447.53 394.08 1447.53"/><path class="cls-30" d="M386.44,1361.79l.46,5.29,34.06,0,.07-5.68Z" transform="translate(-0.03 -0.07)"/><rect class="cls-15" x="301.67" y="1346.94" width="74.18" height="122.03"/><rect class="cls-17" x="301.77" y="1362.79" width="52.94" height="21.53"/><rect class="cls-30" x="546.42" y="1447.53" width="20.03" height="21.74"/><polygon class="cls-17" points="546.42 1447.53 539.17 1366.98 573.27 1366.98 566.45 1447.53 546.42 1447.53"/><path class="cls-30" d="M538.78,1361.79l.46,5.29,34.06,0,.07-5.68Z" transform="translate(-0.03 -0.07)"/><rect class="cls-15" x="454.01" y="1346.94" width="74.18" height="122.03"/><rect class="cls-17" x="454.1" y="1362.79" width="52.94" height="21.53"/><rect class="cls-31" x="2089.55" y="1022.44" width="355.45" height="21.87"/><path class="cls-32" d="M1373.82,1739s3,47.46,12.23,48.13c1.22.08,46.58,0,46.58,0l57.91-.47s-.41-14-17.35-16.86-45.28-14.75-55.58-37.09C1406.77,1709.18,1373.82,1739,1373.82,1739Z" transform="translate(-0.03 -0.07)"/><path class="cls-33" d="M1208.07,1348.58c-2.21,1.86-61.18,65.76-56.37,114.84a28.31,28.31,0,0,0,28.32,25.25l126.43-67.77s18.71,80.87,20.46,96.71,16.74,101.23,46.47,222.57c0,0,21.9,7.54,35.19,2.16,17.57-7.12,20.12-14.68,20.12-14.68S1411,1456,1397,1436.83s-158.09-76-204.74-81.63S1208.07,1348.58,1208.07,1348.58Z" transform="translate(-0.03 -0.07)"/><path class="cls-33" d="M1475.31,1739s3,47.46,12.23,48.13c1.22.08,46.58,0,46.58,0l57.9-.47s-.41-14-17.34-16.86-45.29-14.75-55.59-37.09C1508.25,1709.18,1475.31,1739,1475.31,1739Z" transform="translate(-0.03 -0.07)"/><path class="cls-29" d="M1153.59,1348.58c-1.68,1.41-14.44,35.76-23,74.76a53.81,53.81,0,0,0,52.55,65.33H1350.3s73.3,13.1,75,28.94,16.74,101.23,46.47,222.57c0,0,22,5.77,39.14-1.56,9.13-3.9,16.33-13.26,16.33-13.26s-17.88-269.41-31.87-288.53-158.09-76-204.74-81.63S1153.59,1348.58,1153.59,1348.58Z" transform="translate(-0.03 -0.07)"/><path class="cls-34" d="M1220.63,1108.81l28.85,21.24,43.66-5.7c-.41-3.52-2.47-18.14-4.36-31.39-.12-.78-.24-1.56-.34-2.32-.42-2.94-.83-5.78-1.2-8.37l-1.81-12.58-12.23-6.21L1246,1049.67l-14.69-7.45c0,.23.49,12.44.56,14.21C1233,1088.05,1220.63,1108.81,1220.63,1108.81Z" transform="translate(-0.03 -0.07)"/><path class="cls-35" d="M1097.74,1264.38c1.73-56.67,34.3-103.19,48.52-120.89,8.77-17.86,71.13-39.81,71.13-39.81l85.64,7.91s59.14,11.38,72,61.3c31,120.93,64.1,173.5,55.92,202.18-34.66,121.59-155.17,118.49-177.87,93.81-11.62-12.64-126.32-80.11-121.72-161.53C1111.5,1300.92,1097,1288.15,1097.74,1264.38Z" transform="translate(-0.03 -0.07)"/><path class="cls-36" d="M1241.43,1065.07l2.41,1.09s22.48,12.1,43.4,16.11l-1.81-12.58-12.23-6.21Z" transform="translate(-0.03 -0.07)"/><path class="cls-34" d="M1300.78,1068.06s-66.14,16.75-75.94-24.6-24.92-67,16.89-79.47,53.79,1.38,60.41,14.39S1317.73,1062.64,1300.78,1068.06Z" transform="translate(-0.03 -0.07)"/><path class="cls-37" d="M1299.8,974.32s-6.73,47.13-16.41,44.54-18.48-4.6-17.82,9.76,10,33.8-20.3,34.68-66.15-81.54-57-95.83C1214.45,926.25,1337.2,924.33,1299.8,974.32Z" transform="translate(-0.03 -0.07)"/><path class="cls-33" d="M1286.77,1097.28c-1-.24-57-15.32-63-12.66s-11.32,21-11.32,21l96,7.52S1299.33,1100.37,1286.77,1097.28Z" transform="translate(-0.03 -0.07)"/><path class="cls-26" d="M1032,1459.66h358.19a0,0,0,0,1,0,0v38a0,0,0,0,1,0,0H1055a23,23,0,0,1-23-23v-15A0,0,0,0,1,1032,1459.66Z"/><rect class="cls-17" x="1159.71" y="1459.66" width="287.63" height="38.03" rx="17.04"/><polygon class="cls-28" points="1219.22 1772.78 1197.6 1772.78 1191.53 1497.69 1224.56 1497.69 1219.22 1772.78"/><polygon class="cls-28" points="1313.17 1772.78 1102.92 1772.78 1102.92 1753.79 1210.08 1744.12 1313.17 1753.79 1313.17 1772.78"/><circle class="cls-28" cx="1099.82" cy="1769.87" r="17.29" transform="translate(-674.25 676.73) rotate(-26.5)"/><circle class="cls-28" cx="1310.06" cy="1769.87" r="17.29" transform="translate(-713.48 2638.18) rotate(-76.72)"/><path class="cls-28" d="M1119.6,1497.69h176.89a0,0,0,0,1,0,0V1500a15.78,15.78,0,0,1-15.78,15.78H1135.38A15.78,15.78,0,0,1,1119.6,1500v-2.26A0,0,0,0,1,1119.6,1497.69Z"/><path class="cls-17" d="M1065.09,1497.76a16.45,16.45,0,0,1-16.46-16.45V1228c0-47.46,31-85.94,69.32-85.94H1274.7c38.28,0,69.31,38.48,69.31,85.94v269.76Z" transform="translate(-0.03 -0.07)"/><path class="cls-30" d="M1062,1497.76a30,30,0,0,1-30-30V1228c0-47.46,31-85.94,69.31-85.94H1258c38.28,0,69.32,38.48,69.32,85.94v269.76Z" transform="translate(-0.03 -0.07)"/><path class="cls-33" d="M1352.53,1345.71s7.55,50,63.54,66l12.62-16.58Z" transform="translate(-0.03 -0.07)"/><path class="cls-35" d="M1398.88,1254.27l54.79,157.48s-82.4-25.15-94.11-46.9-15.55-71.73-15.55-71.73Z" transform="translate(-0.03 -0.07)"/><path class="cls-34" d="M1133.53,982.74s20.69-8.88,31-5.73,5.82,11.78,6.18,13.4,20.13,7.85,21.32,8.81-4,16.53-11.62,18-19.44-4.86-27.56-8-20.52-7.87-20.52-7.87L1132.1,983Z" transform="translate(-0.03 -0.07)"/><path class="cls-38" d="M1139.57,993.38c0-.11,0-.22,0-.33a14.73,14.73,0,0,0-11.71-14.61c-27.17-5.75-97.56-20.66-105.5-22.7-8.39-2.16-99.45-54.93-126.71-70.78a14.73,14.73,0,0,0-15.21.23L824.3,920.12a14.76,14.76,0,0,0,2.58,26.34c52.46,19.76,162.1,60.75,181.1,65.24,33.5,7.91,95.7,1.09,118.55-1.85a14.72,14.72,0,0,0,12.67-12.22A30,30,0,0,0,1139.57,993.38Z" transform="translate(-0.03 -0.07)"/><path class="cls-33" d="M872.76,1743.42s2.19,35.41,8.77,43.74H982.71c-.64-3.53-3.5-12.25-16.15-14.46-16-2.78-42.75-14-52.43-35.14C903.94,1715.33,872.76,1743.42,872.76,1743.42Z" transform="translate(-0.03 -0.07)"/><path class="cls-33" d="M693.2,1738.49s-8.72,46.86-.06,47.66c1.15.1,42.42.51,53.44,2.16,18,2.69,50.72-2.16,50.72-2.16,3.76.15,4.82-4.67,2.91-7.91-2.1-3.56-6.11-7.35-13.75-8.82-15.93-3.07-42.49-14.77-51.8-36.07C724.87,1711,693.2,1738.49,693.2,1738.49Z" transform="translate(-0.03 -0.07)"/><path class="cls-28" d="M920.33,1272.17s-25.44,89-98.36,243.63-78.54,225-78.54,225l-50.23-2.36s4.72-184,39.16-262S773.83,1185,773.83,1185Z" transform="translate(-0.03 -0.07)"/><path class="cls-15" d="M961.18,1195.57s2,137.86-21.83,307.12-15.76,241.11-15.76,241.11l-57.13,1.9s-34.14-169.33-24.35-254S795.36,1201,795.36,1201Z" transform="translate(-0.03 -0.07)"/><path class="cls-34" d="M848.46,873l26.94,19.95,38.94-8.19c-.53-3.55-3.11-18.27-5.45-31.6-.14-.79-.28-1.57-.41-2.34-2-11.35-3.74-21.09-3.74-21.09l-36.37-18.13-13.56-6.75c0,.23,1.05,12.58,1.2,14.39C858.55,851.23,848.46,873,848.46,873Z" transform="translate(-0.03 -0.07)"/><path class="cls-17" d="M771.28,1212.59c-.65-36.3,11.43-86.38,20.11-159.36,3.77-31.58.86-76.7,7.54-105.28,11.86-50.58,22.5-79.45,45.05-86.09,8.33-2.43,39,5.54,61.2,12a41.17,41.17,0,0,1,4.57,1.59,47.08,47.08,0,0,1,27.55,30.19c3.43,11.51,7.37,26.26,10.55,42.52,3.49,17.63,6.1,37,6.28,56,.2,19.69,2.86,48.78,5.87,79.37q.51,5.1,1,10.24c.23,2.37,4,80.41,5.12,101.33,0,.29,0,.56,0,.83a.12.12,0,0,0,0,.08c0,.31,0,.61,0,.88.1,1.87.16,3,.18,3.28C968.87,1224.72,772,1253.83,771.28,1212.59Z" transform="translate(-0.03 -0.07)"/><path class="cls-39" d="M858.74,819.78c8,15.28,37.74,28.5,50.15,33.36-.14-.79-.28-1.57-.41-2.34-2-11.35-3.74-21.09-3.74-21.09l-36.37-18.13C860.33,811.46,855.44,813.49,858.74,819.78Z" transform="translate(-0.03 -0.07)"/><path class="cls-34" d="M922.41,827.58S856.8,848.05,844.68,807s-28.74-66.06,12.64-80.87,54.18-1.55,61.56,11.17S939.17,821.2,922.41,827.58Z" transform="translate(-0.03 -0.07)"/><path class="cls-33" d="M916.3,733.34s-4.19,47.77-14.07,45.7-18.84-3.61-17.39,10.79,7.42,33.47-23,36-66.5-78.42-58.13-93.29C827.81,689.66,951.18,681,916.3,733.34Z" transform="translate(-0.03 -0.07)"/><path class="cls-38" d="M966.24,1196.85C820.13,1189.25,850,1027.14,850,1027.14l110,56.35q.51,5.1,1,10.24c.23,2.37,4,80.41,5.12,101.33a2.85,2.85,0,0,0,0,.83.12.12,0,0,0,0,.08C966.2,1196.28,966.21,1196.58,966.24,1196.85Z" transform="translate(-0.03 -0.07)"/><path class="cls-35" d="M1187.18,1011.9a9.91,9.91,0,1,1-4.31-13.34A9.92,9.92,0,0,1,1187.18,1011.9Zm-3.43-1.75a6.06,6.06,0,1,0-8.16,2.63A6.08,6.08,0,0,0,1183.75,1010.15Z" transform="translate(-0.03 -0.07)"/><path class="cls-35" d="M1186.09,1007.11c0-.32,50.3-12.23,50.3-12.23a20.58,20.58,0,0,0-12.22-3.85c-7.66-.08-39.36,9.21-39.36,9.21Z" transform="translate(-0.03 -0.07)"/><path class="cls-35" d="M1183.62,992.47a9.91,9.91,0,1,1,7.05-12.11A9.93,9.93,0,0,1,1183.62,992.47ZM1179.54,977a6.06,6.06,0,1,0,7.4,4.31A6.08,6.08,0,0,0,1179.54,977Z" transform="translate(-0.03 -0.07)"/><path class="cls-35" d="M1188.59,984.81c-.11.31,46.53,22.67,46.53,22.67a20.6,20.6,0,0,1-12.76,1.16c-7.5-1.56-36.49-17.39-36.49-17.39Z" transform="translate(-0.03 -0.07)"/><path class="cls-35" d="M1206.15,996.54a1.09,1.09,0,0,0-1.09,1.11,1.11,1.11,0,0,0,1.11,1.1,1.12,1.12,0,0,0,1.1-1.12A1.11,1.11,0,0,0,1206.15,996.54Z" transform="translate(-0.03 -0.07)"/><path class="cls-34" d="M1164.54,977c.15,0,8,.48,15.56,1,5.59.37,11.39-1.12,13.66-.84,5.36.68.14,8.46-12.1,10.64-10.36,1.84-20.53,5.2-30,5.14C1140.23,992.85,1164.54,977,1164.54,977Z" transform="translate(-0.03 -0.07)"/><path class="cls-33" d="M1092.54,1054.14a4.36,4.36,0,0,1-.51,0l-9.3-1.12a.91.91,0,0,1-.8-1,.92.92,0,0,1,1-.8l9.31,1.12a2.47,2.47,0,0,0,2.74-2.16l6.38-53.24a2.47,2.47,0,0,0-2.16-2.73l-9.3-1.12a.91.91,0,1,1,.22-1.8l9.3,1.11a4.29,4.29,0,0,1,3.75,4.76l-6.38,53.24A4.3,4.3,0,0,1,1092.54,1054.14Z" transform="translate(-0.03 -0.07)"/><path class="cls-33" d="M1102.31,997h0l-12.66-1.52a.34.34,0,0,1-.3-.38.35.35,0,0,1,.39-.3l12.65,1.51a.36.36,0,0,1,.31.39A.35.35,0,0,1,1102.31,997Z" transform="translate(-0.03 -0.07)"/><path class="cls-33" d="M1101.87,1000.74h0l-12.66-1.51a.35.35,0,0,1-.3-.39.34.34,0,0,1,.38-.3l12.66,1.52a.33.33,0,0,1,.3.38A.35.35,0,0,1,1101.87,1000.74Z" transform="translate(-0.03 -0.07)"/><path class="cls-33" d="M1101.41,1004.6h-.05l-12.65-1.52a.35.35,0,0,1-.31-.38.36.36,0,0,1,.39-.3l12.66,1.51a.36.36,0,0,1,.3.39A.34.34,0,0,1,1101.41,1004.6Z" transform="translate(-0.03 -0.07)"/><path class="cls-33" d="M1101,1008.16h0l-12.66-1.52a.34.34,0,0,1-.3-.38.37.37,0,0,1,.38-.31l12.66,1.52a.34.34,0,0,1,.3.38A.35.35,0,0,1,1101,1008.16Z" transform="translate(-0.03 -0.07)"/><path class="cls-33" d="M1100.54,1011.87h0l-12.65-1.52a.35.35,0,0,1-.31-.38.37.37,0,0,1,.39-.31l12.66,1.52a.36.36,0,0,1,.3.39A.34.34,0,0,1,1100.54,1011.87Z" transform="translate(-0.03 -0.07)"/><path class="cls-33" d="M1100.07,1015.74h0l-12.66-1.52a.35.35,0,0,1-.3-.39.35.35,0,0,1,.38-.3l12.66,1.52a.33.33,0,0,1,.3.38A.35.35,0,0,1,1100.07,1015.74Z" transform="translate(-0.03 -0.07)"/><path class="cls-33" d="M1099.57,1019.91h0l-12.66-1.52a.34.34,0,0,1-.3-.38.35.35,0,0,1,.38-.3l12.66,1.51a.35.35,0,0,1,0,.69Z" transform="translate(-0.03 -0.07)"/><path class="cls-33" d="M1099.13,1023.63h0l-12.66-1.51a.35.35,0,0,1-.3-.39.34.34,0,0,1,.38-.3l12.66,1.52a.34.34,0,0,1,.3.38A.35.35,0,0,1,1099.13,1023.63Z" transform="translate(-0.03 -0.07)"/><path class="cls-33" d="M1098.66,1027.49h0L1086,1026a.34.34,0,0,1-.3-.38.36.36,0,0,1,.39-.3l12.65,1.51a.36.36,0,0,1,.31.39A.35.35,0,0,1,1098.66,1027.49Z" transform="translate(-0.03 -0.07)"/><path class="cls-33" d="M1098.18,1031.5h0l-12.66-1.52a.35.35,0,0,1-.3-.39.36.36,0,0,1,.39-.3l12.65,1.52a.35.35,0,0,1,0,.69Z" transform="translate(-0.03 -0.07)"/><path class="cls-33" d="M1097.74,1035.21h0l-12.66-1.52a.33.33,0,0,1-.3-.38.36.36,0,0,1,.38-.31l12.66,1.52a.35.35,0,0,1,.3.39A.34.34,0,0,1,1097.74,1035.21Z" transform="translate(-0.03 -0.07)"/><path class="cls-33" d="M1097.28,1039.08h0l-12.65-1.51a.35.35,0,1,1,.08-.69l12.66,1.52a.34.34,0,0,1,.3.38A.35.35,0,0,1,1097.28,1039.08Z" transform="translate(-0.03 -0.07)"/><path class="cls-33" d="M1096.88,1042.34h0l-12.65-1.52a.36.36,0,0,1-.31-.39.37.37,0,0,1,.39-.3l12.65,1.52a.35.35,0,0,1,0,.69Z" transform="translate(-0.03 -0.07)"/><path class="cls-33" d="M1096.44,1046.05h0l-12.66-1.52a.33.33,0,0,1-.3-.38.36.36,0,0,1,.38-.31l12.66,1.52a.35.35,0,0,1,0,.69Z" transform="translate(-0.03 -0.07)"/><path class="cls-33" d="M1096,1049.92h0l-12.66-1.51a.35.35,0,1,1,.08-.69l12.66,1.52a.34.34,0,0,1,.3.38A.35.35,0,0,1,1096,1049.92Z" transform="translate(-0.03 -0.07)"/><path class="cls-34" d="M1053.46,1043.7s22.64-15.32,26.93-16.65,18.37-2.78,19-1.67,2.59,4.5.13,5.65-5.53.75-4.61,1.55,10.18-3.6,12.31,1.12,4,20.89-6.84,25.79-37.66.47-39.6,1C1044.41,1065.29,1053.46,1043.7,1053.46,1043.7Z" transform="translate(-0.03 -0.07)"/><path class="cls-35" d="M789.27,1070.18s43.92,4.72,94-5.94l-1.89,11.19s-30.27,14.73-93.7,6.35Z" transform="translate(-0.03 -0.07)"/><path class="cls-35" d="M906.86,929.74l-23.57,134.5,11.79,339.92s38.77,10.18,71.37,0c0,0,9.26-417.51-24.25-480.91Z" transform="translate(-0.03 -0.07)"/><path class="cls-17" d="M1053.67,1039.56s-110.49,18.78-120.28,14c-15.62-7.61-5-127.18-5-127.18s12-17.94-17.65-23.93c-25.78-5.2-50.66,14.11-50.66,14.11s-22.63,20.25-19.74,42.71c6.41,49.77,16.38,151,49.67,166.54,42.95,20,167.21-55.51,167.21-55.51s4.14-5.06,3.55-14.47C1060.22,1047.55,1053.67,1039.56,1053.67,1039.56Z" transform="translate(-0.03 -0.07)"/><path class="cls-35" d="M928.36,926.4s-3.34-48.41-56-65l8.44-4.86s51,16.31,55.55,69.85Z" transform="translate(-0.03 -0.07)"/><path class="cls-38" d="M911.62,862.91c-.85-.36-53-15.74-58.63-13.87s-9,12.82-9,12.82l80.47,22.92S922.51,867.5,911.62,862.91Z" transform="translate(-0.03 -0.07)"/><path class="cls-35" d="M1190.62,980.41a9.89,9.89,0,0,0-9.16-7.49v4a6,6,0,0,1,5.5,4.43,6.27,6.27,0,0,1-4.28,7.48,3.44,3.44,0,0,1-1.22.15v3.82a10.51,10.51,0,0,0,2.14-.3A9.86,9.86,0,0,0,1190.62,980.41Z" transform="translate(-0.03 -0.07)"/><path class="cls-40" d="M1171.35,1016.29s2.62-8.43,4.76-10.12c8.63-6.83,14.63-11.26,17.49-8.39,3.82,3.82-.14,14.53-4.1,18.15C1186.79,1018.4,1180.42,1021.3,1171.35,1016.29Z" transform="translate(-0.03 -0.07)"/><path class="cls-41" d="M1804.68,1439.56v8.8c0,3.09,1,5.6,2.21,5.6h321.28c1.22,0,2.22-2.51,2.22-5.6v-8.8c0-3.08-1-5.6-2.22-5.6H1806.89C1805.68,1434,1804.68,1436.48,1804.68,1439.56Z" transform="translate(-0.03 -0.07)"/><path class="cls-42" d="M1804.68,1439.56v8.8c0,3.09.92,5.6,2,5.6h255.06c1.12,0,2-2.51,2-5.6v-8.8c0-3.08-.92-5.6-2-5.6H1806.71C1805.6,1434,1804.68,1436.48,1804.68,1439.56Z" transform="translate(-0.03 -0.07)"/><rect class="cls-28" x="1885.99" y="1453.97" width="228.09" height="332.45" transform="translate(4000.05 3240.31) rotate(180)"/><rect class="cls-31" x="1822.08" y="1453.97" width="228.09" height="332.45" transform="translate(3872.21 3240.31) rotate(180)"/><path class="cls-28" d="M1834.33,1463.36h203.58v304.7H1834.33Zm201.38,2.2H1836.53v300.3h199.18Z" transform="translate(-0.03 -0.07)"/><rect class="cls-28" x="1835.4" y="1564.09" width="201.38" height="2.2"/><rect class="cls-28" x="1835.4" y="1666.85" width="201.38" height="2.2"/><path class="cls-28" d="M1915.48,1483h37.37a3.32,3.32,0,0,0,3.3-3.3h0a3.32,3.32,0,0,0-3.3-3.3h-37.37a3.31,3.31,0,0,0-3.29,3.3h0A3.31,3.31,0,0,0,1915.48,1483Z" transform="translate(-0.03 -0.07)"/><path class="cls-28" d="M1915.48,1583.5h37.37a3.31,3.31,0,0,0,3.3-3.3h0a3.31,3.31,0,0,0-3.3-3.29h-37.37a3.3,3.3,0,0,0-3.29,3.29h0A3.3,3.3,0,0,0,1915.48,1583.5Z" transform="translate(-0.03 -0.07)"/><path class="cls-28" d="M1915.48,1688.25h37.37a3.31,3.31,0,0,0,3.3-3.29h0a3.31,3.31,0,0,0-3.3-3.3h-37.37a3.3,3.3,0,0,0-3.29,3.3h0A3.3,3.3,0,0,0,1915.48,1688.25Z" transform="translate(-0.03 -0.07)"/><path class="cls-29" d="M2060.43,1320.29H2064a15.17,15.17,0,0,1,15.17,15.17v98.43a0,0,0,0,1,0,0h-33.88a0,0,0,0,1,0,0v-98.43A15.17,15.17,0,0,1,2060.43,1320.29Z"/><path class="cls-29" d="M2061.53,1308h2.11a9.05,9.05,0,0,1,9.05,9.05v58.75a0,0,0,0,1,0,0h-20.22a0,0,0,0,1,0,0v-58.75A9.05,9.05,0,0,1,2061.53,1308Z"/><path class="cls-17" d="M2017,1356.28h2.42a10.36,10.36,0,0,1,10.36,10.36v67.25a0,0,0,0,1,0,0h-23.15a0,0,0,0,1,0,0v-67.25A10.36,10.36,0,0,1,2017,1356.28Z"/><path class="cls-17" d="M2017.71,1347.9h1.44a6.19,6.19,0,0,1,6.19,6.19v40.14a0,0,0,0,1,0,0h-13.81a0,0,0,0,1,0,0v-40.14A6.19,6.19,0,0,1,2017.71,1347.9Z"/><rect class="cls-18" x="1953.35" y="1418.44" width="41.4" height="15.46" rx="3.15"/><path class="cls-17" d="M1994.78,1421.66v4.58h-41.4v-4.58a3.14,3.14,0,0,1,3.15-3.15h35.1A3.14,3.14,0,0,1,1994.78,1421.66Z" transform="translate(-0.03 -0.07)"/><polygon class="cls-13" points="1396.25 675.63 1396.13 945.57 1703.53 675.63 1396.25 675.63"/><path class="cls-43" d="M1394.57,1043.53l432.89-367.91h29.75v41.8l-461.09,425.73S1389.63,1038.59,1394.57,1043.53Z" transform="translate(-0.03 -0.07)"/></svg>