<svg width="52" height="51" viewBox="0 0 52 51" fill="none" xmlns="http://www.w3.org/2000/svg">
<path d="M14.2036 48.095L18.4326 43.9871C18.4326 43.9871 26.7075 43.1005 30.6411 40.686C34.5746 38.2715 34.0633 37.3288 34.0633 37.3288C37.2521 35.8245 36.1971 32.8131 36.1971 32.8131C39.3238 30.499 37.4708 29.4292 37.4708 29.4292C40.5975 25.6966 37.2403 24.1924 36.5458 22.9955C35.8513 21.7986 29.6008 22.5138 27.8365 22.9955C26.0721 23.4772 14.8981 25.9863 13.5091 26.796C12.1201 27.6058 3.83038 36.519 3.83038 36.519L14.2036 48.095Z" fill="#FFC9B0"/>
<path d="M14.2036 48.3903C14.1636 48.3886 14.1244 48.3788 14.0884 48.3616C14.0523 48.3443 14.0201 48.3199 13.9938 48.2898L3.61172 36.7227C3.56188 36.6682 3.53424 36.597 3.53424 36.5232C3.53424 36.4494 3.56188 36.3782 3.61172 36.3237C3.95159 35.9573 11.9487 27.3691 13.3643 26.5446C14.3425 25.9742 19.5232 24.7063 24.7452 23.4562C26.1727 23.1134 27.2986 22.8445 27.7597 22.7174C29.0659 22.3598 35.9341 21.3521 36.8029 22.8534C36.9985 23.1318 37.2234 23.3884 37.4738 23.6188C38.585 24.73 40.2488 26.3938 37.8875 29.3935C38.1385 29.6413 38.2899 29.9725 38.3131 30.3244C38.3574 31.1164 37.7605 31.9942 36.5399 32.9369C36.7143 33.6698 37.0601 36.1228 34.3855 37.5058C34.3589 38.0201 33.7944 39.0869 30.8007 40.9429C27.0445 43.2628 19.5705 44.1642 18.5686 44.2765L14.4134 48.3105C14.3567 48.3637 14.2813 48.3923 14.2036 48.3903V48.3903ZM4.23234 36.5217L14.2272 47.6574L18.2347 43.7652C18.2823 43.72 18.3436 43.6919 18.409 43.6854C18.4918 43.6854 26.6632 42.7988 30.4963 40.4346C33.8062 38.3895 33.8033 37.5088 33.7974 37.4379C33.7699 37.3682 33.7699 37.2907 33.7973 37.2211C33.8247 37.1514 33.8776 37.0947 33.9451 37.0625C36.8473 35.6913 35.9666 33.0226 35.9282 32.9103C35.9076 32.8509 35.9066 32.7865 35.9252 32.7264C35.9438 32.6663 35.9811 32.6138 36.0316 32.5764C37.4708 31.5095 37.7486 30.7825 37.728 30.3599C37.7179 30.224 37.6767 30.0923 37.6075 29.9749C37.5383 29.8575 37.443 29.7577 37.329 29.6831C37.2925 29.6611 37.2612 29.6315 37.2372 29.5963C37.2133 29.5611 37.1972 29.5212 37.1901 29.4792C37.1825 29.4372 37.1842 29.394 37.1949 29.3527C37.2056 29.3114 37.2251 29.2729 37.2522 29.2398C39.5396 26.5091 38.1653 25.1349 37.063 24.0296C36.7725 23.7665 36.5155 23.4687 36.2976 23.143C35.7834 22.2564 30.0914 22.6819 27.9222 23.2789C27.4523 23.409 26.3204 23.6779 24.89 24.0207C21.0481 24.9398 14.6528 26.4736 13.6598 27.047C12.6136 27.6617 7.13447 33.3979 4.23234 36.5217V36.5217Z" fill="#093F68"/>
<path d="M41.8625 28.9209C42.2495 29.2138 42.7075 29.3984 43.1894 29.4558C43.4305 29.4819 43.6743 29.4465 43.8981 29.353C44.1218 29.2595 44.3183 29.1108 44.4691 28.9209C44.6892 28.5433 44.7824 28.1052 44.735 27.6707C44.6755 25.9567 44.1202 24.2967 43.1362 22.892C42.0516 21.3552 38.6323 20.643 38.7032 23.291C38.7239 25.1794 40.3553 27.8776 41.8625 28.9209Z" fill="#FFC9B0"/>
<path d="M43.3195 29.7573H43.1687C42.6314 29.6991 42.1203 29.4947 41.6911 29.1662C40.1661 28.1112 38.4402 25.3775 38.39 23.2999C38.3604 21.9552 39.1436 21.4972 39.6135 21.3405C40.7956 20.9534 42.5895 21.6124 43.3726 22.7266C44.3899 24.1771 44.9648 25.8914 45.0276 27.662C45.081 28.1618 44.9689 28.6653 44.7085 29.0953C44.5453 29.3071 44.3345 29.4775 44.0932 29.5925C43.8518 29.7075 43.5867 29.764 43.3195 29.7573V29.7573ZM40.3641 21.8163C40.1718 21.8139 39.9803 21.8418 39.7967 21.8991C39.2411 22.0823 38.9663 22.5493 38.981 23.2851C39.0165 25.1618 40.6478 27.7181 42.025 28.6786C42.3689 28.9421 42.7771 29.1084 43.2071 29.1603C43.3974 29.1822 43.5902 29.1561 43.7677 29.0843C43.9453 29.0126 44.1021 28.8975 44.2238 28.7495C44.4032 28.4234 44.4765 28.0494 44.4336 27.6797C44.3772 26.0245 43.8424 24.4211 42.8939 23.0635C42.5874 22.6858 42.203 22.3788 41.7669 22.1636C41.3307 21.9483 40.8532 21.8299 40.3671 21.8163H40.3641Z" fill="#093F68"/>
<path d="M48.8991 0.295654H16.8102C15.524 0.295654 14.4814 1.33829 14.4814 2.62445V22.1118C14.4814 23.398 15.524 24.4406 16.8102 24.4406H48.8991C50.1852 24.4406 51.2279 23.398 51.2279 22.1118V2.62445C51.2279 1.33829 50.1852 0.295654 48.8991 0.295654Z" fill="#68E1FD"/>
<path d="M48.8991 24.7331H16.8131C16.1168 24.7331 15.449 24.4567 14.9564 23.9646C14.4638 23.4726 14.1866 22.8051 14.1859 22.1088V2.62433C14.1866 1.92804 14.4638 1.26054 14.9564 0.768469C15.449 0.276397 16.1168 -4.40508e-07 16.8131 0H48.8991C49.5948 0.000782209 50.2619 0.277526 50.7539 0.769513C51.2459 1.2615 51.5226 1.92855 51.5234 2.62433V22.1088C51.5226 22.8045 51.2459 23.4716 50.7539 23.9636C50.2619 24.4556 49.5948 24.7323 48.8991 24.7331ZM16.8131 0.591064C16.2736 0.591064 15.7561 0.805187 15.3744 1.18641C14.9926 1.56764 14.7777 2.0848 14.7769 2.62433V22.1088C14.7777 22.6483 14.9926 23.1655 15.3744 23.5467C15.7561 23.9279 16.2736 24.142 16.8131 24.142H48.8991C49.4381 24.1412 49.9548 23.9268 50.3359 23.5456C50.7171 23.1645 50.9316 22.6478 50.9323 22.1088V2.62433C50.9316 2.08531 50.7171 1.5686 50.3359 1.18746C49.9548 0.806316 49.4381 0.591846 48.8991 0.591064H16.8131Z" fill="#093F68"/>
<path d="M51.2279 5.15991H14.4814V10.1101H51.2279V5.15991Z" fill="white"/>
<path d="M51.2279 10.4205H14.4814C14.403 10.4205 14.3278 10.3894 14.2724 10.3339C14.217 10.2785 14.1859 10.2034 14.1859 10.125V5.16003C14.1859 5.08165 14.217 5.00648 14.2724 4.95106C14.3278 4.89564 14.403 4.8645 14.4814 4.8645H51.2279C51.3062 4.8645 51.3814 4.89564 51.4368 4.95106C51.4923 5.00648 51.5234 5.08165 51.5234 5.16003V10.125C51.5234 10.2034 51.4923 10.2785 51.4368 10.3339C51.3814 10.3894 51.3062 10.4205 51.2279 10.4205ZM14.7769 9.82944H50.9323V5.45557H14.7769V9.82944Z" fill="#093F68"/>
<path d="M40.1542 21.828C39.4569 21.828 38.7753 21.6212 38.1955 21.2338C37.6157 20.8464 37.1638 20.2958 36.8969 19.6515C36.6301 19.0073 36.5602 18.2984 36.6963 17.6145C36.8323 16.9306 37.1681 16.3023 37.6612 15.8093C38.1543 15.3162 38.7825 14.9804 39.4664 14.8444C40.1503 14.7083 40.8592 14.7781 41.5035 15.045C42.1477 15.3118 42.6983 15.7637 43.0858 16.3435C43.4732 16.9233 43.6799 17.605 43.6799 18.3023C43.6792 19.2371 43.3074 20.1335 42.6464 20.7945C41.9854 21.4555 41.0891 21.8272 40.1542 21.828V21.828ZM40.1542 15.3677C39.5738 15.3677 39.0064 15.5398 38.5238 15.8623C38.0412 16.1847 37.6651 16.643 37.443 17.1793C37.2209 17.7155 37.1628 18.3056 37.276 18.8748C37.3892 19.4441 37.6687 19.967 38.0791 20.3774C38.4896 20.7878 39.0125 21.0673 39.5817 21.1806C40.151 21.2938 40.741 21.2357 41.2773 21.0136C41.8135 20.7914 42.2718 20.4153 42.5943 19.9327C42.9168 19.4501 43.0889 18.8827 43.0889 18.3023C43.0873 17.5245 42.7776 16.7789 42.2276 16.2289C41.6776 15.6789 40.9321 15.3692 40.1542 15.3677V15.3677Z" fill="#093F68"/>
<path d="M45.202 21.828C44.5047 21.828 43.823 21.6212 43.2432 21.2338C42.6634 20.8464 42.2115 20.2958 41.9446 19.6515C41.6778 19.0073 41.608 18.2984 41.744 17.6145C41.8801 16.9306 42.2158 16.3023 42.7089 15.8093C43.202 15.3162 43.8302 14.9804 44.5141 14.8444C45.1981 14.7083 45.907 14.7781 46.5512 15.045C47.1954 15.3118 47.7461 15.7637 48.1335 16.3435C48.5209 16.9233 48.7277 17.605 48.7277 18.3023C48.7269 19.2371 48.3552 20.1335 47.6942 20.7945C47.0331 21.4555 46.1368 21.8272 45.202 21.828V21.828ZM45.202 15.3677C44.6216 15.3677 44.0542 15.5398 43.5716 15.8623C43.089 16.1847 42.7128 16.643 42.4907 17.1793C42.2686 17.7155 42.2105 18.3056 42.3237 18.8748C42.437 19.4441 42.7165 19.967 43.1269 20.3774C43.5373 20.7878 44.0602 21.0673 44.6294 21.1806C45.1987 21.2938 45.7888 21.2357 46.325 21.0136C46.8612 20.7914 47.3196 20.4153 47.642 19.9327C47.9645 19.4501 48.1366 18.8827 48.1366 18.3023C48.1358 17.5242 47.8264 16.7783 47.2762 16.2281C46.726 15.6779 45.98 15.3685 45.202 15.3677V15.3677Z" fill="#093F68"/>
<path d="M21.0747 12.6636H17.215C17.1366 12.6636 17.0615 12.6324 17.0061 12.577C16.9506 12.5216 16.9195 12.4464 16.9195 12.368C16.9195 12.2897 16.9506 12.2145 17.0061 12.1591C17.0615 12.1036 17.1366 12.0725 17.215 12.0725H21.0747C21.1531 12.0725 21.2282 12.1036 21.2836 12.1591C21.3391 12.2145 21.3702 12.2897 21.3702 12.368C21.3702 12.4464 21.3391 12.5216 21.2836 12.577C21.2282 12.6324 21.1531 12.6636 21.0747 12.6636V12.6636Z" fill="#093F68"/>
<path d="M26.6661 12.6636H22.7976C22.7192 12.6636 22.6441 12.6324 22.5886 12.577C22.5332 12.5216 22.5021 12.4464 22.5021 12.368C22.5021 12.2897 22.5332 12.2145 22.5886 12.1591C22.6441 12.1036 22.7192 12.0725 22.7976 12.0725H26.6573C26.7356 12.0725 26.8108 12.1036 26.8662 12.1591C26.9217 12.2145 26.9528 12.2897 26.9528 12.368C26.9528 12.4464 26.9217 12.5216 26.8662 12.577C26.8108 12.6324 26.7356 12.6636 26.6573 12.6636H26.6661Z" fill="#093F68"/>
<path d="M32.2546 12.6636H28.4127C28.3343 12.6636 28.2592 12.6324 28.2037 12.577C28.1483 12.5216 28.1172 12.4464 28.1172 12.368C28.1172 12.2897 28.1483 12.2145 28.2037 12.1591C28.2592 12.1036 28.3343 12.0725 28.4127 12.0725H32.2546C32.333 12.0725 32.4082 12.1036 32.4636 12.1591C32.519 12.2145 32.5502 12.2897 32.5502 12.368C32.5502 12.4464 32.519 12.5216 32.4636 12.577C32.4082 12.6324 32.333 12.6636 32.2546 12.6636Z" fill="#093F68"/>
<path d="M37.8491 12.6636H33.9894C33.9111 12.6636 33.8359 12.6324 33.7805 12.577C33.725 12.5216 33.6939 12.4464 33.6939 12.368C33.6939 12.2897 33.725 12.2145 33.7805 12.1591C33.8359 12.1036 33.9111 12.0725 33.9894 12.0725H37.8491C37.9275 12.0725 38.0026 12.1036 38.0581 12.1591C38.1135 12.2145 38.1446 12.2897 38.1446 12.368C38.1446 12.4464 38.1135 12.5216 38.0581 12.577C38.0026 12.6324 37.9275 12.6636 37.8491 12.6636Z" fill="#093F68"/>
<path d="M9.12036 31.0871C9.12036 31.0871 10.7074 26.329 12.4569 23.6485C14.2065 20.968 19.5142 16.8188 21.4027 16.2602C23.2911 15.7017 32.1335 13.2517 33.5195 14.6407C34.9055 16.0297 33.4102 19.0412 30.8597 20.1967C28.3093 21.3522 24.358 22.165 24.358 22.165C24.358 22.165 26.2908 27.0265 21.4559 31.0782" fill="#FFC9B0"/>
<path d="M9.11747 31.3824C9.08639 31.3818 9.05554 31.3769 9.02585 31.3677C8.98893 31.3553 8.9548 31.3358 8.92544 31.3102C8.89608 31.2847 8.87206 31.2536 8.85476 31.2187C8.83746 31.1838 8.82722 31.1459 8.82463 31.107C8.82204 31.0682 8.82715 31.0292 8.83967 30.9923C8.90469 30.7973 10.4592 26.1692 12.2087 23.4888C13.9583 20.8083 19.3015 16.5704 21.32 15.9793C23.1198 15.4473 32.1749 12.8762 33.7323 14.4307C33.9951 14.7104 34.1845 15.0509 34.2835 15.4217C34.3825 15.7925 34.3881 16.1821 34.2998 16.5556C34.0279 18.1042 32.6684 19.706 30.9957 20.4684C28.8413 21.4496 25.753 22.1707 24.7541 22.3894C25.088 23.5715 25.8741 27.7769 21.6599 31.3085C21.5995 31.3587 21.5217 31.3828 21.4435 31.3756C21.3654 31.3684 21.2933 31.3305 21.2432 31.2701C21.193 31.2098 21.1689 31.132 21.1761 31.0538C21.1833 30.9757 21.2212 30.9036 21.2816 30.8534C23.2232 29.228 24.2871 27.2864 24.4408 25.0846C24.5193 24.1352 24.4027 23.1797 24.098 22.2771C24.082 22.2369 24.075 22.1937 24.0775 22.1505C24.08 22.1073 24.092 22.0652 24.1126 22.0272C24.1332 21.9891 24.1618 21.956 24.1966 21.9303C24.2314 21.9045 24.2713 21.8867 24.3137 21.8781C24.3522 21.8781 28.265 21.0624 30.7504 19.9306C32.2576 19.2479 33.4811 17.8175 33.7264 16.4551C33.794 16.1753 33.7925 15.8832 33.722 15.6042C33.6514 15.3251 33.514 15.0674 33.3216 14.8533C32.299 13.8367 25.682 15.3084 21.4855 16.5467C19.7448 17.0609 14.4784 21.092 12.7052 23.8139C10.9971 26.4323 9.41596 31.1371 9.39822 31.1844C9.3779 31.2426 9.33991 31.2929 9.28957 31.3284C9.23924 31.3639 9.17907 31.3828 9.11747 31.3824V31.3824Z" fill="#093F68"/>
<path d="M38.7919 24.2839H30.2214C28.9043 24.2839 27.8365 25.3517 27.8365 26.6689V26.9851C27.8365 28.3023 28.9043 29.37 30.2214 29.37H38.7919C40.109 29.37 41.1768 28.3023 41.1768 26.9851V26.6689C41.1768 25.3517 40.109 24.2839 38.7919 24.2839Z" fill="#FFC9B0"/>
<path d="M38.7919 29.6656H30.2214C29.5108 29.6649 28.8294 29.3822 28.3269 28.8797C27.8244 28.3772 27.5417 27.6958 27.541 26.9852V26.6749C27.5417 25.9642 27.8244 25.2829 28.3269 24.7803C28.8294 24.2778 29.5108 23.9952 30.2214 23.9944H38.7919C39.5023 23.9952 40.1833 24.2779 40.6853 24.7805C41.1874 25.2831 41.4694 25.9645 41.4694 26.6749V26.9911C41.4678 27.7005 41.1851 28.3803 40.6833 28.8816C40.1814 29.3829 39.5012 29.6649 38.7919 29.6656V29.6656ZM30.2214 24.5795C29.6675 24.5803 29.1365 24.8007 28.7449 25.1924C28.3532 25.584 28.1328 26.115 28.132 26.669V26.9852C28.1328 27.5391 28.3532 28.0701 28.7449 28.4617C29.1365 28.8534 29.6675 29.0738 30.2214 29.0746H38.7919C39.3455 29.0738 39.8762 28.8533 40.2674 28.4616C40.6586 28.0698 40.8783 27.5388 40.8783 26.9852V26.6749C40.8783 26.1212 40.6586 25.5902 40.2674 25.1985C39.8762 24.8067 39.3455 24.5862 38.7919 24.5854L30.2214 24.5795Z" fill="#093F68"/>
<path d="M38.3486 29.4617H29.7781C28.461 29.4617 27.3932 30.5294 27.3932 31.8466V32.1628C27.3932 33.48 28.461 34.5478 29.7781 34.5478H38.3486C39.6657 34.5478 40.7335 33.48 40.7335 32.1628V31.8466C40.7335 30.5294 39.6657 29.4617 38.3486 29.4617Z" fill="#FFC9B0"/>
<path d="M38.3486 34.8432H29.7781C29.0675 34.8424 28.3861 34.5597 27.8836 34.0572C27.3811 33.5547 27.0984 32.8734 27.0977 32.1627V31.8465C27.0984 31.1358 27.3811 30.4545 27.8836 29.952C28.3861 29.4495 29.0675 29.1668 29.7781 29.166H38.3486C39.059 29.1668 39.74 29.4496 40.242 29.9522C40.7441 30.4548 41.0261 31.1361 41.0261 31.8465V32.1627C41.0261 32.8731 40.7441 33.5544 40.242 34.0571C39.74 34.5597 39.059 34.8424 38.3486 34.8432ZM29.7781 29.7571C29.2242 29.7579 28.6932 29.9782 28.3016 30.3699C27.9099 30.7616 27.6895 31.2926 27.6887 31.8465V32.1627C27.6895 32.7166 27.9099 33.2476 28.3016 33.6393C28.6932 34.031 29.2242 34.2513 29.7781 34.2521H38.3486C38.9022 34.2513 39.4329 34.0309 39.8241 33.6391C40.2153 33.2474 40.435 32.7164 40.435 32.1627V31.8465C40.435 31.2929 40.2153 30.7619 39.8241 30.3701C39.4329 29.9783 38.9022 29.7579 38.3486 29.7571H29.7781Z" fill="#093F68"/>
<path d="M37.4797 34.5476H28.9092C27.5921 34.5476 26.5243 35.6154 26.5243 36.9326V37.2488C26.5243 38.5659 27.5921 39.6337 28.9092 39.6337H37.4797C38.7968 39.6337 39.8646 38.5659 39.8646 37.2488V36.9326C39.8646 35.6154 38.7968 34.5476 37.4797 34.5476Z" fill="#FFC9B0"/>
<path d="M37.4797 39.9294H28.9093C28.1986 39.9286 27.5173 39.6459 27.0148 39.1434C26.5123 38.6409 26.2296 37.9596 26.2288 37.2489V36.9327C26.2296 36.222 26.5123 35.5407 27.0148 35.0382C27.5173 34.5356 28.1986 34.253 28.9093 34.2522H37.4797C38.1904 34.253 38.8717 34.5356 39.3742 35.0382C39.8768 35.5407 40.1594 36.222 40.1602 36.9327V37.2489C40.1594 37.9596 39.8768 38.6409 39.3742 39.1434C38.8717 39.6459 38.1904 39.9286 37.4797 39.9294V39.9294ZM28.9093 34.8433C28.3554 34.844 27.8244 35.0644 27.4327 35.4561C27.041 35.8478 26.8207 36.3788 26.8199 36.9327V37.2489C26.8207 37.8028 27.041 38.3338 27.4327 38.7255C27.8244 39.1171 28.3554 39.3375 28.9093 39.3383H37.4797C38.0336 39.3375 38.5646 39.1171 38.9563 38.7255C39.348 38.3338 39.5684 37.8028 39.5691 37.2489V36.9327C39.5684 36.3788 39.348 35.8478 38.9563 35.4561C38.5646 35.0644 38.0336 34.844 37.4797 34.8433H28.9093Z" fill="#093F68"/>
<path d="M17.9598 44.8266L5.46177 33.0142L0.278137 38.5022L12.4393 50.6899L17.9598 44.8266Z" fill="#F56132"/>
<path d="M12.454 50.9852C12.4151 50.9854 12.3766 50.978 12.3406 50.9633C12.3046 50.9486 12.2718 50.9269 12.2442 50.8995L0.0830418 38.7088C0.0297751 38.6537 0 38.58 0 38.5034C0 38.4268 0.0297751 38.3531 0.0830418 38.298L5.26668 32.8129C5.2932 32.7843 5.32514 32.7612 5.36065 32.745C5.39616 32.7287 5.43453 32.7197 5.47355 32.7184C5.55127 32.7163 5.62665 32.745 5.68338 32.7982L18.1844 44.6194C18.2394 44.6748 18.2703 44.7497 18.2703 44.8278C18.2703 44.9059 18.2394 44.9808 18.1844 45.0361L12.652 50.9084C12.6249 50.9368 12.5924 50.9596 12.5563 50.9753C12.5203 50.9911 12.4815 50.9994 12.4422 51L12.454 50.9852ZM0.688884 38.496L12.4333 50.2671L17.5431 44.8381L5.47355 33.4336L0.688884 38.496Z" fill="#093F68"/>
</svg>
