<svg width="635" height="718" viewBox="0 0 635 718" fill="none" xmlns="http://www.w3.org/2000/svg">
<path d="M70.6601 456.165H29.2187V473.684H70.6601V456.165Z" fill="#EBEBEB"/>
<path d="M47.5449 478.256H6.10353V495.775H47.5449V478.256Z" fill="#EBEBEB"/>
<path d="M371.298 235.582H329.857V253.101H371.298V235.582Z" fill="#EBEBEB"/>
<path d="M348.183 257.673H306.741V275.192H348.183V257.673Z" fill="#EBEBEB"/>
<path d="M325.162 235.582H283.72V253.101H325.162V235.582Z" fill="#EBEBEB"/>
<path d="M627.912 478.256H586.471V495.775H627.912V478.256Z" fill="#EBEBEB"/>
<path d="M604.781 81.8831H563.34V99.4026H604.781V81.8831Z" fill="#EBEBEB"/>
<path d="M627.912 103.974H586.471V121.494H627.912V103.974Z" fill="#EBEBEB"/>
<path d="M47.5449 81.8831H6.10353V99.4026H47.5449V81.8831Z" fill="#EBEBEB"/>
<path d="M628.084 207.698H432.74V221.084H628.084V207.698Z" fill="#C7C7C7"/>
<path d="M599.886 159.34L598.427 159.629L607.62 206.12L609.079 205.831L599.886 159.34Z" fill="#EBEBEB"/>
<path d="M611.411 159.005L600.317 207.154L601.766 207.488L612.86 159.339L611.411 159.005Z" fill="#EBEBEB"/>
<path d="M616.719 159.921L602.255 207.101L603.677 207.537L618.14 160.357L616.719 159.921Z" fill="#EBEBEB"/>
<path d="M600.781 160.938L599.363 161.386L613.538 206.279L614.955 205.831L600.781 160.938Z" fill="#EBEBEB"/>
<path d="M608.129 160.805L606.642 160.835L607.596 208.525L609.082 208.495L608.129 160.805Z" fill="#EBEBEB"/>
<path d="M615.799 207.698H599.147L602.449 186.844H612.497L615.799 207.698Z" fill="#A6A6A6"/>
<path d="M539.458 147.499H498.736V207.698H539.458V147.499Z" fill="#DBDBDB"/>
<path d="M527.407 135.334H510.803V147.499H527.407V135.334Z" fill="#A6A6A6"/>
<path d="M533.667 162.764H504.417V190.757H533.667V162.764Z" fill="#EBEBEB"/>
<path d="M493.916 162.764H464.165V207.698H493.916V162.764Z" fill="#EBEBEB"/>
<path d="M487.343 146.168H470.739V158.333H487.343V146.168Z" fill="#A6A6A6"/>
<path d="M472.961 162.764H485.152V158.333H472.961V162.764Z" fill="#EBEBEB"/>
<path d="M589.789 139.655H554.873V207.698H589.789V139.655Z" fill="#DBDBDB"/>
<path d="M579.444 129.228H565.202V139.655H579.444V129.228Z" fill="#C7C7C7"/>
<path d="M589.789 165.598H554.873V189.599H589.789V165.598Z" fill="#C7C7C7"/>
<path d="M276.49 214.242C283.128 214.242 288.509 208.859 288.509 202.218C288.509 195.577 283.128 190.194 276.49 190.194C269.852 190.194 264.471 195.577 264.471 202.218C264.471 208.859 269.852 214.242 276.49 214.242Z" fill="#EBEBEB"/>
<path d="M276.49 143.835V0" stroke="#C7C7C7" stroke-miterlimit="10"/>
<path d="M283.845 135.522H269.15V151.429H283.845V135.522Z" fill="#DBDBDB"/>
<path d="M306.569 202.218H246.426C247.647 179.328 258.555 142.724 276.49 142.724C294.425 142.724 305.364 179.328 306.569 202.218Z" fill="#DBDBDB"/>
<path d="M357.51 174.944C364.148 174.944 369.529 169.561 369.529 162.92C369.529 156.28 364.148 150.896 357.51 150.896C350.872 150.896 345.491 156.28 345.491 162.92C345.491 169.561 350.872 174.944 357.51 174.944Z" fill="#EBEBEB"/>
<path d="M357.51 104.538V0" stroke="#C7C7C7" stroke-miterlimit="10"/>
<path d="M364.866 96.2397H350.17V112.147H364.866V96.2397Z" fill="#DBDBDB"/>
<path d="M387.59 162.92H327.446C328.667 140.046 339.575 103.426 357.526 103.426C375.477 103.426 386.385 140.046 387.59 162.92Z" fill="#DBDBDB"/>
<path d="M317.008 717.016C416.121 717.016 496.467 708.92 496.467 698.933C496.467 688.946 416.121 680.85 317.008 680.85C217.895 680.85 137.548 688.946 137.548 698.933C137.548 708.92 217.895 717.016 317.008 717.016Z" fill="#EBEBEB"/>
<path d="M90.2853 140.986H27.4972V341.278H90.2853V140.986Z" fill="white"/>
<path d="M90.2853 341.309L27.4815 341.638H27.1216V341.309L26.7147 140.986V140.203H27.4815L90.2696 140.328H90.9269V140.986L90.6922 241.312L90.2853 341.309ZM90.2853 341.309L89.8627 240.983L89.628 141.017L90.2853 141.675L27.4815 141.769L28.264 140.986L27.8728 341.309L27.4972 340.949L90.2853 341.309Z" fill="#DBDBDB"/>
<path d="M94.3699 130.042H23.3969V140.986H94.3699V130.042Z" fill="#455A64"/>
<path d="M101.428 119.114H16.3387V130.058H101.428V119.114Z" fill="#37474F"/>
<path d="M58.8912 86.533C54.7672 86.5309 50.6831 87.3417 46.8724 88.9192C43.0617 90.4966 39.599 92.8097 36.6822 95.7262C33.7653 98.6428 31.4514 102.106 29.8727 105.917C28.2941 109.729 27.4815 113.814 27.4815 117.94V119.114H90.2696V117.94C90.2696 109.613 86.9642 101.627 81.08 95.7373C75.1959 89.8479 67.2147 86.5371 58.8912 86.533V86.533Z" fill="#455A64"/>
<path d="M23.4125 352.222H94.3856V341.278H23.4125V352.222Z" fill="#455A64"/>
<path d="M16.3387 363.15H101.428V352.206H16.3387V363.15Z" fill="#37474F"/>
<path d="M58.8912 395.731C67.2174 395.731 75.2026 392.422 81.0902 386.532C86.9777 380.642 90.2853 372.654 90.2853 364.324V363.228H27.4815V364.387C27.4981 372.708 30.8151 380.683 36.7043 386.56C42.5934 392.437 50.5731 395.735 58.8912 395.731V395.731Z" fill="#455A64"/>
<path d="M66.7319 140.986L27.4972 157.347V140.986H66.7319Z" fill="#37474F"/>
<path d="M90.2853 166.678L27.4972 192.856V173.567L90.2853 147.405V166.678Z" fill="#FF2727"/>
<path d="M90.2853 202.187L27.4972 228.348V209.075L90.2853 182.898V202.187Z" fill="#37474F"/>
<path d="M90.2853 237.695L27.4972 263.857V244.584L90.2853 218.407V237.695Z" fill="#FF2727"/>
<path d="M90.2853 273.204L27.4972 299.366V280.077L90.2853 253.915V273.204Z" fill="#37474F"/>
<path d="M90.2853 308.697L27.4972 334.875V315.586L90.2853 289.408V308.697Z" fill="#FF2727"/>
<path d="M90.2696 324.917V341.278H51.0192L90.2696 324.917Z" fill="#37474F"/>
<path d="M39.0469 154.231H33.3347V328.033H39.0469V154.231Z" fill="white"/>
<path d="M489.644 412.812L489.237 414.378C489.237 414.503 489.159 414.644 489.127 414.8C488.893 415.693 488.58 416.883 488.204 418.354C488.11 418.715 488.001 419.106 487.907 419.497L487.406 421.376C487.265 421.924 487.124 422.503 486.968 423.098C486.122 426.23 485.121 430.144 483.963 434.59C483.853 435.028 483.744 435.467 483.618 435.921C480.254 448.837 475.793 466.326 470.535 486.272C470.206 487.54 469.878 488.824 469.533 490.108L468.673 493.458C468.328 494.758 468 496.057 467.655 497.357C466.482 501.866 465.292 506.469 464.087 511.134C463.44 513.597 462.799 516.071 462.162 518.555C457.186 537.797 451.943 558.088 446.81 578.05C446.058 580.946 445.323 583.827 444.572 586.708L440.064 604.258C436.793 616.956 433.663 629.215 430.753 640.628C428.812 648.269 426.981 655.533 425.275 662.297H315.02C327.196 616.784 347.009 550.667 363.16 497.905C377.855 449.761 389.53 412.765 389.53 412.765L489.644 412.812Z" fill="#37474F"/>
<path d="M468.485 442.497C465.997 451.311 463.539 460.126 460.973 468.925C455.892 486.334 450.769 503.739 445.604 521.139C443.226 529.217 440.831 537.286 438.421 545.343C433.757 561 429.062 576.656 424.336 592.313C421.091 603.178 417.836 614.044 414.57 624.909C410.835 637.361 407.09 649.819 403.334 662.281H400C401.941 656.097 403.897 649.928 405.744 643.76C411.618 624.241 417.507 604.728 423.413 585.22C427.816 570.67 432.224 556.131 436.637 541.602C437.138 540.036 437.639 538.329 438.124 536.701C442.819 521.295 447.514 505.91 452.209 490.546C454.859 481.966 457.514 473.387 460.175 464.807C462.804 456.415 465.793 448.102 468.172 439.647C469.205 436.234 469.721 438.113 468.485 442.497Z" fill="#263238"/>
<path d="M400.892 412.812C407.778 466.56 421.096 567.466 430.753 640.644C453.336 551.982 489.644 412.812 489.644 412.812H400.892Z" fill="#263238"/>
<path d="M542.823 662.265H441.535C441.113 644.135 440.581 623.719 440.064 604.227C439.454 581.76 438.859 560.499 438.421 545.328C438.327 542.196 438.249 539.3 438.171 536.717C437.967 529.797 437.826 525.068 437.779 523.377C437.779 522.939 437.779 522.704 437.779 522.704L436.042 521.655C431.879 519.15 428.108 517.037 424.774 515.267L423.679 514.704C419.485 512.512 416.042 510.899 413.553 509.788C410.564 508.473 408.858 507.878 408.858 507.878L408.529 506.938C407.622 504.261 406.777 501.49 405.994 498.687C395.039 460.736 392.723 412.812 392.723 412.812H529.145C529.145 412.812 531.461 451.17 534.278 500.926C537.251 552.545 540.804 616.408 542.823 662.265Z" fill="#37474F"/>
<path d="M528.487 662.265H526.719C524.695 622.091 523.036 581.906 521.742 541.711C520.474 504.433 519.504 467.156 518.393 429.878C518.393 429.345 519.191 429.392 519.207 429.878C521.382 495.807 523.683 561.736 526.641 627.634C527.094 636.495 527.72 648.331 528.487 662.265Z" fill="#263238"/>
<path d="M403.991 505.013C415.734 509.922 427.029 515.841 437.748 522.704C438.171 522.97 437.858 523.628 437.404 523.409C426.011 517.867 414.367 512.543 403.302 506.375C403.142 506.272 403.026 506.114 402.976 505.931C402.926 505.747 402.946 505.552 403.032 505.383C403.117 505.213 403.263 505.081 403.44 505.013C403.617 504.945 403.814 504.945 403.991 505.013V505.013Z" fill="#263238"/>
<path d="M403.334 464.353C404.1 468.564 405.118 472.713 406.025 476.878C406.886 480.792 407.512 484.706 408.545 488.667C409.394 492.415 411.294 495.842 414.023 498.546C415.588 499.971 417.262 501.224 418.89 502.539C419.782 503.243 420.736 503.917 421.644 504.637C421.535 504.089 421.441 503.51 421.331 502.946C421.049 501.38 420.783 499.815 420.517 498.171C419.923 494.632 419.359 491.078 418.811 487.54C417.747 480.573 416.777 473.449 415.322 466.623C415.313 466.569 415.324 466.514 415.354 466.468C415.384 466.422 415.43 466.388 415.483 466.375C415.536 466.361 415.592 466.368 415.64 466.393C415.689 466.419 415.726 466.462 415.744 466.513C417.481 473.355 419.406 480.119 420.909 487.023C421.66 490.405 424.305 507.095 424.414 508.269C424.524 509.443 424.633 510.711 424.68 511.948C424.845 513.19 424.845 514.448 424.68 515.69C424.68 516.003 424.242 515.941 424.117 515.69C423.612 514.529 423.254 513.308 423.053 512.058C422.755 510.868 422.474 509.663 422.27 508.457C422.192 508.019 422.129 507.565 422.067 507.126C420.423 506.124 418.937 504.793 417.372 503.682C415.807 502.57 414.023 501.318 412.458 500.003C409.564 497.543 407.476 494.27 406.464 490.609C405.452 486.678 404.798 482.664 404.507 478.616C403.975 473.919 403.584 469.097 402.942 464.369C402.848 464.196 403.271 464.071 403.334 464.353Z" fill="#263238"/>
<path d="M432.912 297.973C421.237 335.36 392.613 415.223 372.628 429.486C358.168 439.819 286.741 430.598 263.625 424.962C241.324 419.513 266.442 356.731 279.651 359.549C300.998 364.089 333.597 371.135 340.013 368.458C344.505 366.579 384.021 322.851 413.913 286.7C434.54 261.775 438.546 279.905 432.912 297.973Z" fill="#D3766A"/>
<path d="M370.218 332.792L412.473 379.198C412.473 379.198 429.234 337.207 437.607 305.754C445.98 274.3 440.737 254.228 417.497 278.527C394.257 302.826 370.218 332.792 370.218 332.792Z" fill="#DBDBDB"/>
<path d="M436.7 263.826L434.978 263.857L436.997 263.341L436.7 263.826Z" fill="#C7C7C7"/>
<path d="M437.513 305.754C429.172 337.207 412.473 379.198 412.473 379.198L384.46 348.433L434.274 267.724C442.615 268.163 443.257 284.32 437.513 305.754Z" fill="#C7C7C7"/>
<path d="M380.938 325.731C384.241 328.863 387.198 332.276 390.219 335.642C393.239 339.008 396.088 342.264 398.999 345.599C404.883 352.347 410.799 359.064 416.214 366.25C416.23 366.268 416.243 366.29 416.251 366.313C416.259 366.337 416.262 366.362 416.261 366.386C416.259 366.411 416.253 366.435 416.242 366.457C416.232 366.48 416.217 366.5 416.198 366.516C416.18 366.533 416.158 366.545 416.135 366.553C416.111 366.561 416.086 366.565 416.062 366.563C416.037 366.562 416.013 366.556 415.991 366.545C415.968 366.534 415.948 366.519 415.932 366.5C409.547 360.238 403.741 353.396 397.872 346.633C394.971 343.282 392.097 339.916 389.249 336.534C386.338 333.09 383.317 329.677 380.719 325.966C380.71 325.935 380.71 325.902 380.718 325.871C380.725 325.839 380.741 325.811 380.763 325.787C380.785 325.763 380.812 325.746 380.843 325.736C380.874 325.726 380.907 325.725 380.938 325.731Z" fill="#263238"/>
<path d="M242.717 418.824C254.548 424.742 283.485 427.372 290.7 425.337C297.915 423.302 304.05 374.219 298.525 368.786C293.001 363.353 251.684 346.507 238.491 349.341C225.298 352.175 230.463 412.687 242.717 418.824Z" fill="#D3766A"/>
<path d="M291.968 364.684C291.968 364.684 280.387 351.956 274.487 337.975C269.541 326.232 263.532 308.228 257.099 310.639C243.938 315.617 258.962 360.535 258.962 360.535C258.962 360.535 268.774 379.323 282.265 375.503C284.723 374.772 286.931 373.375 288.644 371.465C290.357 369.555 291.507 367.208 291.968 364.684V364.684Z" fill="#D3766A"/>
<path d="M259.713 349.138C260.089 356.152 254.329 356.089 254.329 356.089L215.627 360.895C215.627 360.895 185.532 356.747 185.688 348.73C185.985 334.906 248.648 343.329 254.282 343.157C257.303 342.985 259.541 346.006 259.713 349.138Z" fill="#D3766A"/>
<path d="M269.76 385.053C270.965 381.264 271.607 377.084 268.68 372.7C268.555 371.73 269.432 371.354 269.275 370.9C268.246 369.454 266.903 368.261 265.347 367.409C264.752 367.315 264.158 368.411 263.672 368.176C257.021 365.044 250.526 366.61 249.055 366.516C247.271 366.375 241.481 361.068 238.1 356.606C234.877 351.896 233.167 346.313 233.202 340.605C233.202 340.605 197.817 311.28 166.658 299.522L165.672 300.665L230.573 353.114C233.52 359.119 237.676 364.449 242.78 368.771C243.39 369.303 243.625 369.663 243.546 371.072C243.468 372.481 240.072 382.407 248.727 389.359C257.381 396.31 267.663 391.582 269.76 385.053ZM247.068 378.525C247.108 377.236 247.429 375.972 248.008 374.821C248.587 373.67 249.411 372.659 250.422 371.86C251.433 371.06 252.606 370.492 253.859 370.193C255.113 369.895 256.416 369.874 257.678 370.133C263.438 370.978 267.068 374.83 266.943 379.855C266.708 386.635 260.808 388.983 256.708 388.67C252.217 388.279 246.739 384.098 247.068 378.525Z" fill="#37474F"/>
<path d="M234.282 348.59L222.873 346.93L200.086 328.502L220.791 331.039C228.397 336.644 233.17 340.605 233.17 340.605C233.07 343.311 233.446 346.014 234.282 348.59V348.59Z" fill="#263238"/>
<path d="M167.894 300.775C170.789 301.965 173.606 303.296 176.423 304.642C179.24 305.988 181.995 307.445 184.733 308.932C190.211 311.907 195.584 315.069 200.853 318.42C206.096 321.817 211.276 325.308 216.253 329.066C217.489 330.005 218.757 330.913 219.977 331.9L223.64 334.796C224.86 335.767 226.05 336.785 227.239 337.802L230.792 340.84C225.909 336.957 221.026 333.011 215.955 329.457C210.885 325.903 205.767 322.302 200.509 318.968C195.25 315.633 189.914 312.423 184.499 309.37C179.084 306.317 173.544 303.421 167.894 300.775Z" fill="#455A64"/>
<path d="M246.379 340.104C251.982 339.791 259.776 340.714 261.043 341.983C262.311 343.251 266.708 352.316 275.41 352.942C278.197 353.175 280.994 352.622 283.483 351.346C285.973 350.071 288.055 348.123 289.495 345.724C292.015 341.716 293.908 342.859 296.835 342.687C300.757 342.261 304.417 340.51 307.211 337.724C309.95 334.796 307.571 331.461 304.175 334.859C302.908 336.277 301.285 337.331 299.475 337.912C297.665 338.493 295.732 338.579 293.877 338.162C289.871 337.567 288.885 328.424 278.07 326.843C267.256 325.261 261.841 333.857 260.855 334.843C259.869 335.83 259.416 335.877 258.633 335.751C252.019 334.664 245.252 334.957 238.757 336.612L156.689 321.598L156.469 323.164C185.704 339.133 230.995 346.82 230.995 346.82C235.322 343.07 240.688 340.727 246.379 340.104ZM266.427 338.898C266.469 337.609 266.792 336.345 267.373 335.194C267.954 334.043 268.78 333.032 269.792 332.233C270.803 331.434 271.977 330.865 273.232 330.567C274.486 330.269 275.79 330.248 277.053 330.506C282.812 331.352 286.443 335.203 286.318 340.229C286.083 347.008 280.183 349.357 276.083 349.028C271.623 348.683 266.114 344.441 266.427 338.898V338.898Z" fill="#455A64"/>
<path d="M223.843 338.82C223.707 338.372 223.442 337.974 223.08 337.677C222.719 337.38 222.277 337.197 221.811 337.152C221.345 337.106 220.877 337.2 220.464 337.421C220.052 337.642 219.714 337.981 219.495 338.394C219.275 338.808 219.183 339.277 219.23 339.743C219.277 340.208 219.461 340.65 219.759 341.011C220.058 341.371 220.456 341.636 220.904 341.77C221.353 341.904 221.831 341.902 222.278 341.763C222.875 341.579 223.374 341.166 223.667 340.615C223.961 340.063 224.024 339.418 223.843 338.82V338.82Z" fill="#C7C7C7"/>
<path d="M223.186 339.008C223.055 338.585 222.764 338.23 222.375 338.019C221.986 337.808 221.53 337.758 221.104 337.881C220.787 337.975 220.504 338.161 220.293 338.416C220.081 338.671 219.95 338.983 219.915 339.313C219.881 339.643 219.945 339.975 220.1 340.268C220.254 340.561 220.492 340.802 220.784 340.96C221.075 341.117 221.407 341.185 221.736 341.154C222.066 341.124 222.38 340.996 222.637 340.787C222.894 340.578 223.083 340.297 223.181 339.981C223.279 339.664 223.28 339.325 223.186 339.008V339.008Z" fill="#EBEBEB"/>
<path d="M157.596 322.663C160.507 323.946 163.439 325.173 166.392 326.342C169.344 327.511 172.302 328.654 175.265 329.771C181.212 331.994 187.206 334.092 193.263 336.033C196.268 337.035 199.319 337.912 202.355 338.851C205.392 339.791 208.459 340.605 211.526 341.388L216.221 342.593L220.916 343.689L223.233 344.237L225.564 344.738L230.26 345.74C223.999 344.66 217.739 343.439 211.605 341.857L209.288 341.294L206.972 340.667L202.387 339.415C199.335 338.491 196.283 337.63 193.247 336.644C187.206 334.671 181.197 332.589 175.281 330.256C169.365 327.923 163.308 325.449 157.596 322.663Z" fill="#263238"/>
<path d="M289.276 344.441C288.073 346.878 286.235 348.944 283.955 350.421C281.638 351.904 278.919 352.631 276.172 352.502C273.425 352.373 270.785 351.394 268.618 349.701C266.47 348.019 264.628 345.98 263.172 343.674C262.796 343.141 262.436 342.515 262.06 342.108C261.617 341.665 261.083 341.323 260.495 341.106C259.265 340.631 257.983 340.3 256.677 340.12C254.038 339.747 251.376 339.569 248.711 339.587C246.06 339.575 243.422 339.96 240.886 340.73C238.291 341.39 235.832 342.503 233.624 344.018C234.674 343.176 235.819 342.462 237.036 341.889C238.256 341.32 239.51 340.829 240.792 340.417C243.366 339.577 246.051 339.129 248.758 339.086C251.458 339.011 254.159 339.162 256.833 339.54C258.187 339.713 259.516 340.044 260.793 340.527C261.47 340.776 262.085 341.172 262.593 341.685C263.078 342.265 263.375 342.812 263.766 343.376C265.167 345.631 266.946 347.628 269.025 349.279C271.103 350.919 273.629 351.89 276.271 352.065C278.929 352.223 281.573 351.58 283.861 350.218C286.138 348.797 288.005 346.806 289.276 344.441V344.441Z" fill="#263238"/>
<path d="M254.408 356.011C254.408 356.011 267.898 357.717 269.385 365.405C270.809 372.732 259.744 373.577 258.946 373.64C259.666 373.734 272.014 375.628 272.734 383.425C273.469 391.535 262.217 390.471 261.497 390.392C262.139 390.69 270.59 394.839 269.792 400.882C268.399 411.278 246.489 401.289 238.679 404.593C238.679 404.593 242.764 418.48 242.795 418.902C242.795 418.902 221.746 409.822 217.88 399.035C217.293 397.472 217.257 395.756 217.778 394.17C218.299 392.584 219.345 391.224 220.744 390.314C220.744 390.314 213.639 388.138 212.919 382.016C212.528 378.885 217.223 375.472 217.223 375.472C217.223 375.472 211.605 373.483 211.276 368.004C211.165 366.474 211.525 364.946 212.309 363.628C213.092 362.309 214.261 361.263 215.658 360.629C226.644 354.257 254.408 356.011 254.408 356.011Z" fill="#D3766A"/>
<path d="M216.315 360.269C216.19 360.269 216.128 360.128 216.315 360.081C228.006 355.04 242.404 353.099 254.893 355.901C255.3 355.995 256.646 357.467 256.192 357.342C244.47 355.478 229.367 356.966 216.315 360.269Z" fill="#263238"/>
<path d="M216.847 375.346C216.707 375.346 216.644 375.143 216.847 375.096C228.914 369.976 245.19 368.223 259.196 373.154C259.682 373.327 259.948 373.953 259.384 373.796C249.822 371.229 228.679 372.309 216.847 375.346Z" fill="#263238"/>
<path d="M262.233 391.003C248.601 386.791 235.001 387.386 221.104 390.001C220.932 390.001 220.901 389.766 221.104 389.703C227.552 386.572 236.582 385.82 243.64 385.836C250.203 385.733 256.678 387.353 262.42 390.533C262.655 390.643 262.561 391.081 262.233 391.003Z" fill="#263238"/>
<path d="M254.501 355.854C255.002 355.964 253.782 356.95 254.282 357.075C259.572 358.485 268.915 361.475 268.743 366.047C268.602 369.71 263.578 372.059 261.294 372.2L255.566 372.56L261.074 374.219C263.528 374.927 265.849 376.032 267.945 377.491C268.955 378.114 269.821 378.944 270.488 379.927C271.154 380.909 271.605 382.021 271.81 383.19C271.994 384.275 271.799 385.391 271.257 386.349C270.716 387.307 269.861 388.049 268.837 388.451C266.524 389.313 264.029 389.566 261.591 389.187L254.83 388.388L260.934 391.347C262.628 392.182 264.206 393.235 265.629 394.479C267.031 395.585 268.08 397.075 268.649 398.768C268.865 399.547 268.861 400.371 268.638 401.148C268.414 401.924 267.979 402.624 267.381 403.168C265.865 404.165 264.094 404.708 262.28 404.734C258.339 404.882 254.394 404.72 250.479 404.248C248.507 404.076 246.504 403.904 244.501 403.825C242.496 403.641 240.475 403.881 238.57 404.53C240.507 404.094 242.512 404.041 244.47 404.373C246.426 404.608 248.398 404.921 250.354 405.25C254.321 406.006 258.351 406.384 262.389 406.377C264.576 406.418 266.726 405.814 268.571 404.64C269.51 403.896 270.209 402.892 270.582 401.753C270.955 400.615 270.985 399.392 270.668 398.236C270.039 396.105 268.785 394.212 267.068 392.803C265.491 391.412 263.739 390.233 261.857 389.296L261.2 391.457C264.079 391.949 267.037 391.673 269.776 390.658C271.276 390.053 272.521 388.947 273.297 387.527C274.013 386.106 274.286 384.502 274.08 382.924C273.818 381.446 273.246 380.04 272.402 378.798C271.557 377.557 270.46 376.509 269.181 375.722C266.854 374.14 264.278 372.959 261.56 372.231L261.341 374.251C264.236 373.969 270.136 371.965 271.075 366.313C271.231 358.766 257.115 356.152 254.501 355.854Z" fill="#263238"/>
<path d="M541.508 484.002C541.086 484.425 368.011 472.573 366.556 470.694C364.537 468.032 419.312 292.086 433.037 266.237C438.891 255.278 466.873 253.634 477.937 264.045C505.638 290.113 524.888 374.36 528.957 399.63C535.686 441.26 543.057 482.483 541.508 484.002Z" fill="#DBDBDB"/>
<path d="M494.245 408.507C495.716 414.268 533.965 425.4 534.826 425.854C535.686 426.308 536.86 433.165 536.86 433.165C536.86 433.165 499.394 434.355 497.422 434.512C495.45 434.668 512.759 658.398 511.804 660.7C510.85 663.001 426.073 659.134 399.531 655.22C372.988 651.306 317.556 642.914 317.164 640.644C316.773 638.374 369.842 448.274 378.966 415.505C388.09 382.736 409.343 326.436 410.423 326.655C411.785 326.921 456.544 327.735 461.286 328.847C463.086 329.27 492.774 402.745 494.245 408.507Z" fill="#263238"/>
<path d="M408.655 333.998C408.655 333.998 426.308 275.615 428.389 271.372C430.174 268.269 432.489 265.503 435.228 263.2L414.883 334.217L408.655 333.998Z" fill="#FFC727"/>
<path d="M414.43 331.133C414.32 331.439 414.124 331.708 413.867 331.907C413.609 332.106 413.3 332.228 412.976 332.257C412.652 332.286 412.326 332.221 412.037 332.071C411.748 331.921 411.508 331.691 411.346 331.409C411.183 331.127 411.105 330.804 411.12 330.479C411.135 330.153 411.242 329.839 411.43 329.573C411.617 329.307 411.877 329.1 412.179 328.977C412.48 328.854 412.81 328.82 413.131 328.878C413.601 329.007 414.001 329.316 414.244 329.738C414.487 330.16 414.554 330.661 414.43 331.133Z" fill="#263238"/>
<path d="M449.72 335.845L459.11 336.597C459.11 336.597 468.704 290.41 470.551 281.314C471.972 274.984 473.963 268.795 476.498 262.824C474.832 260.874 472.488 259.632 469.94 259.348C469.94 259.348 462.491 279.373 459.971 290.661C457.733 300.446 449.72 335.845 449.72 335.845Z" fill="#FFC727"/>
<path d="M457.624 331.994C457.621 332.439 457.486 332.873 457.236 333.242C456.987 333.611 456.634 333.897 456.222 334.066C455.81 334.234 455.357 334.276 454.921 334.187C454.485 334.099 454.085 333.883 453.771 333.567C453.458 333.251 453.244 332.849 453.159 332.412C453.073 331.975 453.119 331.523 453.29 331.112C453.461 330.701 453.749 330.35 454.12 330.103C454.49 329.855 454.925 329.724 455.37 329.724C455.667 329.724 455.962 329.782 456.236 329.897C456.511 330.011 456.76 330.178 456.969 330.389C457.179 330.601 457.344 330.851 457.457 331.126C457.569 331.402 457.626 331.696 457.624 331.994V331.994Z" fill="#263238"/>
<path d="M430.955 461.763L459.209 461.038L458.824 445.997L430.569 446.722L430.955 461.763Z" fill="#455A64"/>
<path d="M430.189 461.738L430.377 468.94L441.269 479.508L449.877 479.289L460.222 468.173L460.034 460.971L430.189 461.738Z" fill="#DBDBDB"/>
<path d="M445.464 549.931L449.298 549.837L449.877 479.289L441.269 479.508L445.464 549.931Z" fill="#DBDBDB"/>
<path d="M402.097 444.422L423.851 441.667L423.35 438.739L401.956 443.593L402.097 444.422Z" fill="#FFC727"/>
<path d="M402.598 447.35L424.352 444.579L423.851 441.667L402.457 446.52L402.598 447.35Z" fill="#FFC727"/>
<path d="M403.099 450.262L424.852 447.507L424.352 444.579L402.958 449.432L403.099 450.262Z" fill="#FFC727"/>
<path d="M403.584 453.19L425.353 450.419L424.852 447.507L403.459 452.36L403.584 453.19Z" fill="#FFC727"/>
<path d="M404.085 456.102L425.854 453.346L425.353 450.419L403.96 455.288L404.085 456.102Z" fill="#FFC727"/>
<path d="M404.586 459.03L426.355 456.274L425.854 453.347L404.46 458.2L404.586 459.03Z" fill="#FFC727"/>
<path d="M405.102 461.942L426.856 459.186L426.355 456.274L404.946 461.128L405.102 461.942Z" fill="#FFC727"/>
<path d="M405.587 464.87L427.356 462.114L426.856 459.187L405.446 464.04L405.587 464.87Z" fill="#FFC727"/>
<path d="M406.088 467.797L427.857 465.026L427.356 462.114L405.947 466.968L406.088 467.797Z" fill="#FFC727"/>
<path d="M406.589 470.709L428.358 467.954L427.857 465.026L406.448 469.88L406.589 470.709Z" fill="#FFC727"/>
<path d="M407.09 473.637L428.859 470.866L428.358 467.954L406.949 472.807L407.09 473.637Z" fill="#FFC727"/>
<path d="M407.59 476.549L429.36 473.794L428.859 470.866L407.45 475.735L407.59 476.549Z" fill="#FFC727"/>
<path d="M408.091 479.477L429.861 476.721L429.36 473.794L407.95 478.647L408.091 479.477Z" fill="#FFC727"/>
<path d="M408.592 482.389L430.361 479.634L429.861 476.721L408.451 481.575L408.592 482.389Z" fill="#FFC727"/>
<path d="M409.093 485.317L430.862 482.562L430.361 479.634L408.952 484.487L409.093 485.317Z" fill="#FFC727"/>
<path d="M409.594 488.245L431.363 485.473L430.862 482.561L409.453 487.415L409.594 488.245Z" fill="#FFC727"/>
<path d="M410.094 491.157L431.864 488.401L431.363 485.473L409.954 490.327L410.094 491.157Z" fill="#FFC727"/>
<path d="M410.595 494.084L432.364 491.313L431.864 488.401L410.454 493.255L410.595 494.084Z" fill="#FFC727"/>
<path d="M438.358 542.024L442.052 541.398L427.122 438.097L420.737 439.193L438.358 542.024Z" fill="#FFC727"/>
<path d="M458.417 456.616L486.385 460.698L488.556 445.81L460.588 441.728L458.417 456.616Z" fill="#455A64"/>
<path d="M457.671 456.462L456.622 463.586L465.574 475.86L474.088 477.097L486.169 467.907L487.202 460.783L457.671 456.462Z" fill="#FFC727"/>
<path d="M457.749 545.97L461.552 546.518L474.088 477.097L465.574 475.86L457.749 545.97Z" fill="#FFC727"/>
<path d="M478.548 494.992C478.548 494.992 454.071 501.255 420.095 495.086C420.095 495.086 417.56 546.079 418.999 548.96C420.439 551.841 440.19 559.919 447.389 560.671C454.588 561.422 477.687 554.737 481.021 550.385C484.354 546.032 478.548 494.992 478.548 494.992Z" fill="#37474F"/>
<path d="M494.198 314.584C494.198 346.867 479.221 432.743 454.4 444.422C432.396 454.771 378.043 411.184 360.499 400.584C351.798 395.355 383.114 327.219 391.58 334.045C402.942 343.188 432.396 369.851 435.275 367.972C438.405 365.906 447.091 345.208 469.095 299.679C489.816 256.765 494.198 294.34 494.198 314.584Z" fill="#D3766A"/>
<path d="M249.713 304.407C249.015 303.125 248.069 301.995 246.93 301.084C245.79 300.172 244.48 299.498 243.077 299.1C241.418 298.652 239.709 298.415 237.991 298.395V298.395C242.889 297.503 246.019 293.369 248.038 290.003C250.057 286.637 247.537 279.686 247.537 279.686C247.537 279.686 253.797 286.261 252.717 290.88C251.637 295.499 246.457 298.959 246.457 298.959C248.806 299.206 251.173 298.719 253.234 297.565C255.941 295.702 255.722 289.346 255.722 289.346C255.722 289.346 259.009 302.059 249.713 304.407Z" fill="#263238"/>
<path d="M316.304 314.693L316.069 315.116L306.679 330.945L306.381 330.773L314.958 314.537L314.285 314.161L304.973 329.99L304.676 329.818L313.252 313.598L312.579 313.222L303.283 329.035L302.985 328.878L311.546 312.643L310.889 312.267L301.577 328.08L301.28 327.923L309.84 311.687L309.167 311.312L299.949 327.219L299.636 327.062L308.228 310.842L307.54 310.451L298.228 326.217L297.93 326.044L306.507 309.824L305.818 309.433L296.522 325.262L296.225 325.089L304.801 308.869L304.128 308.494L294.816 324.307L294.519 324.134L303.095 307.914L302.422 307.539L293.11 323.351L292.813 323.195L301.358 306.959L300.685 306.584L291.389 322.412L291.076 322.24L299.652 306.02L298.979 305.644L289.683 321.457L289.37 321.285L297.946 305.065L297.273 304.689L287.961 320.502L287.664 320.33L296.256 304.11L295.567 303.734L286.271 319.563L285.974 319.39L294.534 303.155L293.877 302.779L284.612 318.608L284.315 318.435L292.875 302.168L292.202 301.808L282.906 317.621L282.609 317.449L291.185 301.229L290.497 300.853L281.216 316.666L280.903 316.51L289.479 300.274L288.791 299.898L279.448 315.742L279.15 315.586L287.727 299.35L287.054 298.974L277.742 314.803L277.444 314.631L286.021 298.411L285.348 298.019L275.958 313.848L275.66 313.676L284.362 297.471L283.689 297.08L274.393 312.909L274.095 312.736L282.656 296.516L281.983 296.141L272.687 311.954L272.374 311.797L281.013 295.546L280.34 295.17L271.028 310.983L270.731 310.826L279.322 294.606L278.634 294.215L269.275 309.997L268.978 309.824L277.538 293.604L276.865 293.213L267.569 309.042L267.272 308.869L275.833 292.775L275.175 292.399L265.785 308.212L265.488 308.04L274.064 291.82L273.375 291.444L264.079 307.257L263.766 307.1L272.358 290.864L271.67 290.489L262.373 306.317L262.076 306.145L270.652 289.925L269.979 289.549L260.746 305.3L260.448 305.127L269.025 288.907L268.352 288.532L259.103 304.329L258.805 304.157L267.381 287.937L266.709 287.561L257.412 303.39L257.115 303.217L265.676 286.982L265.003 286.606L255.707 302.435L255.394 302.262L263.97 286.027L263.297 285.651L254.001 301.48L253.688 301.307L262.233 285.087L261.544 284.712L252.232 300.603L251.935 300.446L260.511 284.211L259.822 283.835L250.526 299.648L250.229 299.491L258.79 283.255L258.132 282.88L248.82 298.693L248.523 298.536L257.099 282.316L256.411 281.925L247.115 297.753L246.817 297.581L255.394 281.361L254.705 280.97L245.424 296.798L245.111 296.626L253.688 280.406L253.015 280.03L243.625 295.843L243.327 295.687L251.904 279.451L251.231 279.075L241.841 294.888L241.543 294.732L250.119 278.512L249.446 278.12L240.322 293.871L240.025 293.698L248.586 277.478L247.913 277.103L238.617 292.915L238.319 292.743L246.88 276.523L246.207 276.147L236.911 291.96L236.598 291.788L245.174 275.553L244.485 275.177L235.189 291.005L234.892 290.833L243.453 274.613L242.764 274.237L233.468 290.066L233.17 289.894L241.731 273.658L241.074 273.298L231.684 289.111L231.386 288.939L239.963 272.719L239.29 272.343L229.9 288.156L229.602 287.984L238.178 271.764L237.49 271.388L228.209 287.201L227.896 287.044L236.645 270.856L235.972 270.48L226.66 286.308L226.363 286.136L234.939 269.901L234.266 269.525L224.954 285.353L224.657 285.181L233.233 268.961L232.56 268.57L223.264 284.398L222.967 284.242L231.527 268.006L230.87 267.63L221.542 283.381L221.245 283.224L229.806 266.988L229.133 266.613L219.837 282.426L219.524 282.269L228.115 266.049L227.427 265.658L218.131 281.486L217.833 281.314L226.41 265.094L225.721 264.703L216.425 280.531L216.127 280.359L224.672 264.155L224.907 263.732C225.574 262.531 226.472 261.473 227.549 260.619C228.626 259.765 229.86 259.133 231.182 258.758C232.503 258.382 233.886 258.272 235.251 258.432C236.615 258.593 237.934 259.021 239.133 259.693L312.313 300.493C314.722 301.849 316.495 304.106 317.243 306.768C317.991 309.43 317.653 312.28 316.304 314.693V314.693Z" fill="#636363"/>
<path d="M396.385 338.304C396.385 338.304 375.367 319.813 361.063 308.431C353.081 302.043 338.417 292.305 330.404 290.301C318.416 287.295 266.396 282.473 264.94 294.998C263.61 306.411 308.839 304.94 308.839 304.94C308.839 304.94 263.078 302.388 264.001 316.4C264.924 330.413 315.818 321.974 315.818 321.974C315.818 321.974 268.727 320.408 271.998 334.703C274.44 345.505 320.967 340.448 320.967 340.448C320.967 340.448 280.481 339.384 282.531 350.609C284.784 363.009 328.01 361.037 328.01 361.037C338.01 388.701 353.144 398.831 366.274 402.87C369.326 403.747 396.385 338.304 396.385 338.304Z" fill="#D3766A"/>
<path d="M322.564 304.673C288.994 300.227 271.169 308.321 271.685 308.196C283.892 305.394 303.204 305.143 308.588 305.159C313.972 305.174 317.18 304.877 322.564 304.893C322.704 304.893 322.689 304.705 322.564 304.673Z" fill="#263238"/>
<path d="M325.021 324.213C309.277 321.081 290.59 322.647 284.205 324.213C283.704 324.338 283.877 324.51 284.409 324.494C291.263 324.338 318.197 324.181 325.099 324.338C325.13 324.385 325.13 324.228 325.021 324.213Z" fill="#263238"/>
<path d="M328.276 340.887C313.987 339.133 307.399 339.791 296.678 341.826C296.178 341.936 296.444 342.217 296.991 342.186C307.477 341.669 315.771 341.2 328.292 341.247C328.448 341.309 328.495 340.902 328.276 340.887Z" fill="#263238"/>
<path d="M331.218 368.896C332.443 371.405 333.812 373.841 335.318 376.192C336.786 378.55 338.384 380.824 340.107 383.002C343.484 387.386 347.432 391.298 351.845 394.635C352.932 395.477 354.066 396.255 355.241 396.968L356.994 398.048C357.604 398.393 358.23 398.674 358.84 398.988L360.672 399.927C361.313 400.29 361.935 400.687 362.534 401.117C363.708 401.9 364.85 402.683 365.993 403.512C370.562 406.738 375.101 410.01 379.545 413.438C377.135 411.998 374.85 410.495 372.393 409.023L365.32 404.514L361.783 402.26C361.235 401.915 360.546 401.461 360.092 401.242L358.167 400.318C357.541 400.005 356.884 399.708 356.258 399.379L354.443 398.267C353.215 397.549 352.034 396.754 350.906 395.888C346.382 392.466 342.417 388.362 339.153 383.723C335.837 379.17 333.167 374.181 331.218 368.896V368.896Z" fill="#263238"/>
<path d="M438.812 358.218L491.772 391.77C491.772 391.77 496.796 346.82 496.467 314.286C496.139 281.752 485.763 263.779 469.862 293.37C453.962 322.96 438.812 358.218 438.812 358.218Z" fill="#DBDBDB"/>
<path d="M445.949 349.138C450.018 351.11 453.868 353.553 457.733 355.886C461.599 358.218 465.308 360.473 469.064 362.79C476.686 367.487 484.323 372.184 491.553 377.46C491.589 377.489 491.612 377.531 491.62 377.577C491.627 377.622 491.617 377.669 491.591 377.708C491.566 377.747 491.528 377.775 491.483 377.787C491.438 377.799 491.391 377.794 491.35 377.773C483.399 373.64 475.84 368.865 468.234 364.121C464.478 361.783 460.743 359.424 457.029 357.044C453.226 354.602 449.329 352.222 445.761 349.467C445.717 349.442 445.685 349.4 445.672 349.352C445.659 349.304 445.666 349.252 445.691 349.208C445.715 349.165 445.757 349.133 445.805 349.119C445.853 349.106 445.905 349.113 445.949 349.138V349.138Z" fill="#263238"/>
<path d="M492.696 377.225C493.024 372.528 493.431 367.941 493.869 363.322C494.761 353.928 495.293 344.535 496.326 335.141C496.326 335.016 496.53 335.016 496.53 335.141C496.53 340.761 496.217 346.366 495.857 351.987C496.452 349.419 497.046 346.852 497.719 344.315C497.719 344.159 498.017 344.19 497.985 344.315C497.704 346.194 497.359 348.057 496.905 349.905C496.53 351.392 496.123 352.88 495.716 354.367C495.518 357.342 495.32 360.306 495.121 363.26C494.824 367.957 494.339 372.528 493.963 377.163C493.76 379.683 492.398 389.609 492.163 391.253C492.163 391.488 491.772 391.473 491.788 391.253C491.976 388.78 492.523 379.589 492.696 377.225Z" fill="#263238"/>
<path d="M444.431 291.444C453.336 290.896 465.277 272.249 467.796 260.256C467.968 259.426 464.666 252.303 460.989 243.473C458.813 238.102 456.497 232.059 454.728 226.407C454.384 225.248 451.066 228.568 451.066 228.568L444.29 232.56L421.863 245.805C421.863 245.805 428.922 256.608 431.848 266.487C432.077 267.269 432.229 268.072 432.302 268.883C432.302 268.992 432.302 269.133 432.302 269.29C433.053 273.877 435.808 291.96 444.431 291.444Z" fill="#D3766A"/>
<path d="M432.365 268.836C432.365 268.946 432.365 269.086 432.365 269.243C433.624 269.043 434.864 268.739 436.074 268.335C459.799 260.507 453.602 229.288 453.602 229.288L444.29 232.56L421.863 245.805C421.863 245.805 428.922 256.608 431.848 266.487C432.095 267.252 432.268 268.038 432.365 268.836V268.836Z" fill="#263238"/>
<path d="M444.556 181.332C448.641 184.088 460.409 181.755 464.478 175.226C470.066 166.255 458.218 152.603 447.795 158.38C437.373 164.157 441.41 179.219 444.556 181.332Z" fill="#263238"/>
<path d="M461.067 160.243C463.569 162.647 465.44 165.632 466.513 168.933C467.009 170.482 467.016 172.147 466.535 173.701C466.053 175.256 465.106 176.624 463.821 177.622C462.513 178.691 461.071 179.585 459.533 180.284C458.008 181.032 456.401 181.6 454.744 181.974C451.361 182.787 447.811 182.563 444.556 181.333C447.68 183.224 451.38 183.924 454.979 183.305C456.789 183.022 458.552 182.495 460.222 181.74C461.913 181.016 463.494 180.057 464.917 178.89C466.399 177.667 467.488 176.033 468.047 174.193C468.527 172.328 468.424 170.361 467.749 168.557C466.426 165.166 464.093 162.264 461.067 160.243V160.243Z" fill="#263238"/>
<path d="M449.345 186.922C456.372 198.727 458.735 237.257 451.661 247.716C441.426 262.871 420.173 269.29 406.213 255.982C392.629 243.066 390.563 192.793 398.779 182.82C410.908 168.15 438.953 169.481 449.345 186.922Z" fill="#D3766A"/>
<path d="M418.937 219.784C418.937 219.69 419.156 219.894 419.156 220.004C419.234 222.602 419.782 225.577 422.176 226.266C422.255 226.266 422.255 226.423 422.176 226.407C419.281 226.203 418.608 222.321 418.937 219.784Z" fill="#263238"/>
<path d="M421.081 216.935C425.228 216.34 426.105 224.685 422.255 225.233C418.405 225.781 417.591 217.42 421.081 216.935Z" fill="#263238"/>
<path d="M404.226 220.849C404.226 220.755 404.038 220.99 404.038 221.1C404.398 223.667 404.367 226.689 402.113 227.785C402.113 227.785 402.113 227.957 402.113 227.926C404.961 227.221 404.961 223.229 404.226 220.849Z" fill="#263238"/>
<path d="M401.628 218.391C397.434 218.501 397.981 226.877 401.863 226.767C405.744 226.658 405.149 218.282 401.628 218.391Z" fill="#263238"/>
<path d="M423.976 212.77C422.802 212.598 421.754 212.254 420.611 211.972C419.396 211.844 418.255 211.328 417.356 210.5C417.118 210.191 416.988 209.811 416.988 209.42C416.988 209.029 417.118 208.649 417.356 208.34C417.935 207.81 418.646 207.445 419.413 207.282C420.181 207.12 420.978 207.166 421.722 207.416C423.321 207.681 424.765 208.529 425.776 209.796C425.99 210.097 426.111 210.454 426.125 210.824C426.138 211.193 426.044 211.558 425.853 211.874C425.661 212.191 425.382 212.444 425.048 212.603C424.715 212.762 424.342 212.82 423.976 212.77V212.77Z" fill="#263238"/>
<path d="M397.966 214.493C399.093 214.18 400.094 213.71 401.19 213.287C402.383 213.017 403.456 212.363 404.241 211.424C404.43 211.08 404.5 210.684 404.44 210.296C404.381 209.908 404.195 209.551 403.913 209.279C403.272 208.827 402.523 208.554 401.741 208.488C400.96 208.422 400.176 208.565 399.468 208.903C397.932 209.375 396.626 210.402 395.806 211.784C395.636 212.109 395.565 212.477 395.6 212.842C395.635 213.208 395.776 213.555 396.005 213.842C396.233 214.129 396.54 214.343 396.889 214.458C397.237 214.574 397.611 214.586 397.966 214.493V214.493Z" fill="#263238"/>
<path d="M424.727 242.455C424.18 243.128 423.647 244.021 422.708 244.208C421.749 244.293 420.783 244.17 419.876 243.848C419.857 243.842 419.837 243.841 419.818 243.847C419.799 243.852 419.782 243.864 419.77 243.879C419.758 243.895 419.751 243.914 419.75 243.934C419.75 243.953 419.755 243.973 419.766 243.989C420.19 244.458 420.731 244.804 421.334 244.991C421.937 245.178 422.579 245.2 423.194 245.054C423.708 244.862 424.154 244.521 424.474 244.075C424.795 243.629 424.975 243.098 424.993 242.549C424.993 242.392 424.806 242.361 424.727 242.455Z" fill="#263238"/>
<path d="M421.206 235.002C420.656 236.092 419.887 237.057 418.947 237.835C418.008 238.614 416.917 239.19 415.744 239.527C414.729 239.835 413.675 239.999 412.614 240.013C412.411 240.036 412.207 240.036 412.004 240.013H411.425C411.285 239.996 411.153 239.935 411.049 239.84C410.945 239.744 410.874 239.618 410.846 239.48V239.48C410.838 239.392 410.838 239.303 410.846 239.214V239.214V238.979C410.58 236.991 410.454 233.953 410.454 233.953C409.766 234.392 406.229 236.443 406.182 235.394C405.791 226.736 405.368 217.092 406.808 208.387C406.822 208.333 406.853 208.285 406.897 208.251C406.941 208.217 406.995 208.198 407.051 208.198C407.106 208.198 407.16 208.217 407.204 208.251C407.248 208.285 407.279 208.333 407.293 208.387C407.997 216.7 407.293 225.092 407.794 233.437C409.049 232.684 410.403 232.11 411.816 231.73C412.113 231.73 411.957 237.633 412.145 238.509C412.137 238.54 412.137 238.573 412.145 238.603C415.525 238.682 417.935 237.414 420.956 234.83C421.112 234.627 421.331 234.846 421.206 235.002Z" fill="#263238"/>
<path d="M413.663 238.87C414.897 240.182 416.45 241.153 418.17 241.688C419.12 241.943 420.125 241.899 421.05 241.563C423.053 240.795 422.912 238.901 422.364 237.32C422.061 236.483 421.662 235.685 421.175 234.94C419.153 237.017 416.521 238.394 413.663 238.87V238.87Z" fill="#263238"/>
<path d="M418.17 241.688C419.12 241.943 420.125 241.899 421.05 241.563C423.053 240.796 422.912 238.901 422.364 237.32C421.277 237.472 420.272 237.986 419.512 238.778C418.751 239.57 418.279 240.595 418.17 241.688V241.688Z" fill="#FF98B9"/>
<path opacity="0.3" d="M455.871 226.705C455.01 225.781 442.85 212.52 438.155 205.396C435.573 201.482 435.557 185.043 435.557 184.589C435.911 181.747 437.305 179.136 439.47 177.262C443.529 179.589 446.928 182.914 449.345 186.922C453.711 194.249 456.293 211.894 455.871 226.705Z" fill="#263238"/>
<path d="M448.86 218.908C448.86 218.908 454.541 205.052 460.644 206.821C466.748 208.59 464.353 227.362 458.516 231.182C457.797 231.72 456.976 232.106 456.104 232.319C455.232 232.531 454.326 232.566 453.441 232.42C452.555 232.273 451.708 231.95 450.95 231.468C450.193 230.987 449.54 230.357 449.032 229.617L448.86 218.908Z" fill="#D3766A"/>
<path d="M459.83 212.176C459.924 212.176 459.971 212.285 459.83 212.348C455.761 215.166 454.353 219.847 453.664 224.513C454.619 222.556 456.231 221.241 458.798 222.337C458.938 222.337 458.798 222.603 458.798 222.603C457.957 222.53 457.114 222.72 456.385 223.146C455.657 223.572 455.078 224.214 454.728 224.982C454.153 226.273 453.718 227.622 453.43 229.006C453.304 229.46 452.537 229.398 452.584 228.912C452.584 228.912 452.584 228.834 452.584 228.803C451.192 223.119 453.836 214.133 459.83 212.176Z" fill="#263238"/>
<path d="M444.086 177.685C449.063 181.113 435.526 189.333 433.288 190.053C431.05 190.773 433.476 185.497 433.476 185.497C433.476 185.497 426.918 195.173 421.91 197.568C418.367 199.105 414.609 200.087 410.767 200.48L417.027 192.386C417.027 192.386 404.507 204.473 396.463 206.665C391.637 207.966 387.334 210.734 384.147 214.587C384.147 214.587 380.735 196.003 384.898 189.724C387.652 185.658 390.93 181.973 394.648 178.765L384.413 181.724C384.413 181.724 392.003 174.976 397.794 172.941C403.584 170.905 416.245 170.467 416.245 170.467L407.794 167.336C407.794 167.336 415.149 164.486 421.065 165.457C426.356 166.642 431.534 168.281 436.543 170.357L430.283 166.193C430.283 166.193 435.682 165.598 438.546 168.072C441.41 170.545 444.086 177.685 444.086 177.685Z" fill="#263238"/>
<path d="M431.911 236.412C430.78 235.041 429.379 233.917 427.796 233.109C426.214 232.301 424.482 231.826 422.708 231.715C418.742 231.169 414.702 231.806 411.096 233.547C406.401 235.926 405.556 239.371 406.072 245.258C406.589 251.144 409.046 259.975 411.3 261.806C413.553 263.638 422.255 266.503 428.139 265.251C432.835 264.18 437.122 261.777 440.487 258.331C442.772 255.559 434.258 239.324 431.911 236.412ZM429.219 247.011C427.247 248.637 424.884 249.717 422.364 250.142C419.062 250.816 414.43 250.581 413.178 249.641C411.926 248.702 410.423 243.238 410.141 240.247C409.86 237.257 410.298 235.425 412.927 234.204C414.942 233.299 417.17 232.973 419.359 233.265C420.328 233.317 421.278 233.559 422.153 233.978C423.029 234.397 423.813 234.985 424.461 235.707C425.76 237.116 430.487 245.508 429.219 246.964V247.011Z" fill="#263238"/>
<path d="M431.692 266.331L442.913 287.091L466.795 256.483L475.449 264.437C475.449 264.437 454.009 311.187 453.617 309.23L442.521 291.491L431.066 306.02L428.389 273.142L431.692 266.331Z" fill="#DBDBDB"/>
<path d="M428.828 289.847C428.562 284.398 428.139 278.887 428.139 273.486C428.139 273.282 428.421 273.173 428.499 273.392C430.173 278.48 431.066 299.303 431.629 304.251C432.098 303.625 442.302 291.397 442.443 291.553C444.712 294.309 452.85 307.21 453.398 308.415C456.779 300.994 469.925 273.971 474.119 266.769C474.14 266.724 474.178 266.688 474.225 266.67C474.272 266.653 474.324 266.655 474.369 266.675C474.415 266.696 474.45 266.734 474.468 266.781C474.486 266.828 474.484 266.88 474.463 266.926C471.615 274.754 454.29 311.108 453.962 311.046C449.757 304.989 445.871 298.718 442.318 292.258C440.659 294.857 430.502 308.494 430.377 307.695C429.539 301.778 429.022 295.82 428.828 289.847V289.847Z" fill="#263238"/>
<path d="M398.247 662.266H142.869C141.445 660.966 140.131 659.635 138.894 658.289C125.248 643.415 121.914 626.193 122.603 611.32C123.259 598.943 126.321 586.812 131.617 575.607H133.307H135.248H136.563H138.128L223.264 573.071H224.219H224.86L233.859 572.805H234.407L237.662 572.711L241.606 572.586H243.453C243.453 572.586 243.343 574.527 243.28 577.392C243.28 578.551 243.28 579.866 243.28 581.275C243.28 582.684 243.28 583.937 243.374 585.33C243.448 588.43 243.773 591.519 244.345 594.567C244.544 596.384 245.298 598.095 246.504 599.468C246.942 599.828 250.479 600.407 256.207 601.284L258.195 601.581L260.355 601.91L269.213 603.288L270.183 603.429H270.511C275.817 604.274 281.764 605.276 288.118 606.45L290.371 606.873C292.469 607.265 294.613 607.687 296.788 608.126L297.774 608.314C301.452 609.065 305.223 609.879 309.026 610.725C310.591 611.069 312.156 611.414 313.721 611.789C318.526 612.917 323.393 614.153 328.229 615.484C360.139 624.33 390.704 637.716 397.293 657.944C397.708 659.362 398.027 660.805 398.247 662.266V662.266Z" fill="#37474F"/>
<path d="M170.116 662.266H166.313C160.649 659.446 155.513 655.67 151.133 651.102C144.735 644.185 140.275 635.701 138.206 626.506C137.987 625.661 137.799 624.8 137.627 623.939L137.298 622.201C136.644 618.381 136.257 614.52 136.14 610.646V610.646C136.022 607.123 136.085 603.596 136.328 600.078C136.661 594.988 137.261 589.919 138.128 584.892L138.409 583.326C138.427 583.286 138.457 583.254 138.496 583.234C138.535 583.214 138.579 583.208 138.621 583.217C138.664 583.227 138.702 583.25 138.729 583.284C138.756 583.318 138.77 583.361 138.769 583.404L138.487 584.97C138.034 587.444 137.611 589.933 137.376 592.422C136.755 598.492 136.604 604.6 136.922 610.693V610.693C137.168 615.093 137.77 619.465 138.722 623.766C138.91 624.659 139.129 625.536 139.364 626.412C139.599 627.289 139.912 628.354 140.209 629.309C143.847 641.239 151.651 651.463 162.197 658.117C164.743 659.673 167.388 661.059 170.116 662.266V662.266Z" fill="#263238"/>
<path d="M393.036 662.266H112.289C106.029 645.216 105.873 627.227 107.766 612.009C109.342 599.232 112.528 586.706 117.25 574.731L133.213 574.261H135.17H135.827H137.392L223.467 571.709H224.14H225.048L233.656 571.443H234.955L237.85 571.349L241.794 571.239C241.794 571.239 241.7 571.709 241.512 572.57C241.168 574.23 240.479 577.267 239.462 581.353C238.726 584.25 237.897 587.616 236.739 591.295C236.394 592.485 236.034 593.706 235.659 594.959C235.048 596.884 234.422 598.873 233.734 600.892C233.327 602.098 232.904 603.304 232.466 604.525C231.856 606.263 231.198 608 230.51 609.754L230.322 610.271V610.459L233.249 611.022L233.671 611.1L237.161 611.805C240.933 612.572 246.144 613.652 252.436 615.062L254.267 615.469C258.211 616.361 262.546 617.363 267.178 618.475L274.095 620.165L276.067 620.651L280.621 621.809C283.955 622.655 287.382 623.563 290.872 624.502L293.157 625.113L294.002 625.348C299.355 626.804 304.879 628.369 310.482 630.045C332.955 636.683 356.869 644.934 377.574 654.61L377.902 654.766C383.161 657.083 388.247 659.651 393.036 662.266Z" fill="#37474F"/>
<path d="M252.201 601.769C248.586 602.559 245.054 603.691 241.653 605.151C238.069 606.513 234.548 608.063 231.105 609.738C224.341 613.102 217.764 616.829 211.401 620.901C211.198 621.026 211.401 621.293 211.605 621.199C218.334 617.692 225.298 614.545 232.263 611.539L242.326 607.202C245.797 605.876 249.198 604.371 252.514 602.693C252.936 602.458 252.702 601.675 252.201 601.769Z" fill="#263238"/>
<path d="M244.736 571.004C243.312 576.688 242.06 582.433 240.432 588.07C239.681 590.653 238.945 593.283 237.975 595.788C237.146 597.902 235.894 600.329 233.452 600.798C230.619 601.346 229.821 598.935 230.056 596.603C230.306 593.988 230.979 591.389 231.48 588.774C232.075 585.815 232.67 582.872 233.217 579.897C233.483 578.425 233.765 576.938 234.016 575.451C234.016 575.075 234.344 572.241 234.548 571.427C234.548 571.427 234.626 571.568 234.704 571.552H234.814C234.853 571.548 234.89 571.532 234.921 571.507C234.951 571.482 234.974 571.449 234.986 571.411C235.012 571.333 235.012 571.248 234.987 571.169C234.961 571.091 234.912 571.022 234.845 570.973C234.806 570.946 234.759 570.932 234.712 570.932C234.664 570.932 234.618 570.946 234.579 570.973C234.047 571.27 234 572.006 233.828 572.539C233.374 573.979 232.904 575.419 232.482 576.875C231.699 579.584 230.917 582.308 230.244 585.048C229.571 587.788 228.882 590.528 228.209 593.268C227.504 595.276 227.311 597.428 227.646 599.53C227.904 600.536 228.478 601.432 229.284 602.086C230.09 602.74 231.085 603.118 232.122 603.163C232.028 603.35 231.903 603.538 231.825 603.726C231.574 604.29 231.386 604.885 231.183 605.448C230.979 606.012 230.76 606.623 230.588 607.233C230.512 607.521 230.46 607.814 230.432 608.11C230.432 608.439 230.432 608.768 230.432 609.096C230.42 609.205 230.445 609.315 230.503 609.408C230.562 609.501 230.65 609.571 230.753 609.608C230.857 609.644 230.969 609.644 231.073 609.608C231.177 609.572 231.265 609.502 231.324 609.409C231.486 609.134 231.664 608.867 231.856 608.611C232.023 608.313 232.159 607.998 232.263 607.672C232.451 607.092 232.607 606.529 232.763 605.949C232.92 605.37 233.077 604.791 233.186 604.212C233.296 603.632 233.186 603.507 233.296 603.163C234.479 603.05 235.61 602.617 236.566 601.91C238.176 600.541 239.355 598.736 239.963 596.712C240.823 594.348 241.528 591.89 242.154 589.463C243.893 583.469 245.108 577.335 245.784 571.13C245.784 571 245.736 570.875 245.649 570.778C245.563 570.681 245.444 570.619 245.315 570.604C245.187 570.588 245.057 570.621 244.95 570.694C244.843 570.768 244.767 570.878 244.736 571.004V571.004Z" fill="#263238"/>
<path d="M170.648 584.923C170.132 587.757 169.819 590.606 169.162 593.409C168.504 596.211 167.784 598.873 166.877 601.55C166.065 604.139 164.901 606.605 163.418 608.877C161.858 611.009 159.998 612.902 157.894 614.498C153.877 617.686 149.368 620.197 144.544 621.935C142.119 622.814 139.642 623.541 137.126 624.111C135.811 624.408 134.481 624.643 133.151 624.815C132.069 624.852 131.005 625.102 130.021 625.551C129.927 625.61 129.85 625.693 129.796 625.79C129.743 625.887 129.715 625.996 129.715 626.107C129.715 626.218 129.743 626.327 129.796 626.424C129.85 626.521 129.927 626.604 130.021 626.663C131.727 627.493 134.105 627.039 135.921 626.851C138.032 626.633 140.124 626.262 142.181 625.739C146.373 624.627 150.387 622.929 154.106 620.698C157.873 618.571 161.245 615.812 164.075 612.541C166.726 609.104 168.547 605.102 169.396 600.845C170.716 595.661 171.3 590.317 171.134 584.97C171.113 584.925 171.081 584.886 171.041 584.858C171.001 584.829 170.954 584.811 170.904 584.806C170.855 584.802 170.806 584.81 170.761 584.83C170.716 584.851 170.677 584.883 170.648 584.923V584.923Z" fill="#263238"/>
<path d="M129.348 662.266H128.065C124.19 653.199 121.771 643.577 120.897 633.755C120.216 626.343 120.107 618.89 120.568 611.461V611.461C121.1 601.44 122.352 591.436 123.51 581.463C123.51 581.228 123.886 581.306 123.855 581.463C123.338 585.8 122.806 590.152 122.29 594.505C121.742 599.969 121.319 605.621 121.147 611.335C120.662 628.839 122.321 646.86 129.348 662.266Z" fill="#263238"/>
<path d="M392.754 662.265H391.424C373.252 653.274 354.588 645.313 335.522 638.421C327.175 635.383 318.828 632.571 310.482 629.982C305.036 628.291 299.558 626.699 294.049 625.207L293.22 624.988L290.904 624.361C287.429 623.443 283.95 622.561 280.465 621.715L276.161 620.682L274.205 620.228L269.197 619.116L267.131 618.678C262.812 617.754 258.477 616.909 254.126 616.095L252.138 615.735C247.203 614.847 242.268 613.992 237.333 613.167L230.932 612.165C230.087 612.024 230.306 610.599 231.167 610.599L233.311 610.85H233.796L237.192 611.257C242.451 611.93 247.694 612.744 252.843 613.668L254.58 613.997C258.92 614.78 263.239 615.641 267.538 616.58L273.595 617.927L275.598 618.396C278.164 619.012 280.731 619.644 283.298 620.291C286.052 620.98 288.796 621.695 291.53 622.436L292.688 622.749L293.908 623.078L299.057 624.502C303.017 625.63 306.976 626.788 310.92 628.025C329.222 633.658 347.16 640.413 364.631 648.253C368.992 650.215 373.306 652.256 377.574 654.375L377.902 654.531C382.879 657.083 387.824 659.666 392.754 662.265Z" fill="#263238"/>
<path d="M267.585 600.282C263.766 603.757 100.849 613.198 100.129 612.118C99.4093 611.038 136.625 436.046 195.282 411.888C204.578 408.068 229.367 409.383 232.2 412.843C255.722 441.589 270.058 598.074 267.585 600.282Z" fill="#EBEBEB"/>
<path d="M219.883 452.658L227.255 438.645L237.631 449.307L235.487 460.298L225.611 461.864L219.883 452.658Z" fill="#263238"/>
<path d="M225.611 461.863L224.156 573.572L242.31 598.81L255.769 568.014L235.487 460.298L225.611 461.863Z" fill="#263238"/>
<path d="M100.129 612.165C100.849 613.261 263.766 603.789 267.585 600.329C269.792 598.356 258.101 467.703 238.116 423.098C241.058 436.594 246.583 468.502 239.681 493.928C218.927 470.341 202.188 443.503 190.133 414.487C134.45 446.207 99.4718 611.194 100.129 612.165Z" fill="#A6A6A6"/>
<path d="M224.344 437.174C215.22 438.191 201.651 422.77 196.972 411.059C196.659 410.245 198.787 402.448 200.916 392.85C202.183 387.026 203.467 380.497 204.202 374.47L240.917 388.279C240.917 388.279 235.659 400.475 234.438 411.012C234.361 411.845 234.361 412.684 234.438 413.517C234.446 413.658 234.446 413.799 234.438 413.94C234.579 418.73 233.155 436.187 224.344 437.174Z" fill="#F7A9A0"/>
<path d="M206.69 375.393C206.941 384.255 209.382 410.605 230.479 413.673C231.779 413.859 233.093 413.943 234.407 413.924C234.399 413.788 234.399 413.652 234.407 413.517C234.313 412.684 234.313 411.844 234.407 411.012C235.612 400.475 240.886 388.279 240.886 388.279L206.69 375.393Z" fill="#263238"/>
<path d="M191.166 338.382C189.194 352.379 202.34 389.844 213.185 396.952C228.929 407.239 251.653 404.875 259.635 386.65C267.366 368.974 249.368 320.455 237.537 314.302C220.087 305.3 194.061 317.7 191.166 338.382Z" fill="#F7A9A0"/>
<path opacity="0.3" d="M258.57 355.181C261.7 367.596 262.671 379.761 259.494 386.885C251.418 405.062 228.663 407.238 212.997 396.89C209.867 394.776 206.471 390.079 203.341 384.083C201.223 377.718 199.545 371.216 198.318 364.622C197.848 360.849 205.016 360.661 205.016 360.661C205.767 364.637 209.977 372.45 213.436 374.845C219.226 378.869 228.851 375.487 232.122 374.047C235.393 372.606 241.199 367.424 248.523 367.409C251.778 367.409 255.19 368.802 257.6 366.61C260.01 364.418 258.664 355.76 258.57 355.181Z" fill="#263238"/>
<path d="M234.501 356.308C234.501 356.23 234.36 356.512 234.391 356.606C235.408 359.064 236.16 362.054 234.219 363.714C234.219 363.714 234.219 363.886 234.219 363.855C236.879 362.43 235.862 358.531 234.501 356.308Z" fill="#263238"/>
<path d="M231.308 354.555C227.208 355.745 229.9 363.948 233.703 362.774C237.506 361.6 234.767 353.553 231.308 354.555Z" fill="#263238"/>
<path d="M248.32 351.423C248.32 351.314 248.554 351.423 248.586 351.58C249.337 354.132 250.636 356.919 253.187 356.997C253.265 356.997 253.296 357.138 253.187 357.154C250.307 357.686 248.617 353.96 248.32 351.423Z" fill="#263238"/>
<path d="M249.713 348.042C253.672 346.398 256.677 354.43 253.015 355.87C249.353 357.31 246.379 349.435 249.713 348.042Z" fill="#263238"/>
<path d="M226.879 351.893C227.844 351.222 228.774 350.501 229.665 349.733C230.713 348.903 231.652 348.339 232.075 346.993C232.159 346.602 232.11 346.195 231.938 345.835C231.765 345.475 231.477 345.183 231.12 345.004C230.356 344.76 229.541 344.722 228.757 344.895C227.974 345.069 227.25 345.447 226.66 345.991C225.307 346.911 224.342 348.3 223.953 349.889C223.885 350.259 223.925 350.64 224.069 350.986C224.214 351.333 224.455 351.63 224.765 351.842C225.075 352.055 225.439 352.172 225.815 352.181C226.19 352.19 226.56 352.09 226.879 351.893V351.893Z" fill="#263238"/>
<path d="M251.497 342.875C250.307 343.063 249.18 343.032 247.975 343.11C246.753 343.356 245.484 343.197 244.36 342.656C244.036 342.42 243.802 342.081 243.694 341.695C243.586 341.308 243.611 340.897 243.765 340.527C244.171 339.837 244.753 339.269 245.452 338.88C246.151 338.492 246.941 338.298 247.741 338.319C249.366 338.101 251.015 338.504 252.357 339.446C252.656 339.675 252.88 339.986 253.004 340.341C253.128 340.696 253.145 341.079 253.053 341.444C252.962 341.808 252.765 342.138 252.489 342.392C252.212 342.647 251.867 342.815 251.497 342.875V342.875Z" fill="#263238"/>
<path d="M238.21 379.511C238.93 380.043 239.665 380.826 240.62 380.779C241.601 380.646 242.542 380.298 243.374 379.761C243.392 379.753 243.411 379.75 243.431 379.754C243.45 379.757 243.467 379.766 243.481 379.78C243.495 379.794 243.504 379.811 243.507 379.83C243.511 379.849 243.508 379.869 243.499 379.887C243.192 380.448 242.739 380.916 242.188 381.241C241.638 381.566 241.009 381.737 240.369 381.734C239.816 381.661 239.296 381.426 238.876 381.058C238.455 380.691 238.153 380.207 238.006 379.668C237.912 379.511 238.116 379.433 238.21 379.511Z" fill="#263238"/>
<path d="M238.992 371.213C239.964 371.997 241.086 372.573 242.29 372.904C243.493 373.236 244.752 373.315 245.988 373.139C247.065 372.987 248.118 372.692 249.118 372.262C249.321 372.184 250.026 371.839 250.213 371.73C250.339 371.659 250.438 371.548 250.495 371.415C250.551 371.282 250.562 371.134 250.526 370.994V370.994L248.586 365.655C249.4 365.78 253.562 366.203 253.171 365.201C249.885 356.981 246.254 347.822 241.246 340.323C241.21 340.278 241.16 340.247 241.104 340.234C241.048 340.222 240.989 340.229 240.938 340.255C240.887 340.281 240.846 340.323 240.822 340.375C240.798 340.428 240.793 340.487 240.808 340.542C243.64 348.574 247.881 356.058 250.855 364.027C249.371 363.848 247.868 363.885 246.395 364.136C246.254 364.136 248.946 370.618 248.946 370.681C245.816 372.246 243.046 371.996 239.149 370.853C238.914 370.822 238.757 371.056 238.992 371.213Z" fill="#263238"/>
<path d="M247.584 371.511C246.963 373.229 245.913 374.76 244.532 375.957C243.763 376.584 242.815 376.951 241.825 377.006C239.665 377.131 239.024 375.3 238.883 373.624C238.822 372.725 238.864 371.821 239.008 370.931C241.733 372.028 244.736 372.231 247.584 371.511V371.511Z" fill="#263238"/>
<path d="M244.532 375.957C243.763 376.584 242.815 376.951 241.825 377.006C239.665 377.131 239.024 375.299 238.883 373.624C239.949 373.318 241.088 373.381 242.114 373.805C243.14 374.229 243.992 374.987 244.532 375.957V375.957Z" fill="#FF9CBD"/>
<path d="M201.604 368.426C208.209 366.657 204.233 350.453 204.233 350.453C204.233 350.453 214.062 346.539 216.206 331.54C216.206 331.54 230.995 337.113 241.59 332.871C258.195 326.232 253.171 303.906 245.784 300.65C235.33 296.047 220.963 308.791 220.963 308.791C220.963 308.791 194.937 306.865 190.962 325.105C187.814 325.982 185.115 328.021 183.41 330.81C181.705 333.6 181.121 336.932 181.776 340.135C183.481 352.425 196.674 369.726 201.604 368.426Z" fill="#263238"/>
<path d="M202.23 352.864C207.01 350.997 211.038 347.601 213.686 343.204C216.315 338.507 217.067 332.135 214.547 327.313C214.406 327.046 214.844 326.843 214.969 327.125C217.348 332.573 218.193 338.491 215.548 344.034C214.361 346.606 212.519 348.821 210.206 350.456C207.893 352.091 205.191 353.089 202.371 353.349C202.105 353.365 201.949 352.973 202.23 352.864Z" fill="#263238"/>
<path d="M179.444 333.184C181.963 328.19 187.018 326.467 192.167 325.606C192.465 325.606 192.543 326.029 192.245 326.06C187.081 326.514 182.683 330.914 180.899 335.579C179.115 340.245 180.758 345.13 182.715 349.388C186.439 357.623 193.079 364.187 201.354 367.816C201.374 367.833 201.388 367.857 201.394 367.882C201.4 367.908 201.397 367.935 201.387 367.96C201.376 367.984 201.358 368.004 201.336 368.018C201.313 368.032 201.286 368.038 201.26 368.035C196.61 366.272 192.369 363.581 188.793 360.125C185.217 356.668 182.382 352.52 180.461 347.932C178.63 343.408 177.128 337.803 179.444 333.184Z" fill="#263238"/>
<path d="M220.447 309.73C221.907 305.8 224.751 302.538 228.444 300.556C232.965 298.285 238.166 297.766 243.046 299.1C244.997 299.687 246.758 300.78 248.152 302.267C249.545 303.755 250.521 305.584 250.98 307.57C252.232 312.173 250.98 316.964 249.055 321.222C249.045 321.238 249.032 321.252 249.015 321.261C248.999 321.271 248.98 321.275 248.961 321.275C248.942 321.275 248.924 321.271 248.907 321.261C248.891 321.252 248.877 321.238 248.867 321.222C250.509 317.343 250.919 313.052 250.041 308.932C249.588 306.977 248.592 305.189 247.169 303.774C245.747 302.359 243.954 301.374 241.997 300.932C234.282 299.225 224.031 301.84 220.869 309.981C220.836 310.037 220.782 310.078 220.719 310.094C220.656 310.11 220.589 310.1 220.533 310.067C220.477 310.034 220.436 309.98 220.42 309.917C220.404 309.854 220.414 309.787 220.447 309.73V309.73Z" fill="#263238"/>
<path d="M204.499 368.207C204.499 368.207 193.544 357.248 188.505 361.444C183.466 365.64 193.2 382.408 200.243 383.691C201.138 383.918 202.069 383.96 202.981 383.817C203.893 383.674 204.766 383.347 205.548 382.857C206.331 382.367 207.006 381.724 207.533 380.966C208.06 380.208 208.428 379.351 208.615 378.446L204.499 368.207Z" fill="#F7A9A0"/>
<path d="M191.416 366.203C191.322 366.203 191.322 366.36 191.416 366.391C196.393 367.44 199.617 371.307 202.121 375.472C200.43 374 198.38 373.389 196.377 375.472C196.268 375.581 196.377 375.753 196.549 375.706C197.318 375.297 198.196 375.138 199.059 375.25C199.923 375.362 200.73 375.741 201.369 376.333C202.432 377.327 203.382 378.434 204.202 379.636C204.499 380.012 205.204 379.636 204.969 379.198V379.104C203.967 373.123 197.88 365.655 191.416 366.203Z" fill="#263238"/>
<path d="M234.282 411.873L226.097 434.449L197.457 407.207L189.929 416.601C189.929 416.601 218.522 460.439 218.631 458.435L227.145 438.911L240.855 451.828L238.632 418.323L234.282 411.873Z" fill="#EBEBEB"/>
<path d="M240.698 435.123C240.135 429.596 239.743 424.022 238.93 418.543C238.93 418.339 238.585 418.261 238.554 418.543C237.631 423.928 239.853 445.018 239.994 450.09C239.415 449.527 227.302 438.755 227.192 438.927C225.314 442.058 219.054 456.259 218.631 457.543C214.109 450.591 196.815 425.29 191.526 418.73C191.499 418.687 191.455 418.656 191.406 418.644C191.356 418.632 191.303 418.641 191.26 418.668C191.216 418.695 191.185 418.738 191.173 418.788C191.161 418.838 191.17 418.89 191.197 418.934C195.235 426.324 218.146 460.392 218.475 460.282C221.799 453.568 224.771 446.686 227.38 439.663C229.446 442.027 241.715 454.239 241.715 453.409C241.701 447.3 241.361 441.196 240.698 435.123Z" fill="#263238"/>
<path d="M180.571 434.622C153.965 485.427 123.26 561.125 139.771 577.643C156.282 594.16 207.927 620.353 247.756 621.481C255.472 621.684 264.971 555.724 256.739 555.113C235.314 553.594 193.67 535.449 190.461 532.317C188.896 530.752 204.703 472.26 207.88 439.945C211.699 400.804 196.502 404.233 180.571 434.622Z" fill="#F7A9A0"/>
<path d="M232.091 552.263C232.091 552.263 236.16 552.937 258.226 552.952C273.485 552.952 310.638 562.769 326.241 602.724C332.204 618.036 324.082 628.917 315.052 614.122C308.682 603.695 305.176 595.914 302.14 593.095C302.14 593.095 299.824 611.648 290.293 616.783C281.948 621.259 273.298 625.141 264.408 628.401C263.433 626.895 262.56 625.326 261.794 623.704C257.857 625.406 253.519 625.96 249.28 625.304C245.041 624.647 241.073 622.806 237.834 619.993L232.091 552.263Z" fill="#F7A9A0"/>
<path d="M272.781 555.301C278.806 560.562 291.373 571.944 298.431 584.829C306.256 599.139 317.477 628.823 306.851 634.491C299.026 638.656 293.783 627.696 293.783 627.696C293.783 627.696 295.849 640.941 287.993 643.165C280.825 645.184 277.257 636.464 277.257 636.464C277.257 636.464 277.116 644.715 269.839 645.325C261.106 646.077 262.812 628.667 253.312 621.762C251.168 620.212 272.781 555.301 272.781 555.301Z" fill="#F7A9A0"/>
<path d="M281.936 590.575C286.772 596.462 294.362 612.65 293.971 627.414C293.971 627.743 293.705 627.915 293.642 627.618C291.212 614.86 287.233 602.446 281.795 590.653C281.748 590.575 281.873 590.512 281.936 590.575Z" fill="#263238"/>
<path d="M267.71 598.904C271.372 604.415 278.462 621.449 277.538 636.385C277.538 636.73 277.257 636.886 277.21 636.573C275.425 623.724 272.19 611.119 267.569 598.998C267.538 598.888 267.663 598.841 267.71 598.904Z" fill="#263238"/>
<path d="M242.545 549.805L226.237 624.831C226.237 624.831 142.603 593.377 135.467 573.165C128.331 552.952 153.48 478.303 178.395 434.794C203.31 391.285 210.963 410.338 208.991 443.937C207.019 477.536 192.762 528.153 193.247 530.298C193.732 532.443 242.545 549.805 242.545 549.805Z" fill="#A6A6A6"/>
<path d="M228.538 549.539C224.547 565.853 221.214 582.339 217.896 598.81C216.957 603.507 216.096 608.126 215.095 612.776C215.103 612.799 215.119 612.82 215.14 612.835C215.161 612.849 215.186 612.857 215.212 612.857C215.238 612.857 215.262 612.849 215.283 612.835C215.304 612.82 215.32 612.799 215.329 612.776C217.333 604.619 219.555 596.524 221.449 588.336C223.342 580.148 225.079 571.912 226.613 563.646C227.474 558.949 228.366 554.252 229.086 549.555C229.073 549.493 229.039 549.437 228.991 549.396C228.942 549.356 228.881 549.333 228.818 549.331C228.755 549.329 228.693 549.349 228.642 549.387C228.591 549.424 228.554 549.478 228.538 549.539V549.539Z" fill="#263238"/>
<path d="M207.348 473.684C206.597 475.772 205.83 477.859 205.047 479.947C204.734 480.808 204.39 481.685 204.046 482.561C204.578 479.759 205.094 476.972 205.611 474.17C206.237 470.318 206.91 466.451 207.348 462.568C207.348 462.443 207.16 462.396 207.129 462.568C205.235 469.144 203.873 475.876 202.434 482.561C200.994 489.247 199.758 496.136 198.537 502.915C198.192 504.794 197.895 506.688 197.613 508.582C197.27 510.42 197.035 512.276 196.909 514.14C196.909 514.174 196.922 514.206 196.946 514.229C196.969 514.252 197.001 514.266 197.034 514.266C197.068 514.266 197.099 514.252 197.123 514.229C197.146 514.206 197.16 514.174 197.16 514.14C198.178 511.016 199.004 507.832 199.632 504.606C200.399 501.271 201.041 497.92 201.729 494.57C202.418 491.219 202.997 488.307 203.607 485.176C204.452 483.523 205.179 481.812 205.783 480.056C206.524 478.011 207.131 475.919 207.598 473.794C207.583 473.637 207.457 473.575 207.348 473.684Z" fill="#263238"/>
<path d="M407.653 662.266H105.607C99.3466 643.963 93.9787 621.559 96.6392 603.116C99.7692 581.666 114.292 536.952 131.821 496.652C145.765 464.541 161.556 435.217 175.046 422.645C187.097 411.356 195.861 406.331 196.565 405.422C197.269 404.514 198.552 398.048 198.897 397.453C198.897 397.453 199.272 397.453 199.898 397.453C201.964 397.813 206.988 399.019 212.669 400.444C221.605 402.73 232.153 405.595 235.174 406.706C235.475 406.788 235.761 406.92 236.019 407.098C236.629 407.99 239.149 416.946 239.477 417.587C239.806 418.229 264.909 515.409 265.942 519.573C266.975 523.738 309.918 540.067 335.162 570.957C360.405 601.847 394.444 630.452 399.155 642.445C401.722 649.224 405.133 656.864 407.653 662.266Z" fill="#276BD2"/>
<path opacity="0.1" d="M165.202 438.254C163.687 438.813 162.239 439.537 160.883 440.414L160.585 440.868C162.338 440.675 164.059 440.254 165.703 439.616C167.491 438.994 169.178 438.113 170.711 437.001C168.825 437.158 166.971 437.58 165.202 438.254V438.254ZM249.713 457.041L248.914 457.605C249.224 457.59 249.532 457.559 249.838 457.511C249.713 457.292 249.713 457.167 249.713 456.979V457.041ZM204.327 487.321C202.541 487.965 200.851 488.85 199.304 489.951C201.202 489.809 203.069 489.387 204.844 488.699C206.631 488.062 208.318 487.171 209.852 486.053C207.963 486.195 206.104 486.601 204.327 487.258V487.321ZM180.852 554.863C179.064 555.485 177.377 556.366 175.844 557.477C179.632 557.126 183.259 555.781 186.361 553.579C184.472 553.739 182.617 554.171 180.852 554.863V554.863ZM142.165 507.502C140.381 508.135 138.699 509.027 137.173 510.148C139.061 509.993 140.916 509.566 142.682 508.88C144.474 508.253 146.162 507.361 147.69 506.234C145.781 506.384 143.904 506.811 142.118 507.502H142.165ZM182.182 598.199C180.397 598.83 178.714 599.722 177.19 600.845C179.079 600.686 180.934 600.253 182.699 599.562C184.494 598.941 186.183 598.049 187.707 596.916C185.797 597.071 183.921 597.503 182.136 598.199H182.182ZM233.343 627.367C231.563 628.01 229.882 628.901 228.35 630.013C230.239 629.853 232.094 629.421 233.859 628.729C235.65 628.108 237.339 627.222 238.867 626.099C236.958 626.249 235.081 626.676 233.296 627.367H233.343ZM231.402 552.906C229.62 553.537 227.938 554.423 226.41 555.536C230.195 555.166 233.82 553.818 236.926 551.622C235.017 551.777 233.14 552.21 231.355 552.906H231.402ZM280.966 586.034C279.184 586.674 277.503 587.565 275.973 588.68C277.857 588.519 279.707 588.086 281.467 587.397C283.264 586.779 284.958 585.892 286.49 584.766C284.58 584.909 282.702 585.336 280.919 586.034H280.966ZM326.398 561.61C325.889 561.91 325.397 562.239 324.927 562.597C325.659 562.549 326.386 562.445 327.102 562.284L326.398 561.61ZM363.16 623.124C361.377 623.761 359.695 624.652 358.167 625.77C360.056 625.611 361.912 625.178 363.676 624.487C365.471 623.866 367.16 622.974 368.684 621.841C366.791 622 364.93 622.433 363.16 623.124V623.124ZM137.392 556.632C136.743 554.849 135.853 553.163 134.747 551.622C134.907 553.516 135.339 555.378 136.03 557.148C136.649 558.942 137.535 560.631 138.66 562.158C138.511 560.264 138.084 558.402 137.392 556.632V556.632ZM146 603.82C145.362 602.035 144.477 600.349 143.37 598.81C143.533 600.702 143.96 602.563 144.638 604.337C145.271 606.132 146.162 607.825 147.283 609.362C147.123 607.463 146.691 605.596 146 603.82V603.82ZM101.412 640.973C100.776 639.179 99.8853 637.487 98.7676 635.947C98.9274 637.846 99.3596 639.713 100.051 641.489C100.671 643.285 101.563 644.975 102.696 646.499C102.536 644.605 102.104 642.744 101.412 640.973V640.973ZM171.932 657.647C171.298 655.86 170.412 654.173 169.302 652.637C169.451 654.531 169.878 656.394 170.57 658.163C171.089 659.619 171.771 661.011 172.605 662.312H173.137C172.913 660.717 172.509 659.151 171.932 657.647V657.647ZM203.013 528.075C202.386 526.282 201.495 524.593 200.368 523.064C200.535 524.953 200.967 526.808 201.651 528.575C202.278 530.365 203.164 532.053 204.28 533.586C204.135 531.696 203.708 529.838 203.013 528.075V528.075ZM260.057 605.699C259.436 603.907 258.55 602.218 257.428 600.689C257.598 602.575 258.024 604.429 258.696 606.2C259.335 607.987 260.226 609.674 261.341 611.21C261.183 609.32 260.75 607.464 260.057 605.699V605.699ZM279.902 555.285C279.285 553.488 278.392 551.798 277.257 550.275C277.428 552.163 277.86 554.017 278.54 555.786C279.167 557.579 280.058 559.268 281.185 560.796C281.027 558.907 280.595 557.05 279.902 555.285V555.285ZM330.858 591.53C330.237 589.738 329.351 588.049 328.229 586.52C328.399 588.406 328.825 590.26 329.497 592.031C330.136 593.818 331.027 595.505 332.141 597.041C331.983 595.151 331.551 593.295 330.858 591.53V591.53ZM370.922 651.196C370.302 649.396 369.41 647.701 368.277 646.171C368.452 648.058 368.884 649.912 369.561 651.682C370.194 653.477 371.085 655.17 372.206 656.707C372.049 654.818 371.617 652.961 370.922 651.196V651.196ZM179.804 466.451C179.154 464.673 178.265 462.993 177.159 461.457C177.313 463.345 177.74 465.201 178.426 466.968C179.06 468.754 179.946 470.441 181.056 471.978C180.908 470.079 180.486 468.213 179.804 466.435V466.451ZM183.09 416.632C182.981 416.366 182.887 416.1 182.762 415.834L181.588 416.82L181.713 417.149C182.347 418.936 183.232 420.623 184.342 422.159C184.202 420.26 183.78 418.392 183.09 416.617V416.632ZM230.588 431.255C229.951 429.467 229.061 427.78 227.943 426.245C228.103 428.14 228.535 430.001 229.227 431.772C229.858 433.561 230.738 435.253 231.84 436.798C231.7 434.893 231.278 433.02 230.588 431.24V431.255ZM217.035 403.684C215.32 402.886 213.503 402.328 211.636 402.025C213.083 403.255 214.702 404.267 216.44 405.031C218.147 405.855 219.967 406.42 221.84 406.706C220.386 405.477 218.769 404.455 217.035 403.669V403.684ZM160.601 532.944C158.888 532.122 157.064 531.557 155.186 531.268C158.137 533.679 161.655 535.296 165.406 535.965C163.958 534.728 162.34 533.705 160.601 532.928V532.944ZM261.387 502.304C260.458 501.983 259.499 501.757 258.524 501.631C259.526 502.49 260.623 503.23 261.794 503.838C261.669 503.322 261.528 502.805 261.387 502.288V502.304ZM118.346 581.932C116.626 581.115 114.797 580.551 112.915 580.257C115.851 582.693 119.375 584.313 123.135 584.954C121.69 583.721 120.078 582.698 118.346 581.917V581.932ZM230.635 516.661C228.912 515.851 227.084 515.287 225.205 514.986C226.654 516.212 228.272 517.224 230.009 517.992C231.723 518.798 233.54 519.362 235.408 519.667C233.972 518.438 232.364 517.425 230.635 516.661V516.661ZM229.367 591.467C227.64 590.669 225.814 590.105 223.937 589.792C225.39 591.018 227.007 592.035 228.741 592.814C230.462 593.615 232.284 594.178 234.156 594.489C232.709 593.263 231.097 592.246 229.367 591.467V591.467ZM307.117 572.758C305.401 571.945 303.577 571.381 301.702 571.083C303.15 572.312 304.768 573.325 306.507 574.089C308.218 574.899 310.036 575.463 311.906 575.764C310.476 574.542 308.879 573.529 307.164 572.758H307.117ZM330.451 623.672C328.731 622.872 326.909 622.314 325.036 622.013C326.484 623.242 328.102 624.255 329.841 625.019C331.553 625.829 333.37 626.393 335.24 626.694C333.809 625.469 332.213 624.452 330.498 623.672H330.451ZM216.988 457.261C215.278 456.448 213.46 455.889 211.589 455.601C213.041 456.82 214.659 457.827 216.394 458.591C218.102 459.414 219.921 459.983 221.793 460.282C220.356 459.057 218.755 458.04 217.035 457.261H216.988ZM145.953 474.029C145.143 475.741 144.579 477.56 144.278 479.43C145.507 477.988 146.519 476.374 147.283 474.639C148.107 472.932 148.671 471.112 148.957 469.238C147.736 470.686 146.724 472.298 145.953 474.029V474.029ZM203.232 573.368C202.438 575.098 201.875 576.925 201.557 578.801C202.782 577.347 203.799 575.729 204.578 573.995C205.379 572.273 205.942 570.451 206.252 568.578C205.031 570.029 204.014 571.641 203.232 573.368V573.368ZM238.304 485.693C237.501 487.408 236.937 489.225 236.629 491.094C237.861 489.651 238.878 488.037 239.65 486.303C240.447 484.587 241.005 482.77 241.308 480.902C240.076 482.342 239.064 483.956 238.304 485.693V485.693ZM251.371 572.805C250.568 574.52 250.005 576.338 249.697 578.206C250.928 576.768 251.946 575.16 252.717 573.431C253.524 571.71 254.093 569.888 254.408 568.014C253.171 569.457 252.148 571.07 251.371 572.805V572.805ZM301.154 541.492C301.135 541.557 301.109 541.62 301.076 541.68C300.27 543.394 299.707 545.212 299.401 547.081C300.628 545.672 301.64 544.089 302.406 542.384L301.154 541.492ZM355.851 594.348C355.101 596.003 354.575 597.751 354.286 599.546C355.353 598.315 356.248 596.946 356.947 595.475L355.851 594.348ZM159.912 578.457C159.121 580.176 158.558 581.992 158.238 583.858C159.459 582.413 160.476 580.806 161.258 579.083C162.05 577.352 162.613 575.526 162.933 573.65C161.705 575.114 160.689 576.742 159.912 578.488V578.457ZM281.013 625.144C279.225 625.766 277.537 626.647 276.005 627.759C279.792 627.408 283.42 626.063 286.521 623.86C284.633 624.02 282.777 624.453 281.013 625.144V625.144ZM260.12 647.204C259.31 648.916 258.746 650.735 258.445 652.605C259.67 651.157 260.687 649.545 261.466 647.815C262.262 646.092 262.82 644.27 263.125 642.397C261.901 643.846 260.894 645.466 260.135 647.204H260.12ZM303.815 607.202C303.017 608.918 302.459 610.735 302.156 612.603C303.378 611.156 304.39 609.543 305.161 607.812C305.959 606.085 306.523 604.257 306.835 602.38C305.615 603.84 304.604 605.463 303.83 607.202H303.815ZM396.823 638.342C396.448 639 396.103 639.673 395.79 640.346C394.985 642.061 394.421 643.879 394.116 645.748C395.338 644.306 396.349 642.698 397.121 640.973C397.308 640.534 397.496 640.096 397.668 639.658C397.366 639.24 397.084 638.802 396.823 638.342ZM169.897 629.387C168.115 630.018 166.433 630.904 164.905 632.017C166.791 631.855 168.646 631.428 170.414 630.749C172.203 630.116 173.89 629.224 175.422 628.103C173.528 628.263 171.667 628.695 169.897 629.387V629.387ZM116.311 618.02C114.531 618.655 112.849 619.541 111.319 620.651C115.11 620.284 118.74 618.935 121.851 616.737C119.939 616.877 118.057 617.294 116.264 617.973L116.311 618.02ZM302.923 646.609C302.303 644.813 301.411 643.124 300.278 641.599C300.453 643.486 300.885 645.34 301.561 647.11C302.194 648.9 303.085 650.588 304.206 652.12C304.048 650.23 303.616 648.374 302.923 646.609V646.609ZM223.186 657.568C222.565 655.776 221.678 654.087 220.556 652.558C220.726 654.445 221.153 656.299 221.824 658.07C222.361 659.525 223.048 660.921 223.874 662.234H224.391C224.136 660.662 223.705 659.123 223.107 657.647L223.186 657.568ZM199.711 639.892C197.986 639.09 196.158 638.531 194.28 638.233C195.73 639.459 197.348 640.471 199.085 641.239C200.803 642.047 202.625 642.611 204.499 642.914C203.023 641.71 201.384 640.719 199.632 639.971L199.711 639.892ZM140.585 641.646C138.868 640.833 137.045 640.269 135.17 639.971C136.621 641.2 138.238 642.217 139.974 642.992C141.689 643.79 143.506 644.349 145.374 644.652C143.91 643.45 142.281 642.464 140.538 641.724L140.585 641.646ZM336.993 651.04C336.183 652.752 335.619 654.571 335.318 656.441C336.55 654.998 337.567 653.384 338.339 651.65C339.137 649.934 339.695 648.117 339.998 646.249C338.745 647.717 337.716 649.363 336.946 651.134L336.993 651.04ZM205.579 613.026C204.771 614.745 204.208 616.568 203.905 618.443C205.127 616.996 206.138 615.383 206.91 613.652C207.715 611.927 208.279 610.099 208.584 608.22C207.358 609.67 206.347 611.289 205.579 613.026V613.026ZM120.114 657.568C119.419 659.071 118.894 660.646 118.549 662.265H119.003C119.958 660.996 120.772 659.626 121.429 658.179C122.235 656.454 122.798 654.626 123.103 652.746C121.888 654.207 120.882 655.83 120.114 657.568V657.568ZM255.973 533.288C255.154 534.996 254.595 536.816 254.314 538.69C255.543 537.241 256.555 535.622 257.318 533.883C258.121 532.168 258.685 530.35 258.993 528.482C257.764 529.933 256.748 531.551 255.973 533.288V533.288ZM176.157 503.635C175.335 505.355 174.766 507.185 174.467 509.068C176.895 506.126 178.513 502.602 179.162 498.844C177.941 500.292 176.93 501.905 176.157 503.635ZM198.615 433.541C197.796 435.249 197.237 437.07 196.956 438.943C198.182 437.498 199.194 435.884 199.961 434.152C200.762 432.43 201.325 430.608 201.636 428.735C200.39 430.183 199.358 431.802 198.568 433.541H198.615Z" fill="black"/>
<g opacity="0.1">
<path opacity="0.1" d="M283.125 530.486C279.197 539.879 270.871 559.215 267.569 563.677C263.172 569.611 254.376 568.014 247.772 568.578C241.168 569.141 219.148 579.302 216.472 578.206C213.796 577.11 248.351 558.213 254.799 554.158C261.247 550.103 266.051 526.446 265.942 519.714C266.286 521.358 273.266 524.881 283.125 530.486Z" fill="black"/>
<path opacity="0.1" d="M237.443 583.498C228.194 586.066 212.168 598.528 205.626 600.125C199.085 601.722 204.969 605.37 213.608 605.495C222.247 605.621 229.743 602.364 232.764 597.573C235.784 592.782 240.463 590.168 244.11 587.35C247.756 584.532 240.823 582.559 237.443 583.498Z" fill="black"/>
</g>
<path d="M199.131 405.814C202.825 406.409 206.456 407.379 210.087 408.35C213.717 409.321 217.16 410.197 220.697 411.137C227.834 413.063 229.68 413.548 236.66 416.006C236.697 416.021 236.726 416.049 236.742 416.084C236.759 416.12 236.762 416.16 236.75 416.198C236.738 416.235 236.713 416.267 236.679 416.286C236.645 416.306 236.605 416.312 236.566 416.303C231.098 415.275 225.686 413.963 220.353 412.374C216.816 411.413 213.295 410.432 209.789 409.43C206.205 408.397 202.559 407.442 199.085 406.111C199.054 406.097 199.028 406.073 199.012 406.043C198.996 406.013 198.99 405.978 198.996 405.945C199.001 405.911 199.017 405.88 199.042 405.856C199.066 405.833 199.098 405.818 199.131 405.814V405.814Z" fill="#263238"/>
<g opacity="0.1">
<path opacity="0.1" d="M164.858 461.347C161.939 466.013 159.515 470.972 157.628 476.142C155.632 481.265 153.913 486.491 152.479 491.799C151.759 494.445 151.18 497.137 150.679 499.815C150.132 502.465 149.916 505.174 150.037 507.878C150.46 513.295 151.289 518.837 152.025 524.223C153.59 535.182 155.155 546.032 156.72 556.929L159.114 573.29L161.399 589.667C160.304 584.265 159.333 578.833 158.269 573.415L155.437 557.117C153.621 546.252 151.931 535.355 150.366 524.427C149.662 518.947 148.801 513.467 148.504 507.94C148.397 505.129 148.639 502.316 149.223 499.564C149.766 496.84 150.439 494.152 151.242 491.501C152.793 486.176 154.659 480.948 156.829 475.845C158.949 470.724 161.642 465.86 164.858 461.347V461.347Z" fill="black"/>
</g>
<path d="M139.067 662.265H93.5718L65.0417 450.716C68.5317 448.227 129.207 440.273 129.207 440.273L131.695 496.636L131.977 502.899L134.403 558.009L134.888 568.812L135.029 572.038L135.123 574.167V575.498L135.53 584.891L136.203 599.984L136.672 610.505L137.173 622.091L137.251 623.892L137.376 626.506L138.769 658.179L139.067 662.265Z" fill="#DBDBDB"/>
<path d="M316.038 554.158L308.463 575.263L302.265 592.532L296.71 607.985L295.113 612.431L293.204 617.754L292.171 620.651L291.498 622.514L290.841 624.346L290.825 624.408L284.064 643.227L277.21 662.313H257.553L262.702 638.687L264.987 628.197L267.053 618.725L267.147 618.318L267.507 616.659L269.948 605.464L270.339 603.711L270.433 603.288L275.535 579.85L266.896 580.163H266.881L264.674 580.257L259.243 580.445L250.198 580.79L244.235 581.009L243.202 581.04L242.294 581.072L239.509 581.181L235.706 581.322L234.563 581.369L232.936 581.416L231.183 581.494L229.884 581.541L222.935 581.792L221.355 581.854L147.987 584.563L145.452 584.657L138.487 584.907L138.128 584.923L135.655 585.017L133.902 585.08L133.307 575.623L133.229 574.292L132.9 569.047L134.481 568.922L134.951 568.875L135.702 568.813L224.312 561.611L225.737 561.501L227.036 561.391L232.826 560.922L240.26 560.311L254.11 559.2L259.259 558.777L264.815 558.323H264.831L271.967 557.743L275.222 557.477L279.573 557.117L316.038 554.158Z" fill="#A6A6A6"/>
<path d="M565.844 547.676C584.78 566.198 587.957 594.943 583.967 619.993C583.873 620.557 582.981 620.416 582.981 619.868C582.981 614.153 583.153 608.486 583.137 602.849L582.856 602.082C577.91 598.497 573.372 594.442 570.555 588.868C567.425 582.606 566.157 575.639 563.747 569.157C563.512 568.531 564.185 568.718 564.608 569.032C576.126 577.517 579.788 586.661 583.09 598.873C583.021 592.488 582.35 586.124 581.087 579.866C578.599 568.264 573.685 556.788 565.359 548.193C565.046 547.849 565.531 547.347 565.844 547.676Z" fill="#263238"/>
<path d="M562.307 549.837C559.052 549.946 557.017 555.144 554.482 556.663C554.216 556.881 553.907 557.041 553.575 557.131C553.243 557.222 552.896 557.241 552.556 557.188C552.216 557.134 551.891 557.01 551.603 556.822C551.315 556.635 551.069 556.388 550.882 556.099C548.363 552.592 551.821 548.271 555.061 545.844C552.745 546.784 550.82 548.475 548.316 548.976C547.996 549.082 547.657 549.118 547.322 549.081C546.987 549.043 546.664 548.934 546.376 548.76C546.087 548.586 545.84 548.351 545.651 548.072C545.461 547.793 545.335 547.476 545.28 547.144C544.169 542.369 550.178 540.239 554.294 540.13C552.291 538.752 546.579 534.979 549.599 533.116C552.62 531.253 559.38 536.654 561.571 538.423C564.795 541.038 568.63 544.936 568.771 549.023C568.974 553.767 564.811 550.823 562.307 549.837Z" fill="#FFC727"/>
<path opacity="0.1" d="M562.307 549.837C559.052 549.946 557.017 555.144 554.482 556.663C554.216 556.881 553.907 557.041 553.575 557.131C553.243 557.222 552.896 557.241 552.556 557.188C552.216 557.134 551.891 557.01 551.603 556.822C551.315 556.635 551.069 556.388 550.882 556.099C548.363 552.592 551.821 548.271 555.061 545.844C552.745 546.784 550.82 548.475 548.316 548.976C547.996 549.082 547.657 549.118 547.322 549.081C546.987 549.043 546.664 548.934 546.376 548.76C546.087 548.586 545.84 548.351 545.651 548.072C545.461 547.793 545.335 547.476 545.28 547.144C544.169 542.369 550.178 540.239 554.294 540.13C552.291 538.752 546.579 534.979 549.599 533.116C552.62 531.253 559.38 536.654 561.571 538.423C564.795 541.038 568.63 544.936 568.771 549.023C568.974 553.767 564.811 550.823 562.307 549.837Z" fill="black"/>
<path d="M563.246 550.635C559.083 548.741 551.086 551.465 550.413 549.884C549.036 546.674 555.421 544.482 558.88 544.06C555.75 543.198 549.615 541.821 549.803 538.752C550.022 535.026 559.193 538.235 563.747 541.774C569.553 546.22 569.506 550.526 568.551 551.387C567.237 552.561 563.935 550.948 563.246 550.635Z" fill="#FFC727"/>
<path d="M608.96 545.829C589.319 563.63 585.078 592.156 588.114 617.41C588.114 617.973 589.069 617.848 589.1 617.316C589.319 611.601 589.35 605.934 589.585 600.297C589.695 600.047 589.789 599.812 589.914 599.546C594.984 596.148 599.664 592.266 602.7 586.817C606.08 580.727 607.598 573.76 610.259 567.372C610.509 566.761 609.836 566.918 609.398 567.215C597.567 575.263 593.56 584.25 589.789 596.336C590.079 589.957 590.97 583.62 592.449 577.408C595.376 565.916 600.728 554.628 609.367 546.361C609.758 546.032 609.289 545.516 608.96 545.829Z" fill="#263238"/>
<path d="M612.419 548.13C615.674 548.365 617.505 553.641 619.993 555.254C620.249 555.481 620.55 555.652 620.877 555.755C621.203 555.858 621.548 555.89 621.888 555.85C622.228 555.811 622.555 555.699 622.849 555.523C623.143 555.348 623.396 555.112 623.593 554.831C626.253 551.418 622.967 547.003 619.821 544.42C622.09 545.453 623.953 547.207 626.441 547.77C626.758 547.89 627.096 547.941 627.434 547.918C627.772 547.895 628.101 547.799 628.398 547.637C628.696 547.475 628.954 547.25 629.157 546.979C629.359 546.707 629.501 546.395 629.571 546.064C630.839 541.367 624.876 538.971 620.823 538.721C622.873 537.406 628.726 533.852 625.768 531.879C622.81 529.906 615.846 535.01 613.592 536.732C610.275 539.222 606.299 542.995 605.986 547.05C605.611 551.809 609.883 549.038 612.419 548.13Z" fill="#FFC727"/>
<path opacity="0.1" d="M612.419 548.13C615.674 548.365 617.505 553.641 619.993 555.254C620.249 555.481 620.55 555.652 620.877 555.755C621.203 555.858 621.548 555.89 621.888 555.85C622.228 555.811 622.555 555.699 622.849 555.523C623.143 555.348 623.396 555.112 623.593 554.831C626.253 551.418 622.967 547.003 619.821 544.42C622.09 545.453 623.953 547.207 626.441 547.77C626.758 547.89 627.096 547.941 627.434 547.918C627.772 547.895 628.101 547.799 628.398 547.637C628.696 547.475 628.954 547.25 629.157 546.979C629.359 546.707 629.501 546.395 629.571 546.064C630.839 541.367 624.876 538.971 620.823 538.721C622.873 537.406 628.726 533.852 625.768 531.879C622.81 529.906 615.846 535.01 613.592 536.732C610.275 539.222 606.299 542.995 605.986 547.05C605.611 551.809 609.883 549.038 612.419 548.13Z" fill="black"/>
<path d="M611.448 548.897C615.689 547.159 623.561 550.197 624.313 548.647C625.799 545.516 619.508 543.042 616.081 542.494C619.211 541.742 625.471 540.615 625.346 537.546C625.252 533.789 616.034 536.67 611.26 540.02C605.298 544.247 605.173 548.553 606.096 549.414C607.395 550.666 610.76 549.179 611.448 548.897Z" fill="#FFC727"/>
<path d="M588.897 592.845C587.578 602.378 585.542 611.799 582.809 621.026C582.762 621.199 582.651 621.348 582.498 621.442C582.346 621.536 582.163 621.568 581.988 621.532C581.812 621.496 581.657 621.395 581.554 621.249C581.45 621.102 581.407 620.922 581.431 620.745C582.73 612.071 585.078 603.523 586.361 594.896C587.794 586.101 588.318 577.182 587.926 568.28C587.112 553.673 583.137 538.126 573.606 526.697C573.403 526.43 573.841 526.039 574.06 526.29C593.138 548.553 590.102 575.842 590.086 578.284C592.793 569.078 595.579 558.51 605.736 549.132C606.174 548.725 606.518 548.913 606.44 549.602C604.609 566.699 599.867 575.623 589.961 584.751C589.679 587.475 589.319 590.246 588.897 592.845Z" fill="#263238"/>
<path d="M573.372 529.28C569.944 527.714 565.202 532.114 561.806 532.411C561.421 532.505 561.02 532.516 560.631 532.443C560.241 532.37 559.871 532.215 559.546 531.989C559.22 531.762 558.947 531.469 558.743 531.129C558.539 530.789 558.41 530.41 558.363 530.016C557.518 525.115 563.277 522.36 567.863 521.483C564.983 521.295 562.135 522.078 559.302 521.311C558.919 521.256 558.551 521.12 558.224 520.912C557.898 520.704 557.619 520.428 557.407 520.103C557.195 519.779 557.055 519.413 556.996 519.03C556.937 518.647 556.96 518.255 557.064 517.882C558.332 512.355 565.625 513.185 569.944 515.142C568.567 512.7 564.545 505.905 568.63 505.514C572.714 505.122 577.002 514.109 578.38 517.052C580.399 521.374 582.417 527.354 580.524 531.675C578.364 536.717 575.469 531.566 573.372 529.28Z" fill="#FFC727"/>
<path opacity="0.1" d="M573.372 529.28C569.944 527.714 565.202 532.114 561.806 532.411C561.421 532.505 561.02 532.516 560.631 532.443C560.241 532.37 559.871 532.215 559.546 531.989C559.22 531.762 558.947 531.469 558.743 531.129C558.539 530.789 558.41 530.41 558.363 530.016C557.518 525.115 563.277 522.36 567.863 521.483C564.983 521.295 562.135 522.078 559.302 521.311C558.919 521.256 558.551 521.12 558.224 520.912C557.898 520.704 557.619 520.428 557.407 520.103C557.195 519.779 557.055 519.413 556.996 519.03C556.937 518.647 556.96 518.255 557.064 517.882C558.332 512.355 565.625 513.185 569.944 515.142C568.567 512.7 564.545 505.905 568.63 505.514C572.714 505.122 577.002 514.109 578.38 517.052C580.399 521.374 582.417 527.354 580.524 531.675C578.364 536.717 575.469 531.566 573.372 529.28Z" fill="black"/>
<path d="M573.951 530.579C570.586 526.524 560.914 525.319 561.008 523.346C561.18 519.322 568.927 520.215 572.714 521.546C569.85 519.056 564.232 514.579 565.969 511.479C568.082 507.721 575.907 515.643 578.912 521.624C582.699 529.17 580.477 533.617 579.068 534.024C577.112 534.587 574.498 531.253 573.951 530.579Z" fill="#FFC727"/>
<path d="M601.448 597.98L609.868 662.265H558.661C559.709 656.566 569.24 597.855 569.24 597.855L601.448 597.98Z" fill="#FFC727"/>
<path d="M0 662.312L79.252 661.921L158.504 661.795L317.008 661.529L475.512 661.78L554.764 661.921L634.016 662.312L554.764 662.688L475.512 662.829L317.008 663.095L158.504 662.829L79.252 662.688L0 662.312Z" fill="#263238"/>
<path d="M431.285 694.799H476.952V625.817H431.285V694.799Z" fill="#8627FF"/>
<path d="M441.348 619.007H466.857V605.934H441.348V619.007Z" fill="#A6A6A6"/>
<path d="M463.477 619.007H444.744V625.817H463.477V619.007Z" fill="#8627FF"/>
<path d="M436.277 694.768C435.401 692.561 433.997 690.603 432.188 689.066C430.379 687.529 428.22 686.46 425.901 685.953C425.04 685.296 425.557 684.388 425.072 684.184C423.009 683.759 420.884 683.732 418.812 684.106C418.201 684.435 418.483 685.672 417.873 685.813C409.375 687.801 404.695 693.375 403.271 694.267C401.534 695.363 392.222 695.128 385.712 693.969C379.201 692.811 371.47 687.957 369.06 684.904C369.06 684.904 314.473 685.891 277.1 697.602V699.167L376.212 696.318C383.589 698.992 391.388 700.307 399.233 700.201C399.716 700.166 400.199 700.265 400.629 700.485C401.06 700.706 401.421 701.041 401.675 701.453C402.661 702.596 407.152 712.507 420.314 712.084C433.476 711.661 439.344 701.187 436.277 694.768ZM410.611 704.866C406.683 700.373 408.029 694.502 413.913 691.324C419.798 688.145 426.12 688.693 429.751 692.639C434.712 698.009 431.112 703.755 427.137 706.228C422.755 708.953 414.555 709.36 410.611 704.866Z" fill="#37474F"/>
<path d="M376.165 690.322L364.49 696.584L329.7 697.586L350.515 685.75C361.704 684.998 369.076 684.857 369.076 684.857C371.102 687.078 373.502 688.927 376.165 690.322Z" fill="#263238"/>
<path d="M279.244 697.727C282.765 696.709 286.349 695.864 289.949 695.034C293.548 694.204 297.164 693.468 300.794 692.795C308.056 691.417 315.38 690.275 322.704 689.351C330.029 688.427 337.447 687.785 344.849 687.3C346.696 687.206 348.543 687.049 350.389 686.987L355.945 686.783C357.808 686.705 359.654 686.783 361.501 686.705H367.057C359.654 686.971 352.267 687.237 344.881 687.832C337.494 688.427 330.138 689.1 322.798 690.04C315.458 690.979 308.166 692.044 300.888 693.312C293.611 694.58 286.396 695.989 279.244 697.727Z" fill="#455A64"/>
<path d="M384.397 682.963C390.454 680.505 399.484 678.36 401.44 679.049C403.396 679.738 412.16 686.611 422.051 683.746C429.954 681.523 433.476 676.247 434.571 671.503C435.667 666.759 438.233 667.103 441.395 665.804C445.399 664.034 448.702 660.983 450.785 657.13C452.537 653.294 448.5 651.149 446.184 655.564C443.867 659.98 440.894 661.655 436.199 662.657C431.504 663.659 426.48 655.408 413.819 658.101C401.158 660.794 398.873 670.986 398.169 672.301C397.465 673.616 397.027 673.867 396.103 674.023C388.446 675.531 381.134 678.446 374.538 682.619L277.225 700.201L277.632 701.766C316.883 705.508 370.343 695.238 370.343 695.238C371.955 691.746 378.34 685.421 384.397 682.963ZM406.072 674.07C404.038 668.716 407.481 663.487 414.21 662.062C420.94 660.637 426.73 662.876 428.655 667.635C431.332 674.117 425.791 678.595 421.128 679.879C415.995 681.288 408.123 679.487 406.072 674.07Z" fill="#455A64"/>
<path d="M358.903 690.447C358.386 689.943 357.711 689.634 356.992 689.571C356.274 689.509 355.556 689.696 354.959 690.102C354.675 690.267 354.432 690.494 354.248 690.767C354.064 691.039 353.944 691.35 353.897 691.675C353.851 692.001 353.878 692.333 353.978 692.646C354.078 692.959 354.248 693.246 354.474 693.484C354.989 693.99 355.663 694.302 356.382 694.367C357.101 694.433 357.82 694.248 358.418 693.844C358.7 693.675 358.941 693.446 359.123 693.172C359.306 692.898 359.424 692.587 359.471 692.261C359.517 691.935 359.49 691.604 359.392 691.29C359.294 690.976 359.127 690.688 358.903 690.447V690.447Z" fill="#C7C7C7"/>
<path d="M358.246 690.901C357.883 690.541 357.407 690.319 356.898 690.273C356.389 690.227 355.881 690.361 355.46 690.65C355.262 690.77 355.093 690.932 354.966 691.125C354.838 691.318 354.755 691.537 354.722 691.766C354.689 691.996 354.707 692.229 354.775 692.45C354.843 692.671 354.96 692.875 355.116 693.046C355.48 693.403 355.956 693.623 356.464 693.669C356.972 693.714 357.48 693.583 357.901 693.296C358.099 693.176 358.268 693.014 358.396 692.821C358.523 692.628 358.607 692.409 358.64 692.18C358.673 691.951 358.654 691.717 358.586 691.496C358.518 691.275 358.402 691.072 358.246 690.901Z" fill="#EBEBEB"/>
<path d="M278.587 700.858C282.364 700.942 286.135 700.942 289.902 700.858C293.668 700.775 297.44 700.712 301.217 700.671C308.76 700.451 316.304 700.123 323.831 699.575C327.587 699.355 331.343 699.011 335.115 698.714C338.887 698.416 342.627 698.009 346.367 697.555L351.986 696.913L357.588 696.146L360.39 695.786L363.176 695.347L368.763 694.502C361.376 695.895 353.926 697.164 346.43 698.056L343.629 698.416L340.812 698.729L335.178 699.308C331.406 699.622 327.65 699.997 323.878 700.232C316.335 700.718 308.776 701.062 301.233 701.172C293.689 701.281 286.115 701.266 278.587 700.858Z" fill="#37474F"/>
<path d="M433.757 670.485C433.444 673.318 432.294 675.995 430.455 678.172C428.409 680.517 425.738 682.233 422.755 683.12C419.635 684.07 416.319 684.173 413.146 683.417C410.103 682.684 407.194 681.48 404.523 679.847C403.881 679.487 403.208 679.033 402.598 678.751C401.906 678.503 401.173 678.386 400.438 678.407C398.86 678.44 397.287 678.624 395.743 678.955C392.672 679.625 389.645 680.488 386.682 681.538C383.768 682.542 381 683.926 378.45 685.656C375.923 687.237 373.684 689.239 371.83 691.574C372.65 690.358 373.611 689.244 374.694 688.255C378.116 685.121 382.113 682.681 386.463 681.069C389.436 679.954 392.485 679.054 395.587 678.376C397.172 678.028 398.785 677.828 400.407 677.781C401.254 677.756 402.097 677.889 402.895 678.172C403.678 678.532 404.241 678.939 404.914 679.315C407.503 680.922 410.328 682.111 413.287 682.838C416.328 683.58 419.509 683.52 422.521 682.666C425.444 681.851 428.076 680.222 430.111 677.969C432.018 675.875 433.284 673.277 433.757 670.485V670.485Z" fill="#263238"/>
<path d="M244.266 671.174H217.927V702.048H244.266V671.174Z" fill="#263238"/>
<path d="M245.784 682.055H216.331V685.139H245.784V682.055Z" fill="#263238"/>
<path d="M245.784 685.828H216.331V688.912H245.784V685.828Z" fill="#263238"/>
<path d="M245.784 689.586H216.331V692.67H245.784V689.586Z" fill="#263238"/>
<path d="M243.061 671.174H219.148C219.148 671.174 211.041 649.881 212.544 647.94C214.046 645.998 221.182 643.384 231.105 643.384C240.385 643.384 248.194 645.983 249.697 647.94C251.199 649.897 243.061 671.174 243.061 671.174Z" fill="#FFC727"/>
<path opacity="0.5" d="M243.061 671.174H219.148C219.148 671.174 211.041 649.881 212.544 647.94C214.046 645.998 221.182 643.384 231.105 643.384C240.385 643.384 248.194 645.983 249.697 647.94C251.199 649.897 243.061 671.174 243.061 671.174Z" fill="white"/>
<path d="M213.436 648.378C213.561 648.738 214.015 648.816 214.343 648.957C214.691 649.08 215.047 649.179 215.408 649.255C216.143 649.443 216.879 649.568 217.614 649.693C219.101 649.944 220.588 650.116 222.074 650.257C225.053 650.572 228.047 650.723 231.042 650.711C234.041 650.732 237.04 650.596 240.025 650.304C241.516 650.183 243 649.985 244.47 649.709C245.957 649.548 247.398 649.096 248.711 648.378C247.474 649.263 246.059 649.867 244.564 650.147C243.093 650.507 241.606 650.773 240.103 650.993C234.099 651.859 228.001 651.859 221.996 650.993C220.431 650.773 219.007 650.507 217.536 650.163C216.8 649.975 216.065 649.787 215.345 649.536C214.985 649.411 214.625 649.286 214.281 649.129C213.936 648.973 213.53 648.769 213.436 648.378Z" fill="#FFC727"/>
<path d="M220.729 671.205C219.57 668.559 218.6 665.835 217.599 663.126C216.625 660.405 215.789 657.635 215.095 654.829L218.037 662.97C218.976 665.71 219.977 668.434 220.729 671.205Z" fill="#FFC727"/>
<path d="M217.943 660.12C218.663 661.905 219.226 663.753 219.79 665.584C220.353 667.416 220.854 669.279 221.214 671.174C220.494 669.405 219.93 667.557 219.367 665.71C218.804 663.862 218.303 662.015 217.943 660.12Z" fill="#FFC727"/>
<path d="M239.681 671.174C240.589 668.043 241.606 665.083 242.592 662.046L244.157 657.506C244.642 655.94 245.158 654.468 245.597 652.934C244.963 656.073 244.116 659.164 243.061 662.187C241.981 665.209 240.933 668.23 239.681 671.174Z" fill="#FFC727"/>
<path d="M235.095 671.174C235.753 666.477 236.739 661.89 237.725 657.287C237.54 659.638 237.205 661.976 236.723 664.285C236.253 666.602 235.768 668.904 235.095 671.174Z" fill="#FFC727"/>
<path d="M224.672 671.174C224.015 668.904 223.53 666.602 223.107 664.285C222.64 661.973 222.306 659.637 222.106 657.287C223.107 661.89 224.078 666.493 224.672 671.174Z" fill="#FFC727"/>
<path d="M234.062 659.776C234.172 661.686 234.062 663.596 234.062 665.506C234.062 667.416 233.859 669.311 233.593 671.205C233.483 669.295 233.593 667.385 233.593 665.49C233.593 663.596 233.812 661.67 234.062 659.776Z" fill="#FFC727"/>
<path d="M238.366 662.391C238.135 663.92 237.8 665.431 237.365 666.915C236.965 668.411 236.381 669.852 235.627 671.205C235.894 670.485 236.081 669.733 236.3 668.998L236.926 666.79C237.396 665.397 237.803 663.831 238.366 662.391Z" fill="#FFC727"/>
<path d="M223.405 653.576C223.499 655.048 223.671 656.519 223.827 657.991L224.328 662.39C224.657 665.318 225.048 668.262 225.298 671.205C224.672 668.309 224.266 665.381 223.89 662.437C223.502 659.5 223.34 656.538 223.405 653.576V653.576Z" fill="#FFC727"/>
</svg>
