<svg width="42" height="42" viewBox="0 0 42 42" fill="none" xmlns="http://www.w3.org/2000/svg">
<path d="M21 41C32.041 41 41 32.041 41 21C41 9.95899 32.0515 1 21 1C9.95899 1 1 9.95899 1 21C1 32.0515 9.95899 41 21 41Z" fill="#F5A391" stroke="#001027" stroke-width="1.5" stroke-miterlimit="10"/>
<path d="M21.0835 35.7528C29.2012 35.7528 35.7628 29.1703 35.7417 21.0525C35.7207 12.9347 29.1276 6.35217 21.0099 6.35217C12.8921 6.35217 6.33058 12.9347 6.35161 21.0525C6.36213 29.1703 12.9657 35.7528 21.0835 35.7528Z" fill="white"/>
<path d="M17.8507 24.8202C17.8507 26.0191 18.824 27 20.0137 27H22.1768C23.3665 27 24.3398 26.0191 24.3398 24.8202V23.1199C24.3398 22.1826 23.745 21.3433 22.8581 21.049L19.3215 19.861C18.4347 19.5668 17.8398 18.7275 17.8398 17.7902V17.1798C17.8398 15.9809 18.8132 15 20.0029 15H22.166C23.3557 15 24.329 15.9809 24.329 17.1798V18.0762" stroke="#001027" stroke-width="2" stroke-miterlimit="10" stroke-linejoin="bevel"/>
<path d="M21 15.426V11" stroke="#001027" stroke-width="2" stroke-miterlimit="10" stroke-linejoin="round"/>
<path d="M21 26.574V31" stroke="#001027" stroke-width="2" stroke-miterlimit="10" stroke-linejoin="round"/>
<rect x="7.38954" y="27.4863" width="30.821" height="3.5" transform="rotate(-30 7.38954 27.4863)" fill="#001027" stroke="white" stroke-width="1.5"/>
<path d="M10 30.5V32L8.5 32.5L6 29.5L6.5 26L8.5 29.5L10 30.5Z" fill="#F5A391"/>
<path d="M35 15.5L36.5 19L37.5 16L37 15L35 10.5L32.5 11L34.5 14L35 15.5Z" fill="#F5A391"/>
<path d="M21.0376 36C29.3238 36 36.0214 29.2833 35.9999 21C35.9785 12.7167 29.2486 6 20.9624 6C12.6762 6 5.97858 12.7167 6.00005 21C6.01078 29.2833 12.7514 36 21.0376 36Z" stroke="#001027" stroke-width="1.5" stroke-miterlimit="10"/>
</svg>
