<svg width="40" height="40" viewBox="0 0 40 40" fill="none" xmlns="http://www.w3.org/2000/svg">
<path d="M31.7468 3.00012H31.1016V8.81551H36.9089V8.16935L31.7468 3.00012Z" fill="#F5A391"/>
<path d="M13.0312 10.8463V4.30781C13.0312 3.58858 13.6142 3.00012 14.3268 3.00012H31.8162L36.9982 8.23089V35.6924C36.9982 36.4117 36.4152 37.0001 35.7027 37.0001H14.3268C13.6142 37.0001 13.0312 36.4117 13.0312 35.6924V33.7309" stroke="#001027" stroke-width="1.5" stroke-miterlimit="10" stroke-linejoin="round"/>
<path d="M34.9731 8.81564H31.1016V4.93872" stroke="#001027" stroke-width="1.2" stroke-miterlimit="10" stroke-linejoin="round"/>
<path d="M3.50145 18.5075L18.9878 18.5075V12.6921L3.50145 12.6921V18.5075Z" fill="#F5A391"/>
<path d="M18.9863 18.5074H3.5" stroke="#001027" stroke-width="1.5" stroke-miterlimit="10"/>
<path d="M18.9863 23.0307H3.5" stroke="#001027" stroke-width="1.5" stroke-miterlimit="10"/>
<path d="M18.9883 27.5537H8.66406" stroke="#001027" stroke-width="1.5" stroke-miterlimit="10"/>
<path d="M13.8237 32.0768V18.5075" stroke="#001027" stroke-width="1.5" stroke-miterlimit="10"/>
<path d="M8.66406 32.0767V18.5075" stroke="#001027" stroke-width="1.5" stroke-miterlimit="10"/>
<path d="M3.99859 32.3H17.9766C18.5288 32.3 18.9766 31.8523 18.9766 31.3L18.9766 13.3C18.9766 12.7478 18.5288 12.3 17.9766 12.3L3.99859 12.3C3.44631 12.3 2.99859 12.7478 2.99859 13.3L2.99859 31.3C2.99859 31.8523 3.44631 32.3 3.99859 32.3Z" stroke="#001027" stroke-width="1.5" stroke-miterlimit="10"/>
<path d="M24.5413 23.3749C25.7226 23.3749 26.6802 22.3956 26.6802 21.1875C26.6802 19.9794 25.7226 19 24.5413 19C23.36 19 22.4023 19.9794 22.4023 21.1875C22.4023 22.3956 23.36 23.3749 24.5413 23.3749Z" stroke="#001027" stroke-width="1.5" stroke-miterlimit="10" stroke-linecap="round"/>
<path d="M31.263 29.0001C30.0835 29.0001 29.124 28.0188 29.124 26.8126C29.124 25.6064 30.0835 24.6251 31.263 24.6251C32.4424 24.6251 33.4019 25.6064 33.4019 26.8126C33.4019 28.0188 32.4424 29.0001 31.263 29.0001Z" stroke="#001027" stroke-width="1.5" stroke-miterlimit="10" stroke-linecap="round"/>
<path d="M23.625 28.9998L32.1807 19" stroke="#001027" stroke-width="1.5" stroke-miterlimit="10" stroke-linecap="round"/>
</svg>
